<svg width="347" height="268" viewBox="0 0 347 268" fill="none" xmlns="http://www.w3.org/2000/svg">
<path d="M1 266.139C3.88809 265.683 6.72415 265.259 9.5 264.874C72 256.204 65.2352 85.1556 148 109.874C280.208 149.358 292.107 65.3755 345.22 2.00003" stroke="black" stroke-opacity="0.05" stroke-width="3"/>
<path d="M1 217.765C3.88809 217.309 6.72415 216.885 9.5 216.5C72 207.83 65.2352 36.7816 148 61.4997C247.681 91.2699 278.97 50.8529 311.096 2.00005" stroke="black" stroke-opacity="0.05" stroke-width="3"/>
<path d="M1.00003 168.765C3.88812 168.309 6.72418 167.885 9.50003 167.5C72 158.83 65.2352 -12.2184 148 12.4997C209.453 30.8531 244.913 22.5301 270.6 2.00003" stroke="black" stroke-opacity="0.05" stroke-width="3"/>
</svg>
