<svg width="309" height="272" viewBox="0 0 309 272" fill="none" xmlns="http://www.w3.org/2000/svg">
<rect y="0.374023" width="5" height="5" rx="2.5" fill="black" fill-opacity="0.1"/>
<rect y="76.374" width="5" height="5" rx="2.5" fill="black" fill-opacity="0.1"/>
<rect y="152.374" width="5" height="5" rx="2.5" fill="black" fill-opacity="0.1"/>
<rect y="38.374" width="5" height="5" rx="2.5" fill="black" fill-opacity="0.1"/>
<rect y="114.374" width="5" height="5" rx="2.5" fill="black" fill-opacity="0.1"/>
<rect y="190.374" width="5" height="5" rx="2.5" fill="black" fill-opacity="0.1"/>
<rect y="247.374" width="5" height="5" rx="2.5" fill="black" fill-opacity="0.1"/>
<rect y="19.374" width="5" height="5" rx="2.5" fill="black" fill-opacity="0.1"/>
<rect y="95.374" width="5" height="5" rx="2.5" fill="black" fill-opacity="0.1"/>
<rect y="171.374" width="5" height="5" rx="2.5" fill="black" fill-opacity="0.1"/>
<rect y="228.374" width="5" height="5" rx="2.5" fill="black" fill-opacity="0.1"/>
<rect y="57.374" width="5" height="5" rx="2.5" fill="black" fill-opacity="0.1"/>
<rect y="133.374" width="5" height="5" rx="2.5" fill="black" fill-opacity="0.1"/>
<rect y="209.374" width="5" height="5" rx="2.5" fill="black" fill-opacity="0.1"/>
<rect y="266.374" width="5" height="5" rx="2.5" fill="black" fill-opacity="0.1"/>
<rect x="114" y="0.374023" width="5" height="5" rx="2.5" fill="black" fill-opacity="0.1"/>
<rect x="114" y="76.374" width="5" height="5" rx="2.5" fill="black" fill-opacity="0.1"/>
<rect x="114" y="152.374" width="5" height="5" rx="2.5" fill="black" fill-opacity="0.1"/>
<rect x="114" y="38.374" width="5" height="5" rx="2.5" fill="black" fill-opacity="0.1"/>
<rect x="114" y="114.374" width="5" height="5" rx="2.5" fill="black" fill-opacity="0.1"/>
<rect x="114" y="190.374" width="5" height="5" rx="2.5" fill="black" fill-opacity="0.1"/>
<rect x="114" y="247.374" width="5" height="5" rx="2.5" fill="black" fill-opacity="0.1"/>
<rect x="114" y="19.374" width="5" height="5" rx="2.5" fill="black" fill-opacity="0.1"/>
<rect x="114" y="95.374" width="5" height="5" rx="2.5" fill="black" fill-opacity="0.1"/>
<rect x="114" y="171.374" width="5" height="5" rx="2.5" fill="black" fill-opacity="0.1"/>
<rect x="114" y="228.374" width="5" height="5" rx="2.5" fill="black" fill-opacity="0.1"/>
<rect x="114" y="57.374" width="5" height="5" rx="2.5" fill="black" fill-opacity="0.1"/>
<rect x="114" y="133.374" width="5" height="5" rx="2.5" fill="black" fill-opacity="0.1"/>
<rect x="114" y="209.374" width="5" height="5" rx="2.5" fill="black" fill-opacity="0.1"/>
<rect x="114" y="266.374" width="5" height="5" rx="2.5" fill="black" fill-opacity="0.1"/>
<rect x="57" y="0.374023" width="5" height="5" rx="2.5" fill="black" fill-opacity="0.1"/>
<rect x="57" y="76.374" width="5" height="5" rx="2.5" fill="black" fill-opacity="0.1"/>
<rect x="57" y="152.374" width="5" height="5" rx="2.5" fill="black" fill-opacity="0.1"/>
<rect x="57" y="38.374" width="5" height="5" rx="2.5" fill="black" fill-opacity="0.1"/>
<rect x="57" y="114.374" width="5" height="5" rx="2.5" fill="black" fill-opacity="0.1"/>
<rect x="57" y="190.374" width="5" height="5" rx="2.5" fill="black" fill-opacity="0.1"/>
<rect x="57" y="247.374" width="5" height="5" rx="2.5" fill="black" fill-opacity="0.1"/>
<rect x="57" y="19.374" width="5" height="5" rx="2.5" fill="black" fill-opacity="0.1"/>
<rect x="57" y="95.374" width="5" height="5" rx="2.5" fill="black" fill-opacity="0.1"/>
<rect x="57" y="171.374" width="5" height="5" rx="2.5" fill="black" fill-opacity="0.1"/>
<rect x="57" y="228.374" width="5" height="5" rx="2.5" fill="black" fill-opacity="0.1"/>
<rect x="57" y="57.374" width="5" height="5" rx="2.5" fill="black" fill-opacity="0.1"/>
<rect x="57" y="133.374" width="5" height="5" rx="2.5" fill="black" fill-opacity="0.1"/>
<rect x="57" y="209.374" width="5" height="5" rx="2.5" fill="black" fill-opacity="0.1"/>
<rect x="57" y="266.374" width="5" height="5" rx="2.5" fill="black" fill-opacity="0.1"/>
<rect x="171" y="0.374023" width="5" height="5" rx="2.5" fill="black" fill-opacity="0.1"/>
<rect x="266" y="0.374023" width="5" height="5" rx="2.5" fill="black" fill-opacity="0.1"/>
<rect x="171" y="76.374" width="5" height="5" rx="2.5" fill="black" fill-opacity="0.1"/>
<rect x="266" y="76.374" width="5" height="5" rx="2.5" fill="black" fill-opacity="0.1"/>
<rect x="171" y="152.374" width="5" height="5" rx="2.5" fill="black" fill-opacity="0.1"/>
<rect x="266" y="152.374" width="5" height="5" rx="2.5" fill="black" fill-opacity="0.1"/>
<rect x="171" y="38.374" width="5" height="5" rx="2.5" fill="black" fill-opacity="0.1"/>
<rect x="266" y="38.374" width="5" height="5" rx="2.5" fill="black" fill-opacity="0.1"/>
<rect x="171" y="114.374" width="5" height="5" rx="2.5" fill="black" fill-opacity="0.1"/>
<rect x="266" y="114.374" width="5" height="5" rx="2.5" fill="black" fill-opacity="0.1"/>
<rect x="171" y="190.374" width="5" height="5" rx="2.5" fill="black" fill-opacity="0.1"/>
<rect x="266" y="190.374" width="5" height="5" rx="2.5" fill="black" fill-opacity="0.1"/>
<rect x="171" y="247.374" width="5" height="5" rx="2.5" fill="black" fill-opacity="0.1"/>
<rect x="266" y="247.374" width="5" height="5" rx="2.5" fill="black" fill-opacity="0.1"/>
<rect x="171" y="19.374" width="5" height="5" rx="2.5" fill="black" fill-opacity="0.1"/>
<rect x="266" y="19.374" width="5" height="5" rx="2.5" fill="black" fill-opacity="0.1"/>
<rect x="171" y="95.374" width="5" height="5" rx="2.5" fill="black" fill-opacity="0.1"/>
<rect x="266" y="95.374" width="5" height="5" rx="2.5" fill="black" fill-opacity="0.1"/>
<rect x="171" y="171.374" width="5" height="5" rx="2.5" fill="black" fill-opacity="0.1"/>
<rect x="266" y="171.374" width="5" height="5" rx="2.5" fill="black" fill-opacity="0.1"/>
<rect x="171" y="228.374" width="5" height="5" rx="2.5" fill="black" fill-opacity="0.1"/>
<rect x="266" y="228.374" width="5" height="5" rx="2.5" fill="black" fill-opacity="0.1"/>
<rect x="171" y="57.374" width="5" height="5" rx="2.5" fill="black" fill-opacity="0.1"/>
<rect x="266" y="57.374" width="5" height="5" rx="2.5" fill="black" fill-opacity="0.1"/>
<rect x="171" y="133.374" width="5" height="5" rx="2.5" fill="black" fill-opacity="0.1"/>
<rect x="266" y="133.374" width="5" height="5" rx="2.5" fill="black" fill-opacity="0.1"/>
<rect x="171" y="209.374" width="5" height="5" rx="2.5" fill="black" fill-opacity="0.1"/>
<rect x="266" y="209.374" width="5" height="5" rx="2.5" fill="black" fill-opacity="0.1"/>
<rect x="171" y="266.374" width="5" height="5" rx="2.5" fill="black" fill-opacity="0.1"/>
<rect x="266" y="266.374" width="5" height="5" rx="2.5" fill="black" fill-opacity="0.1"/>
<rect x="19" y="0.374023" width="5" height="5" rx="2.5" fill="black" fill-opacity="0.1"/>
<rect x="19" y="76.374" width="5" height="5" rx="2.5" fill="black" fill-opacity="0.1"/>
<rect x="19" y="152.374" width="5" height="5" rx="2.5" fill="black" fill-opacity="0.1"/>
<rect x="19" y="38.374" width="5" height="5" rx="2.5" fill="black" fill-opacity="0.1"/>
<rect x="19" y="114.374" width="5" height="5" rx="2.5" fill="black" fill-opacity="0.1"/>
<rect x="19" y="190.374" width="5" height="5" rx="2.5" fill="black" fill-opacity="0.1"/>
<rect x="19" y="247.374" width="5" height="5" rx="2.5" fill="black" fill-opacity="0.1"/>
<rect x="19" y="19.374" width="5" height="5" rx="2.5" fill="black" fill-opacity="0.1"/>
<rect x="19" y="95.374" width="5" height="5" rx="2.5" fill="black" fill-opacity="0.1"/>
<rect x="19" y="171.374" width="5" height="5" rx="2.5" fill="black" fill-opacity="0.1"/>
<rect x="19" y="228.374" width="5" height="5" rx="2.5" fill="black" fill-opacity="0.1"/>
<rect x="19" y="57.374" width="5" height="5" rx="2.5" fill="black" fill-opacity="0.1"/>
<rect x="19" y="133.374" width="5" height="5" rx="2.5" fill="black" fill-opacity="0.1"/>
<rect x="19" y="209.374" width="5" height="5" rx="2.5" fill="black" fill-opacity="0.1"/>
<rect x="19" y="266.374" width="5" height="5" rx="2.5" fill="black" fill-opacity="0.1"/>
<rect x="133" y="0.374023" width="5" height="5" rx="2.5" fill="black" fill-opacity="0.1"/>
<rect x="228" y="0.374023" width="5" height="5" rx="2.5" fill="black" fill-opacity="0.1"/>
<rect x="133" y="76.374" width="5" height="5" rx="2.5" fill="black" fill-opacity="0.1"/>
<rect x="228" y="76.374" width="5" height="5" rx="2.5" fill="black" fill-opacity="0.1"/>
<rect x="133" y="152.374" width="5" height="5" rx="2.5" fill="black" fill-opacity="0.1"/>
<rect x="228" y="152.374" width="5" height="5" rx="2.5" fill="black" fill-opacity="0.1"/>
<rect x="133" y="38.374" width="5" height="5" rx="2.5" fill="black" fill-opacity="0.1"/>
<rect x="228" y="38.374" width="5" height="5" rx="2.5" fill="black" fill-opacity="0.1"/>
<rect x="133" y="114.374" width="5" height="5" rx="2.5" fill="black" fill-opacity="0.1"/>
<rect x="228" y="114.374" width="5" height="5" rx="2.5" fill="black" fill-opacity="0.1"/>
<rect x="133" y="190.374" width="5" height="5" rx="2.5" fill="black" fill-opacity="0.1"/>
<rect x="228" y="190.374" width="5" height="5" rx="2.5" fill="black" fill-opacity="0.1"/>
<rect x="133" y="247.374" width="5" height="5" rx="2.5" fill="black" fill-opacity="0.1"/>
<rect x="228" y="247.374" width="5" height="5" rx="2.5" fill="black" fill-opacity="0.1"/>
<rect x="133" y="19.374" width="5" height="5" rx="2.5" fill="black" fill-opacity="0.1"/>
<rect x="228" y="19.374" width="5" height="5" rx="2.5" fill="black" fill-opacity="0.1"/>
<rect x="133" y="95.374" width="5" height="5" rx="2.5" fill="black" fill-opacity="0.1"/>
<rect x="228" y="95.374" width="5" height="5" rx="2.5" fill="black" fill-opacity="0.1"/>
<rect x="133" y="171.374" width="5" height="5" rx="2.5" fill="black" fill-opacity="0.1"/>
<rect x="228" y="171.374" width="5" height="5" rx="2.5" fill="black" fill-opacity="0.1"/>
<rect x="133" y="228.374" width="5" height="5" rx="2.5" fill="black" fill-opacity="0.1"/>
<rect x="228" y="228.374" width="5" height="5" rx="2.5" fill="black" fill-opacity="0.1"/>
<rect x="133" y="57.374" width="5" height="5" rx="2.5" fill="black" fill-opacity="0.1"/>
<rect x="228" y="57.374" width="5" height="5" rx="2.5" fill="black" fill-opacity="0.1"/>
<rect x="133" y="133.374" width="5" height="5" rx="2.5" fill="black" fill-opacity="0.1"/>
<rect x="228" y="133.374" width="5" height="5" rx="2.5" fill="black" fill-opacity="0.1"/>
<rect x="133" y="209.374" width="5" height="5" rx="2.5" fill="black" fill-opacity="0.1"/>
<rect x="228" y="209.374" width="5" height="5" rx="2.5" fill="black" fill-opacity="0.1"/>
<rect x="133" y="266.374" width="5" height="5" rx="2.5" fill="black" fill-opacity="0.1"/>
<rect x="228" y="266.374" width="5" height="5" rx="2.5" fill="black" fill-opacity="0.1"/>
<rect x="76" y="0.374023" width="5" height="5" rx="2.5" fill="black" fill-opacity="0.1"/>
<rect x="76" y="76.374" width="5" height="5" rx="2.5" fill="black" fill-opacity="0.1"/>
<rect x="76" y="152.374" width="5" height="5" rx="2.5" fill="black" fill-opacity="0.1"/>
<rect x="76" y="38.374" width="5" height="5" rx="2.5" fill="black" fill-opacity="0.1"/>
<rect x="76" y="114.374" width="5" height="5" rx="2.5" fill="black" fill-opacity="0.1"/>
<rect x="76" y="190.374" width="5" height="5" rx="2.5" fill="black" fill-opacity="0.1"/>
<rect x="76" y="247.374" width="5" height="5" rx="2.5" fill="black" fill-opacity="0.1"/>
<rect x="76" y="19.374" width="5" height="5" rx="2.5" fill="black" fill-opacity="0.1"/>
<rect x="76" y="95.374" width="5" height="5" rx="2.5" fill="black" fill-opacity="0.1"/>
<rect x="76" y="171.374" width="5" height="5" rx="2.5" fill="black" fill-opacity="0.1"/>
<rect x="76" y="228.374" width="5" height="5" rx="2.5" fill="black" fill-opacity="0.1"/>
<rect x="76" y="57.374" width="5" height="5" rx="2.5" fill="black" fill-opacity="0.1"/>
<rect x="76" y="133.374" width="5" height="5" rx="2.5" fill="black" fill-opacity="0.1"/>
<rect x="76" y="209.374" width="5" height="5" rx="2.5" fill="black" fill-opacity="0.1"/>
<rect x="76" y="266.374" width="5" height="5" rx="2.5" fill="black" fill-opacity="0.1"/>
<rect x="190" y="0.374023" width="5" height="5" rx="2.5" fill="black" fill-opacity="0.1"/>
<rect x="285" y="0.374023" width="5" height="5" rx="2.5" fill="black" fill-opacity="0.1"/>
<rect x="190" y="76.374" width="5" height="5" rx="2.5" fill="black" fill-opacity="0.1"/>
<rect x="285" y="76.374" width="5" height="5" rx="2.5" fill="black" fill-opacity="0.1"/>
<rect x="190" y="152.374" width="5" height="5" rx="2.5" fill="black" fill-opacity="0.1"/>
<rect x="285" y="152.374" width="5" height="5" rx="2.5" fill="black" fill-opacity="0.1"/>
<rect x="190" y="38.374" width="5" height="5" rx="2.5" fill="black" fill-opacity="0.1"/>
<rect x="285" y="38.374" width="5" height="5" rx="2.5" fill="black" fill-opacity="0.1"/>
<rect x="190" y="114.374" width="5" height="5" rx="2.5" fill="black" fill-opacity="0.1"/>
<rect x="285" y="114.374" width="5" height="5" rx="2.5" fill="black" fill-opacity="0.1"/>
<rect x="190" y="190.374" width="5" height="5" rx="2.5" fill="black" fill-opacity="0.1"/>
<rect x="285" y="190.374" width="5" height="5" rx="2.5" fill="black" fill-opacity="0.1"/>
<rect x="190" y="247.374" width="5" height="5" rx="2.5" fill="black" fill-opacity="0.1"/>
<rect x="285" y="247.374" width="5" height="5" rx="2.5" fill="black" fill-opacity="0.1"/>
<rect x="190" y="19.374" width="5" height="5" rx="2.5" fill="black" fill-opacity="0.1"/>
<rect x="285" y="19.374" width="5" height="5" rx="2.5" fill="black" fill-opacity="0.1"/>
<rect x="190" y="95.374" width="5" height="5" rx="2.5" fill="black" fill-opacity="0.1"/>
<rect x="285" y="95.374" width="5" height="5" rx="2.5" fill="black" fill-opacity="0.1"/>
<rect x="190" y="171.374" width="5" height="5" rx="2.5" fill="black" fill-opacity="0.1"/>
<rect x="285" y="171.374" width="5" height="5" rx="2.5" fill="black" fill-opacity="0.1"/>
<rect x="190" y="228.374" width="5" height="5" rx="2.5" fill="black" fill-opacity="0.1"/>
<rect x="285" y="228.374" width="5" height="5" rx="2.5" fill="black" fill-opacity="0.1"/>
<rect x="190" y="57.374" width="5" height="5" rx="2.5" fill="black" fill-opacity="0.1"/>
<rect x="285" y="57.374" width="5" height="5" rx="2.5" fill="black" fill-opacity="0.1"/>
<rect x="190" y="133.374" width="5" height="5" rx="2.5" fill="black" fill-opacity="0.1"/>
<rect x="285" y="133.374" width="5" height="5" rx="2.5" fill="black" fill-opacity="0.1"/>
<rect x="190" y="209.374" width="5" height="5" rx="2.5" fill="black" fill-opacity="0.1"/>
<rect x="285" y="209.374" width="5" height="5" rx="2.5" fill="black" fill-opacity="0.1"/>
<rect x="190" y="266.374" width="5" height="5" rx="2.5" fill="black" fill-opacity="0.1"/>
<rect x="285" y="266.374" width="5" height="5" rx="2.5" fill="black" fill-opacity="0.1"/>
<rect x="38" y="0.374023" width="5" height="5" rx="2.5" fill="black" fill-opacity="0.1"/>
<rect x="38" y="76.374" width="5" height="5" rx="2.5" fill="black" fill-opacity="0.1"/>
<rect x="38" y="152.374" width="5" height="5" rx="2.5" fill="black" fill-opacity="0.1"/>
<rect x="38" y="38.374" width="5" height="5" rx="2.5" fill="black" fill-opacity="0.1"/>
<rect x="38" y="114.374" width="5" height="5" rx="2.5" fill="black" fill-opacity="0.1"/>
<rect x="38" y="190.374" width="5" height="5" rx="2.5" fill="black" fill-opacity="0.1"/>
<rect x="38" y="247.374" width="5" height="5" rx="2.5" fill="black" fill-opacity="0.1"/>
<rect x="38" y="19.374" width="5" height="5" rx="2.5" fill="black" fill-opacity="0.1"/>
<rect x="38" y="95.374" width="5" height="5" rx="2.5" fill="black" fill-opacity="0.1"/>
<rect x="38" y="171.374" width="5" height="5" rx="2.5" fill="black" fill-opacity="0.1"/>
<rect x="38" y="228.374" width="5" height="5" rx="2.5" fill="black" fill-opacity="0.1"/>
<rect x="38" y="57.374" width="5" height="5" rx="2.5" fill="black" fill-opacity="0.1"/>
<rect x="38" y="133.374" width="5" height="5" rx="2.5" fill="black" fill-opacity="0.1"/>
<rect x="38" y="209.374" width="5" height="5" rx="2.5" fill="black" fill-opacity="0.1"/>
<rect x="38" y="266.374" width="5" height="5" rx="2.5" fill="black" fill-opacity="0.1"/>
<rect x="152" y="0.374023" width="5" height="5" rx="2.5" fill="black" fill-opacity="0.1"/>
<rect x="247" y="0.374023" width="5" height="5" rx="2.5" fill="black" fill-opacity="0.1"/>
<rect x="152" y="76.374" width="5" height="5" rx="2.5" fill="black" fill-opacity="0.1"/>
<rect x="247" y="76.374" width="5" height="5" rx="2.5" fill="black" fill-opacity="0.1"/>
<rect x="152" y="152.374" width="5" height="5" rx="2.5" fill="black" fill-opacity="0.1"/>
<rect x="247" y="152.374" width="5" height="5" rx="2.5" fill="black" fill-opacity="0.1"/>
<rect x="152" y="38.374" width="5" height="5" rx="2.5" fill="black" fill-opacity="0.1"/>
<rect x="247" y="38.374" width="5" height="5" rx="2.5" fill="black" fill-opacity="0.1"/>
<rect x="152" y="114.374" width="5" height="5" rx="2.5" fill="black" fill-opacity="0.1"/>
<rect x="247" y="114.374" width="5" height="5" rx="2.5" fill="black" fill-opacity="0.1"/>
<rect x="152" y="190.374" width="5" height="5" rx="2.5" fill="black" fill-opacity="0.1"/>
<rect x="247" y="190.374" width="5" height="5" rx="2.5" fill="black" fill-opacity="0.1"/>
<rect x="152" y="247.374" width="5" height="5" rx="2.5" fill="black" fill-opacity="0.1"/>
<rect x="247" y="247.374" width="5" height="5" rx="2.5" fill="black" fill-opacity="0.1"/>
<rect x="152" y="19.374" width="5" height="5" rx="2.5" fill="black" fill-opacity="0.1"/>
<rect x="247" y="19.374" width="5" height="5" rx="2.5" fill="black" fill-opacity="0.1"/>
<rect x="152" y="95.374" width="5" height="5" rx="2.5" fill="black" fill-opacity="0.1"/>
<rect x="247" y="95.374" width="5" height="5" rx="2.5" fill="black" fill-opacity="0.1"/>
<rect x="152" y="171.374" width="5" height="5" rx="2.5" fill="black" fill-opacity="0.1"/>
<rect x="247" y="171.374" width="5" height="5" rx="2.5" fill="black" fill-opacity="0.1"/>
<rect x="152" y="228.374" width="5" height="5" rx="2.5" fill="black" fill-opacity="0.1"/>
<rect x="247" y="228.374" width="5" height="5" rx="2.5" fill="black" fill-opacity="0.1"/>
<rect x="152" y="57.374" width="5" height="5" rx="2.5" fill="black" fill-opacity="0.1"/>
<rect x="247" y="57.374" width="5" height="5" rx="2.5" fill="black" fill-opacity="0.1"/>
<rect x="152" y="133.374" width="5" height="5" rx="2.5" fill="black" fill-opacity="0.1"/>
<rect x="247" y="133.374" width="5" height="5" rx="2.5" fill="black" fill-opacity="0.1"/>
<rect x="152" y="209.374" width="5" height="5" rx="2.5" fill="black" fill-opacity="0.1"/>
<rect x="247" y="209.374" width="5" height="5" rx="2.5" fill="black" fill-opacity="0.1"/>
<rect x="152" y="266.374" width="5" height="5" rx="2.5" fill="black" fill-opacity="0.1"/>
<rect x="247" y="266.374" width="5" height="5" rx="2.5" fill="black" fill-opacity="0.1"/>
<rect x="95" y="0.374023" width="5" height="5" rx="2.5" fill="black" fill-opacity="0.1"/>
<rect x="95" y="76.374" width="5" height="5" rx="2.5" fill="black" fill-opacity="0.1"/>
<rect x="95" y="152.374" width="5" height="5" rx="2.5" fill="black" fill-opacity="0.1"/>
<rect x="95" y="38.374" width="5" height="5" rx="2.5" fill="black" fill-opacity="0.1"/>
<rect x="95" y="114.374" width="5" height="5" rx="2.5" fill="black" fill-opacity="0.1"/>
<rect x="95" y="190.374" width="5" height="5" rx="2.5" fill="black" fill-opacity="0.1"/>
<rect x="95" y="247.374" width="5" height="5" rx="2.5" fill="black" fill-opacity="0.1"/>
<rect x="95" y="19.374" width="5" height="5" rx="2.5" fill="black" fill-opacity="0.1"/>
<rect x="95" y="95.374" width="5" height="5" rx="2.5" fill="black" fill-opacity="0.1"/>
<rect x="95" y="171.374" width="5" height="5" rx="2.5" fill="black" fill-opacity="0.1"/>
<rect x="95" y="228.374" width="5" height="5" rx="2.5" fill="black" fill-opacity="0.1"/>
<rect x="95" y="57.374" width="5" height="5" rx="2.5" fill="black" fill-opacity="0.1"/>
<rect x="95" y="133.374" width="5" height="5" rx="2.5" fill="black" fill-opacity="0.1"/>
<rect x="95" y="209.374" width="5" height="5" rx="2.5" fill="black" fill-opacity="0.1"/>
<rect x="95" y="266.374" width="5" height="5" rx="2.5" fill="black" fill-opacity="0.1"/>
<rect x="209" y="0.374023" width="5" height="5" rx="2.5" fill="black" fill-opacity="0.1"/>
<rect x="304" y="0.374023" width="5" height="5" rx="2.5" fill="black" fill-opacity="0.1"/>
<rect x="209" y="76.374" width="5" height="5" rx="2.5" fill="black" fill-opacity="0.1"/>
<rect x="304" y="76.374" width="5" height="5" rx="2.5" fill="black" fill-opacity="0.1"/>
<rect x="209" y="152.374" width="5" height="5" rx="2.5" fill="black" fill-opacity="0.1"/>
<rect x="304" y="152.374" width="5" height="5" rx="2.5" fill="black" fill-opacity="0.1"/>
<rect x="209" y="38.374" width="5" height="5" rx="2.5" fill="black" fill-opacity="0.1"/>
<rect x="304" y="38.374" width="5" height="5" rx="2.5" fill="black" fill-opacity="0.1"/>
<rect x="209" y="114.374" width="5" height="5" rx="2.5" fill="black" fill-opacity="0.1"/>
<rect x="304" y="114.374" width="5" height="5" rx="2.5" fill="black" fill-opacity="0.1"/>
<rect x="209" y="190.374" width="5" height="5" rx="2.5" fill="black" fill-opacity="0.1"/>
<rect x="304" y="190.374" width="5" height="5" rx="2.5" fill="black" fill-opacity="0.1"/>
<rect x="209" y="247.374" width="5" height="5" rx="2.5" fill="black" fill-opacity="0.1"/>
<rect x="304" y="247.374" width="5" height="5" rx="2.5" fill="black" fill-opacity="0.1"/>
<rect x="209" y="19.374" width="5" height="5" rx="2.5" fill="black" fill-opacity="0.1"/>
<rect x="304" y="19.374" width="5" height="5" rx="2.5" fill="black" fill-opacity="0.1"/>
<rect x="209" y="95.374" width="5" height="5" rx="2.5" fill="black" fill-opacity="0.1"/>
<rect x="304" y="95.374" width="5" height="5" rx="2.5" fill="black" fill-opacity="0.1"/>
<rect x="209" y="171.374" width="5" height="5" rx="2.5" fill="black" fill-opacity="0.1"/>
<rect x="304" y="171.374" width="5" height="5" rx="2.5" fill="black" fill-opacity="0.1"/>
<rect x="209" y="228.374" width="5" height="5" rx="2.5" fill="black" fill-opacity="0.1"/>
<rect x="304" y="228.374" width="5" height="5" rx="2.5" fill="black" fill-opacity="0.1"/>
<rect x="209" y="57.374" width="5" height="5" rx="2.5" fill="black" fill-opacity="0.1"/>
<rect x="304" y="57.374" width="5" height="5" rx="2.5" fill="black" fill-opacity="0.1"/>
<rect x="209" y="133.374" width="5" height="5" rx="2.5" fill="black" fill-opacity="0.1"/>
<rect x="304" y="133.374" width="5" height="5" rx="2.5" fill="black" fill-opacity="0.1"/>
<rect x="209" y="209.374" width="5" height="5" rx="2.5" fill="black" fill-opacity="0.1"/>
<rect x="304" y="209.374" width="5" height="5" rx="2.5" fill="black" fill-opacity="0.1"/>
<rect x="209" y="266.374" width="5" height="5" rx="2.5" fill="black" fill-opacity="0.1"/>
<rect x="304" y="266.374" width="5" height="5" rx="2.5" fill="black" fill-opacity="0.1"/>
</svg>
