<svg width="485" height="333" viewBox="0 0 485 333" fill="none" xmlns="http://www.w3.org/2000/svg">
<path d="M1 331.139C13.2159 326.256 24.4785 321.243 34 315.933C135 259.602 114.5 119.603 278 168.433C360.765 193.151 354 22.1027 416.5 13.433C436.983 10.5916 460.745 5.59504 484.5 2" stroke="black" stroke-opacity="0.05" stroke-width="3"/>
<path d="M74.7266 331.602C133.179 267.669 140.915 175.866 278 216.807C360.765 241.525 354 70.4767 416.5 61.807C436.983 58.9657 460.745 53.9691 484.5 50.374" stroke="black" stroke-opacity="0.05" stroke-width="3"/>
<path d="M111.108 331.102C144.676 279.739 174.401 234.867 278 265.807C360.765 290.525 354 119.477 416.5 110.807C436.983 107.966 460.745 102.969 484.5 99.374" stroke="black" stroke-opacity="0.05" stroke-width="3"/>
</svg>
