<svg width="265" height="348" viewBox="0 0 265 348" fill="none" xmlns="http://www.w3.org/2000/svg">
<path d="M110.228 122.331C106.591 121.494 102.384 121.473 100.765 117.477C71.3225 95.0868 39.742 74.8533 8.2678 55.1926C4.87775 52.8808 0.967151 50.8328 -1.96639 48.0356C-5.45944 39.7212 5.57366 48.2161 8.43199 49.5567C13.98 43.7134 19.5073 37.8918 25.2273 31.8673C22.2993 27.6505 5.5688 18.2441 7.31848 14.3594C10.4358 11.2346 24.3706 25.6378 28.584 27.4949C35.1436 20.8016 41.4805 14.3349 48.1624 7.51706C25.1231 -30.4837 122.872 87.7331 123.434 92.1018C131.451 74.6424 133.457 65.0919 155.196 70.535C158.165 71.1638 159.994 70.0463 161.904 67.9995C183.017 45.752 204.441 23.5709 226.508 2.34881C234.312 1.81487 223.359 11.2247 221.652 13.5457C226.463 20.4388 231.205 27.2348 236.013 34.1242C256.133 16.1376 259.026 22.3337 238.975 38.2431C243.043 44.7994 247.029 51.226 251.193 57.9371C253.974 56.6014 267.409 47.3802 263.527 56.0007C246.02 67.6786 227.468 77.3285 209.444 88.3038C218.635 107.586 229.334 126.001 237.959 145.561C243.99 156.971 236.823 159.85 227.999 165.114C229.538 170.758 227.794 177.604 231.791 181.834C236.378 186.727 261.551 202.084 260.565 206.403C259.845 208.641 255.957 206.096 253.964 204.882C248.609 210.999 243.298 217.065 237.829 223.312C240.491 227.665 251.564 235.068 249.023 239.903C244.971 242.071 238.565 230.374 234.469 228.158C235.041 249.76 237.161 271.019 238.125 292.581C236.988 301.616 243.344 318.958 231.493 321.83C200.373 329.985 167.733 331.623 135.747 329.181C123.554 369.057 66.0483 343.23 22.4576 372.745C21.5012 373.554 19.9001 374.085 18.9467 373.19C18.0037 370.434 22.2612 368.428 24.0561 367.025C39.2599 359.111 55.4287 352.509 72.5089 350.185C93.3787 348.478 120.949 350.926 131.888 328.856C125.683 327.697 119.479 326.537 112.951 325.317C110.281 342.214 85.8501 338.935 73.0229 339.137C53.8976 338.88 34.546 340.024 16.0165 344.883C14.6922 345.26 13.3156 345.253 13.007 343.793C17.5564 335.211 36.7669 336.219 45.7799 334.307C67.0791 329.736 92.7476 339.43 110.78 324.759C101.232 321.634 90.6509 322.388 92.84 309.621C95.2044 261.522 103.531 213.916 109.561 166.175C106.682 164.551 106.628 164.507 104.464 166.725C101.436 170.573 -8.08023 278.253 25.2633 235.092C22.7703 232.03 19.8997 229.754 16.9865 226.77C12.8069 228.844 3.36707 239.982 -0.50912 237.323C-2.47852 233.279 11.2251 226.463 13.8589 222.685C8.42198 215.76 3.13622 209.027 -2.31513 202.082C-37.02 213.555 74.5247 147.425 78.1119 144.77C86.4819 137.703 107.385 132.362 110.228 122.331ZM100.525 280.335C104.884 281.353 108.563 282.212 112.395 283.107C112.769 270.465 120.685 261.144 133.86 262.753C147.342 263.757 145.388 281.06 146.423 290.835C164.094 293.926 213.048 288.569 231.435 281.539C230.663 266.754 229.885 251.867 229.112 237.05C224.655 236.663 224.451 236.778 220.6 241.556C233.619 272.673 168.682 181.008 166.034 178.362C164.964 176.926 163.878 175.906 161.918 175.703C145.737 174.179 129.921 170.383 114.087 166.988C112.76 179.3 111.463 191.335 110.134 203.659C123.101 203.46 124.443 210.965 122.493 222.005C122.068 232.649 114.485 231.575 106.001 230.873C104.16 247.498 102.367 263.698 100.525 280.335ZM205.205 91.0539C191.722 98.8952 178.884 106.935 165.395 114.654C160.3 117.584 161.434 117.183 162.355 122.001C165.971 137.647 197.302 152.476 209.675 164.841C215.38 168.883 227.926 156.264 234.59 154.04C228.037 131.673 214.861 112.573 205.205 91.0539ZM146.508 295.413C145.786 305.046 145.086 314.389 144.359 324.075C174.548 326.049 204.23 323.155 233.654 315.658C233.342 305.751 232.553 296.284 231.606 286.758C203.493 293.912 175.529 298.409 146.508 295.413ZM138.881 323.849C138.28 312.167 145.272 273.754 134.549 268.765C109.799 264.307 120.443 305.849 117.922 320.517C124.881 321.624 131.615 322.694 138.881 323.849ZM136.446 130.845C134.302 129.981 133.401 130.936 132.577 132.351C127.343 143.379 118.971 151.685 111.017 160.608C126.972 165.299 142.898 168.148 159.741 170.534C155.146 165.139 152.449 159.202 147.462 155.29C145.165 154.827 144.162 153.241 143.44 151.4C140.831 144.748 138.181 137.702 136.446 130.845ZM232.285 37.5658C227.653 30.6282 223.18 23.9285 218.483 16.8928C212.748 22.7472 207.292 28.3157 201.753 33.9697C206.028 40.3522 210.154 46.5127 214.455 52.9353C220.592 47.6455 226.333 42.6973 232.285 37.5658ZM235.075 41.801C228.97 47.1253 223.189 52.1679 217.273 57.3272C220.445 62.2524 223.481 66.9671 226.714 71.9868C233.786 67.9661 240.799 64.1722 247.805 59.8035C243.422 53.6067 239.343 47.8378 235.075 41.801ZM32.1193 207.414C27.4109 201.05 22.9745 195.054 18.3168 188.758C12.8658 192.22 7.43823 195.667 1.69565 199.314C7.30224 206.14 12.5809 212.568 18.1052 219.294C22.831 215.288 27.3857 211.427 32.1193 207.414ZM34.0075 31.6683C38.3358 35.2121 42.4895 38.6129 46.8759 42.2038C52.1842 36.639 57.3822 31.1907 62.6379 25.6808C58.8376 21.2784 56.1571 16.4755 51.9752 12.6301C45.9218 19.0441 40.0562 25.2591 34.0075 31.6683ZM42.3731 46.7017C37.9789 42.8993 33.9312 39.3962 29.6612 35.7012C23.9797 41.253 18.5039 46.6039 12.7535 52.2227C18.4283 55.4212 23.7255 58.4066 28.9286 61.3394C33.471 56.3939 37.7688 51.7143 42.3731 46.7017ZM37.7344 176.708C32.5558 179.916 27.6047 182.984 22.5213 186.134C27.4309 192.1 32.0544 197.718 36.8299 203.521C41.3701 199.7 45.5517 196.181 49.8236 192.586C45.7332 187.213 41.8945 182.171 37.7344 176.708ZM59.3345 163.144C53.3955 166.895 47.617 170.544 41.7584 174.245C46.2456 179.149 50.4324 183.726 54.7336 188.427C59.7899 184.051 64.5913 179.896 69.425 175.712C65.9893 171.433 62.7835 167.44 59.3345 163.144ZM218.002 201.413C224.417 195.398 226.885 192.552 224.909 183.227C223.11 179.486 218.298 177.581 215.401 174.702C211.294 179.388 207.543 183.669 203.652 188.11C208.528 192.63 213.095 196.864 218.002 201.413ZM198.329 66.3457C202.517 62.8686 206.338 59.6965 210.087 56.5843C205.921 50.1125 202.031 44.069 197.964 37.751C194.207 41.579 190.559 45.297 187.004 48.919C190.848 54.8339 194.442 60.3645 198.329 66.3457ZM99.9717 291.198C103.215 292.585 108.601 291.391 109.085 295.294C107.901 299.542 102.582 296.157 99.6697 295.599C98.893 302.096 98.1568 308.25 97.3931 314.639C102.157 316.9 107.197 317.976 112.734 319.02C112.399 315.904 112.118 313.296 111.838 310.687C109.386 309.605 104.339 310.323 104.585 306.864C105.926 304.35 109.319 306.609 111.836 306.294C111.836 300.091 111.836 294.376 111.836 288.707C108.046 287.548 104.343 286.415 100.382 285.203C100.239 287.294 100.116 289.092 99.9717 291.198ZM63.2281 55.8188C67.9195 51.2945 72.3745 46.9981 77.0077 42.5298C73.5383 38.4673 70.1523 34.5018 66.6622 30.4151C61.501 35.6649 56.5699 40.6805 51.3931 45.9458C55.4809 49.3562 59.2867 52.531 63.2281 55.8188ZM213.648 206.219C209.021 201.499 204.567 196.971 200.1 192.442C196.855 195.618 193.988 198.424 190.896 201.451C195.114 207.078 199.333 212.707 203.725 218.565C207.135 214.322 210.261 210.433 213.648 206.219ZM47.5985 73.0432C51.3476 68.8168 54.9503 64.7558 58.6935 60.5361C54.4953 56.9727 50.7017 53.7527 46.4591 50.1514C41.9089 55.3008 38.0182 59.1695 32.9037 63.6616C37.9352 66.8737 42.4721 69.7702 47.5985 73.0432ZM138.9 76.0305C133.96 81.6304 131.585 89.0063 127.757 95.4288C127.901 101.058 130.089 107.492 132.917 112.432C135.952 102.736 137.425 93.4531 144.424 85.5922C143.037 82.4104 141.705 79.0081 138.9 76.0305ZM250.274 202.006C245.336 198.171 240.65 194.532 235.862 190.814C233.903 193.514 231.078 194.993 231.676 198.497C232.481 205.575 232.605 211.889 233.799 219.053C239.513 213.141 244.674 207.801 250.274 202.006ZM81.347 149.187C75.5563 152.864 70.0245 156.377 64.2719 160.03C67.8572 164.431 70.4117 167.611 73.8114 171.921C78.9041 167.437 83.6613 163.249 88.4894 158.999C86.0572 155.658 83.8374 152.609 81.347 149.187ZM83.5472 73.3185C88.3868 77.6579 92.8207 81.6333 97.4783 85.8093C100.27 82.7542 102.809 79.976 105.622 76.8975C101.824 72.2469 97.7644 67.2762 93.5288 62.0898C90.0872 65.9608 86.9532 69.4864 83.5472 73.3185ZM222.815 74.1711C219.612 69.5579 216.581 65.1926 213.376 60.575C209.028 64.1907 205.014 67.5285 200.814 71.0212C203.189 75.1794 205.4 79.0493 207.736 83.137C212.884 80.0753 217.689 77.2188 222.815 74.1711ZM80.5982 46.7651C76.3133 51.3056 72.3363 55.5198 68.1455 59.9607C71.8535 63.1547 75.3102 66.1323 78.7181 69.0677C82.7306 65.3001 86.357 61.8948 90.2592 58.231C87.1181 54.503 83.9971 50.7991 80.5982 46.7651ZM193.555 69.7562C190.345 64.0929 187.115 58.394 183.871 52.67C180.254 55.446 173.779 62.3265 172.675 64.3978C175.494 71.6908 188.542 76.477 193.555 69.7562ZM63.4093 64.6202C59.17 68.1907 55.1682 71.5614 50.8322 75.2134C55.6313 78.4212 60.1722 81.4559 64.9296 84.6354C68.197 81.0761 71.2395 77.7616 74.5073 74.2019C70.6937 70.9089 67.1054 67.8112 63.4093 64.6202ZM70.0253 88.1252C74.8434 91.4989 80.1305 95.201 85.2458 98.7829C87.8618 95.8468 90.2529 93.163 92.817 90.285C88.1553 86.1751 83.6802 82.2295 79.2994 78.3674C76.1576 81.6726 73.2267 84.7566 70.0253 88.1252ZM184.58 167.604C187.324 164.377 190.153 161.051 193.214 157.453C189.05 154.25 185.039 151.165 180.913 147.991C178.221 151.154 175.794 154.005 173.285 156.952C177.051 160.504 180.672 163.918 184.58 167.604ZM36.2386 211.728C31.1381 215.713 26.3634 219.444 21.2977 223.401C23.7781 226.406 26.0573 229.167 28.4717 232.092C33.1605 227.123 37.4728 222.553 41.9096 217.85C40.2915 216.104 38.398 214.06 36.2386 211.728ZM195.872 187.988C188.332 180.941 186.075 172.385 177.698 183.958C181.177 188.572 184.536 193.026 188.124 197.783C190.845 194.343 193.249 191.303 195.872 187.988ZM97.4005 94.3546C94.2209 96.7709 91.4534 98.8741 88.5443 101.085C93.4821 104.86 98.3098 108.551 103.359 112.411C105.598 110.051 107.727 107.806 110.063 105.344C105.603 101.473 101.562 97.9663 97.4005 94.3546ZM158.754 78.592C161.795 82.4789 164.858 86.3925 168.11 90.5488C171.68 87.7113 174.972 85.0949 178.321 82.4326C176.089 79.3987 175.29 75.8204 170.959 76.2468C167 77.1673 160.887 73.8914 158.754 78.592ZM119.758 94.7841C116.456 90.6552 113.109 86.4704 109.636 82.1295C107.04 84.8848 104.665 87.4052 102.127 90.0983C106.257 93.8522 110.109 97.3534 113.726 100.64C115.877 98.5521 117.7 96.7824 119.758 94.7841ZM92.6346 154.94C99.8557 151.104 101.215 142.313 104.805 135.626C104.574 135.42 104.344 135.213 104.113 135.007C98.076 138.741 92.0392 142.476 85.8053 146.332C88.2123 149.366 90.3836 152.103 92.6346 154.94ZM46.1133 214.977C50.3912 210.846 54.4053 206.97 58.6279 202.892C56.8423 200.851 55.2767 199.061 53.5993 197.143C48.9724 201.082 45.0829 204.376 40.519 208.218C42.4873 210.596 44.1161 212.564 46.1133 214.977ZM62.7082 199.004C67.9213 193.968 72.792 189.261 77.6105 184.606C75.969 182.853 74.6651 181.46 73.2341 179.931C68.2015 184.364 63.3608 188.629 58.3419 193.049C59.7755 195.005 61.059 196.755 62.7082 199.004ZM185.66 83.5301C187.69 86.7267 189.629 89.7789 191.661 92.9788C195.53 90.6111 198.933 88.5276 202.442 86.3799C198.795 79.356 190.642 76.222 185.66 83.5301ZM188.219 95.0542C185.936 92.1281 183.854 89.4591 181.537 86.4893C178.012 89.3061 174.696 91.9554 171.134 94.8015C173.113 97.3931 174.857 99.677 176.7 102.092C180.652 99.6774 184.295 97.452 188.219 95.0542ZM155.066 81.3877C153.283 84.3579 149.63 85.776 151.622 89.4669C153.234 93.0959 154.132 96.3615 155.766 100.197C158.575 97.9737 160.924 96.1143 163.309 94.2272C160.588 89.9886 158.091 86.0987 155.066 81.3877ZM80.866 181.474C85.9427 176.486 90.7705 171.918 95.5286 167.025C94.1917 165.517 93.1734 164.368 92.0284 163.076C86.7883 167.751 82.2263 171.854 77.1514 176.464C78.4842 178.262 79.498 179.629 80.866 181.474ZM109.189 209.577C108.478 214.488 107.554 219.468 107.278 224.846C110.193 224.602 112.594 224.401 114.851 224.212C116.031 222.021 115.578 219.769 115.897 217.402C116.495 210.775 115.963 210.626 109.189 209.577ZM161.213 112.215C164.959 109.674 168.676 107.154 172.629 104.473C170.627 102.297 168.829 100.344 166.877 98.2227C163.618 100.781 160.564 103.179 157.611 105.498C158.063 108.401 159.033 110.555 161.213 112.215ZM214.392 215.232C211.457 217.676 208.971 219.746 206.249 222.012C210.148 227.352 213.855 232.43 217.716 237.719C218.486 236.883 218.961 236.367 219.424 235.864C215.521 231.288 215.521 231.288 214.392 215.232ZM151.827 151.718C154.758 155.244 157.551 158.605 160.65 162.334C162.389 160.095 163.833 158.236 165.101 156.603C161.686 153.362 158.608 150.44 155.395 147.391C154.408 148.588 153.177 150.081 151.827 151.718ZM197.28 160.596C194.293 164.396 192.129 167.232 189.241 171.11C195.048 171.5 203.691 169.737 206.377 167.659C203.357 165.314 200.391 163.011 197.28 160.596ZM99.1784 156.76C105.911 161.261 109.425 152.764 114.388 149.339C113.465 147.936 112.713 146.791 111.849 145.477C107.461 149.325 103.416 152.783 99.1784 156.76ZM141.336 98.4061C140.294 103.904 139.433 108.446 138.572 112.988C138.776 113.104 138.98 113.219 139.183 113.334C142.155 110.941 145.126 108.547 148.266 106.017C145.934 103.456 143.942 101.269 141.336 98.4061ZM144.217 126.969C147.559 130.408 151.428 134.387 155.564 138.642C156.579 136.964 157.617 135.249 158.945 133.054C153.458 130.787 148.455 128.72 144.217 126.969ZM222.231 215.987C221.925 220.476 219.962 226.977 224.432 229.475C230.162 225.015 229.217 220.487 222.231 215.987ZM152.064 142.834C148.606 139.726 145.364 136.811 142.235 133.999C143.741 138.308 145.622 142.818 148.189 147.57C149.686 145.74 150.817 144.357 152.064 142.834ZM176.503 144.607C173.509 142.327 170.77 140.241 168.031 138.155C167.83 138.301 167.63 138.447 167.429 138.592C168.57 142.351 169.71 146.11 171.02 150.424C173.032 148.289 174.59 146.636 176.503 144.607ZM123.431 129.02C120.641 128.36 117.696 130.035 114.807 130.308C109.851 130.959 110.898 134.022 113.291 137.37C116.671 134.586 119.967 131.873 123.431 129.02ZM194.304 177.806C196.126 179.894 197.689 181.686 199.403 183.651C201.889 180.987 204.104 178.612 206.865 175.654C202.182 176.456 198.367 177.11 194.304 177.806ZM168.6 161.831C166.848 163.584 165.454 164.978 163.97 166.462C166.428 169.013 167.471 172.925 172.076 171.675C170.931 168.432 169.854 165.381 168.6 161.831ZM117.921 146.014C120.612 142.076 123 138.58 125.388 135.084C125.157 134.886 124.927 134.687 124.697 134.489C121.707 137.028 118.717 139.567 115.589 142.224C116.365 143.485 116.968 144.466 117.921 146.014ZM148.638 81.8153C150.613 79.6417 152.184 77.9132 153.756 76.1846C153.635 75.956 153.515 75.727 153.395 75.4984C150.835 75.6655 148.314 74.7043 145.402 75.3576C146.48 77.5089 147.401 79.3472 148.638 81.8153ZM144.532 115.38C144.648 115.588 144.764 115.797 144.88 116.004C148.054 115.556 151.228 115.108 155.033 114.57C153.855 112.727 152.993 111.378 151.945 109.74C149.224 111.81 146.878 113.595 144.532 115.38ZM113.068 116.732C118.632 105.154 112.341 109.826 107.199 115.921C109.509 116.24 111.132 116.465 113.068 116.732ZM224.146 167.826C221.961 169.076 220.335 170.005 218.202 171.225C220.428 172.908 222.183 174.234 224.574 176.041C224.411 172.921 224.295 170.676 224.146 167.826ZM156.215 119.921C153.7 120.789 151.686 121.484 149.673 122.179C149.664 122.379 149.655 122.579 149.647 122.779C152.135 123.465 154.624 124.152 157.715 125.005C157.121 122.991 156.724 121.646 156.215 119.921ZM119.737 113.402C119.149 114.989 118.757 116.045 118.267 117.368C120.887 117.763 123.089 118.096 125.29 118.428C125.406 118.161 125.523 117.895 125.639 117.628C123.838 116.338 122.037 115.049 119.737 113.402ZM143.31 93.7055C145.471 95.6011 146.984 96.9284 148.497 98.2557C148.723 98.1093 148.949 97.9633 149.176 97.8169C148.366 95.6626 147.556 93.5083 146.738 91.3307C145.454 92.2207 144.564 92.8377 143.31 93.7055ZM162.065 139.884C160.98 141.16 160.248 142.021 159.362 143.062C160.958 144.61 162.34 145.951 163.723 147.292C163.908 147.153 164.093 147.014 164.278 146.874C163.597 144.724 162.917 142.573 162.065 139.884ZM124.45 104.69C124.169 104.67 123.888 104.649 123.608 104.628C123.132 105.897 122.657 107.166 122.201 108.386C123.666 109.665 124.792 110.649 125.919 111.633C126.103 111.483 126.288 111.332 126.472 111.182C125.798 109.018 125.124 106.854 124.45 104.69ZM222.1 206.591C224.066 206.591 225.355 206.591 226.884 206.591C226.636 204.993 226.447 203.771 226.149 201.849C224.589 203.677 223.534 204.913 222.1 206.591ZM120.806 123.452C116.109 122.1 115.877 122.175 115.462 124.955C117.326 124.43 119.066 123.941 120.806 123.452ZM168.876 67.7775C167.438 69.0544 167.036 69.3249 166.336 70.8444C167.878 70.8444 169.109 70.8444 170.726 70.8444C170.019 69.6721 169.546 68.8873 168.876 67.7775ZM172.224 176.715C173.26 177.955 173.931 178.759 174.858 179.869C175.679 178.509 176.187 177.668 176.922 176.452C175.213 176.547 174.05 176.612 172.224 176.715ZM177.003 168.421C176.878 168.539 176.753 168.657 176.628 168.775C177.087 169.265 177.547 169.755 178.006 170.245C178.134 170.124 178.262 170.003 178.39 169.883C177.928 169.395 177.465 168.908 177.003 168.421ZM108.463 139.288C107.915 140.337 107.547 141.04 106.884 142.309C108.481 141.524 109.455 141.135 108.463 139.288ZM98.1449 162.05C98.0334 162.208 97.9218 162.366 97.8103 162.525C98.1538 162.835 98.4976 163.146 98.8415 163.456C99.0279 163.226 99.2143 162.996 99.4003 162.766C98.9816 162.527 98.5633 162.289 98.1449 162.05Z" fill="#3E3B3F" fill-opacity="0.1"/>
</svg>
