<svg width="353" height="359" viewBox="0 0 353 359" fill="none" xmlns="http://www.w3.org/2000/svg">
<path d="M-12.5462 348.084C5.07988 301.439 26.2402 255.67 49.6964 211.667C50.1161 210.881 48.927 210.186 48.5032 210.967C24.7508 254.864 3.59458 300.863 -13.0564 347.94C-13.1757 348.269 -12.6655 348.4 -12.5462 348.084Z" fill="#3E3B3F" fill-opacity="0.13"/>
<path d="M-60.6517 351.004C-30.053 320.599 2.94038 293.205 38.7521 269.127C39.7766 268.44 38.8138 266.77 37.777 267.461C1.78423 291.497 -31.3572 319.08 -61.1743 350.481C-61.4993 350.827 -60.9891 351.341 -60.6517 351.004Z" fill="#3E3B3F" fill-opacity="0.13"/>
<path d="M-79.4296 358.081C-46.9917 319.521 -10.6657 284.659 28.0754 252.489C28.8654 251.831 27.7339 250.72 26.9522 251.366C-11.9412 283.215 -48.2836 318.476 -79.9151 357.595C-80.1949 357.933 -79.7176 358.422 -79.4296 358.081Z" fill="#3E3B3F" fill-opacity="0.13"/>
<path d="M78.3532 200.907C91.8114 189.235 104.978 177.229 118.156 165.248C118.769 164.688 117.86 163.783 117.247 164.338C104.048 176.287 90.8322 188.218 77.9212 200.475C77.6332 200.747 78.057 201.162 78.3532 200.907Z" fill="#3E3B3F" fill-opacity="0.13"/>
<path d="M124.155 141.068C119.398 147.75 117.288 155.32 118.004 163.499C118.065 164.215 119.201 164.219 119.127 163.499C118.341 155.587 120.11 147.926 124.389 141.208C124.484 141.055 124.253 140.928 124.155 141.068Z" fill="#3E3B3F" fill-opacity="0.13"/>
<path d="M140.139 119.853C134.972 123.667 132.458 129.793 133.194 136.146C133.289 136.961 134.585 136.961 134.482 136.146C133.688 130.044 135.856 124.288 140.296 120.055C140.394 119.956 140.259 119.763 140.139 119.853Z" fill="#3E3B3F" fill-opacity="0.13"/>
<path d="M153.898 105.61C147.372 107.647 143.546 114.213 144.599 120.903C144.719 121.664 145.887 121.344 145.764 120.582C144.752 114.489 148.368 108.486 154.079 106.26C154.474 106.108 154.322 105.478 153.898 105.61Z" fill="#3E3B3F" fill-opacity="0.13"/>
<path d="M164.974 93.069C159 95.8339 156.177 102.573 157.086 108.897C157.193 109.65 158.341 109.333 158.234 108.58C157.337 102.474 160.357 97.0353 165.249 93.5421C165.537 93.3364 165.295 92.9209 164.974 93.069Z" fill="#3E3B3F" fill-opacity="0.13"/>
<path d="M179.786 78.4255C173.38 80.3674 169.002 85.9671 168.344 92.5872C168.274 93.2867 169.368 93.2825 169.438 92.5872C170.026 86.4238 174.198 81.2274 179.967 79.0755C180.366 78.9274 180.21 78.2979 179.786 78.4255Z" fill="#3E3B3F" fill-opacity="0.13"/>
<path d="M192.372 62.6717C186.011 66.5721 182.653 73.5378 183.336 80.9478C183.41 81.746 184.673 81.7502 184.591 80.9478C183.867 73.904 186.883 67.1975 192.528 62.935C192.676 62.8198 192.544 62.5647 192.372 62.6717Z" fill="#3E3B3F" fill-opacity="0.13"/>
<path d="M210.002 40.2565C202.172 44.9058 197.556 53.2498 197.457 62.322C197.449 63.0585 198.593 63.0585 198.597 62.322C198.646 53.4555 202.983 45.7287 210.335 40.8243C210.685 40.5939 210.372 40.0385 210.002 40.2565Z" fill="#3E3B3F" fill-opacity="0.13"/>
<path d="M224.785 67.058C218.749 72.3903 211.981 75.904 203.954 77.0313C203.11 77.1506 203.464 78.4467 204.307 78.3191C212.265 77.1177 219.745 73.4724 225.114 67.3872C225.316 67.165 225.011 66.8605 224.785 67.058Z" fill="#3E3B3F" fill-opacity="0.13"/>
<path d="M208.438 87.5228C201.357 92.3572 193.379 97.5866 184.546 94.1799C183.661 93.8384 183.266 95.2744 184.151 95.6035C193.519 99.109 201.641 93.571 208.681 87.8396C208.858 87.6956 208.627 87.3953 208.438 87.5228Z" fill="#3E3B3F" fill-opacity="0.13"/>
<path d="M194.98 104.963C189.072 108.465 182.616 110.139 175.757 109.444C174.733 109.341 174.729 110.966 175.757 111.053C182.859 111.649 189.656 109.938 195.342 105.589C195.704 105.313 195.395 104.717 194.98 104.963Z" fill="#3E3B3F" fill-opacity="0.13"/>
<path d="M181.929 120.22C179.44 121.421 162.028 128.366 161.406 122.693C161.304 121.759 159.831 121.742 159.929 122.693C160.798 131.135 178.777 122.985 182.271 120.804C182.645 120.57 182.316 120.031 181.929 120.22Z" fill="#3E3B3F" fill-opacity="0.13"/>
<path d="M166.319 134.579C161.324 138.019 154.914 138.797 149.302 136.39C148.273 135.95 147.656 137.377 148.701 137.813C154.885 140.393 161.542 139.332 166.591 134.929C166.784 134.765 166.533 134.431 166.319 134.579Z" fill="#3E3B3F" fill-opacity="0.13"/>
<path d="M146.389 148.066C141.92 149.864 137.325 150.403 132.589 149.456C131.746 149.288 131.396 150.592 132.235 150.744C137.209 151.629 142.134 150.95 146.582 148.522C146.825 148.391 146.656 147.959 146.389 148.066Z" fill="#3E3B3F" fill-opacity="0.13"/>
<path d="M40.7189 202.211C36.8555 208.325 37.5097 215.949 42.2248 221.409C42.7679 222.034 43.6772 221.121 43.1341 220.5C38.7687 215.48 38.0734 208.362 41.2867 202.544C41.4924 202.17 40.9452 201.853 40.7189 202.211Z" fill="#3E3B3F" fill-opacity="0.13"/>
<path d="M44.788 174.114C40.2169 183.137 36.6333 195.698 46.73 202.442C47.4089 202.895 48.0507 201.792 47.3718 201.348C37.7359 195.011 41.7269 182.944 45.113 174.254C45.183 174.065 44.8785 173.937 44.788 174.114Z" fill="#3E3B3F" fill-opacity="0.13"/>
<path d="M50.9432 151.407C46.5737 159.191 46.837 168.161 51.3012 175.854C51.6344 176.426 52.5272 175.908 52.1899 175.336C47.8409 167.967 47.6147 159.294 51.2353 151.579C51.3259 151.382 51.0502 151.213 50.9432 151.407Z" fill="#3E3B3F" fill-opacity="0.13"/>
<path d="M71.7006 196.414C67.6109 204.581 60.637 210.773 51.6059 212.765C50.89 212.921 51.1944 214.044 51.9103 213.867C61.0072 211.576 68.7135 205.457 71.9804 196.533C72.038 196.369 71.7788 196.258 71.7006 196.414Z" fill="#3E3B3F" fill-opacity="0.13"/>
<path d="M75.8064 186.581C71.7907 191.922 66.335 195.649 59.7355 196.937C58.9949 197.081 59.3076 198.217 60.0482 198.069C66.8041 196.711 72.7576 192.839 76.2795 186.857C76.4605 186.548 76.0121 186.31 75.8064 186.581Z" fill="#3E3B3F" fill-opacity="0.13"/>
<path d="M81.0111 171.769C77.9665 174.92 73.9961 176.253 69.6595 175.859C69.0135 175.801 69.0094 176.825 69.6595 176.871C74.1072 177.175 78.3244 175.348 81.3197 172.077C81.5049 171.872 81.2086 171.567 81.0111 171.769Z" fill="#3E3B3F" fill-opacity="0.13"/>
<path d="M89.5159 149.074C83.1427 152.801 77.4813 156.977 72.3259 162.289C71.7787 162.853 72.6427 163.721 73.19 163.153C78.1149 158.014 83.7146 153.279 89.8245 149.6C90.1577 149.395 89.8533 148.872 89.5159 149.074Z" fill="#3E3B3F" fill-opacity="0.13"/>
<path d="M94.8191 129.164C87.2157 132.242 81.1676 137.406 76.7281 144.31C76.2467 145.058 77.4523 145.762 77.9213 145.009C82.0604 138.377 88.0263 133.135 95.0248 129.654C95.2882 129.518 95.0989 129.049 94.8191 129.164Z" fill="#3E3B3F" fill-opacity="0.13"/>
<path d="M96.5681 108.666C92.3673 110.995 88.9523 114.27 86.4384 118.364C86.0846 118.94 87.0062 119.475 87.3395 118.891C89.6394 114.846 92.8445 111.509 96.7944 109.053C97.0412 108.901 96.8232 108.526 96.5681 108.666Z" fill="#3E3B3F" fill-opacity="0.13"/>
<path d="M77.9542 94.3317C75.8806 100.347 74.638 106.338 74.4488 112.703C74.4282 113.365 75.4774 113.365 75.4774 112.703C75.4609 106.473 76.3044 100.335 78.2957 94.4264C78.3698 94.2125 78.0283 94.1178 77.9542 94.3317Z" fill="#3E3B3F" fill-opacity="0.13"/>
<path d="M68.0756 112.958C65.7016 120.57 64.8581 128.095 65.5699 136.044C65.6357 136.76 66.7672 136.764 66.6931 136.044C65.9155 128.305 66.5244 120.607 68.5858 113.098C68.6763 112.769 68.1743 112.633 68.0756 112.958Z" fill="#3E3B3F" fill-opacity="0.13"/>
<path d="M57.0328 132.839C54.7698 140.948 55.8437 149.079 59.7647 156.505C60.1556 157.246 61.2871 156.587 60.888 155.847C57.0533 148.737 56.0494 140.899 57.6047 132.999C57.6787 132.625 57.1356 132.465 57.0328 132.839Z" fill="#3E3B3F" fill-opacity="0.13"/>
<path d="M51.33 242.961C43.3646 248.264 38.9663 257.398 38.5425 266.828C38.4973 267.828 40.0813 267.832 40.1019 266.828C40.2952 257.328 44.6195 249.573 51.6592 243.389C51.8937 243.183 51.5892 242.788 51.33 242.961Z" fill="#3E3B3F" fill-opacity="0.13"/>
<path d="M69.0713 226.232C62.0933 232.259 57.9213 239.826 57.2259 249.108C57.1724 249.828 58.3039 249.828 58.3492 249.108C58.8964 240.484 62.6199 232.082 69.1124 226.277C69.1494 226.248 69.1042 226.203 69.0713 226.232Z" fill="#3E3B3F" fill-opacity="0.13"/>
<path d="M91.9596 212.292C85.0187 216.477 80.5422 222.944 79.4436 231.033C79.3326 231.848 80.4558 232.013 80.5628 231.186C81.5379 223.706 85.8169 216.781 92.2106 212.724C92.4822 212.551 92.2353 212.128 91.9596 212.292Z" fill="#3E3B3F" fill-opacity="0.13"/>
<path d="M114.663 201.393C106.187 203.816 99.6328 210.103 96.4236 218.262C96.1232 219.023 97.3493 219.352 97.6497 218.599C100.735 210.761 106.973 204.931 114.827 201.981C115.189 201.849 115.049 201.286 114.663 201.393Z" fill="#3E3B3F" fill-opacity="0.13"/>
<path d="M134.642 187.235C127.294 192.168 121.859 198.879 118.654 207.141C118.39 207.824 119.497 208.128 119.752 207.445C122.752 199.467 127.952 192.633 134.906 187.696C135.181 187.499 134.926 187.046 134.642 187.235Z" fill="#3E3B3F" fill-opacity="0.13"/>
<path d="M72.0215 259.755C67.9523 260.492 64.1095 260.298 60.1432 259.117C59.5179 258.932 59.2463 259.916 59.8758 260.093C63.8997 261.232 68.0923 261.22 72.0914 260.002C72.2519 259.953 72.1819 259.726 72.0215 259.755Z" fill="#3E3B3F" fill-opacity="0.13"/>
<path d="M103.859 250.404C94.6259 253.214 85.2204 252.457 76.3497 248.824C75.6585 248.54 75.3623 249.659 76.0412 249.939C85.1546 253.703 94.6341 253.757 103.949 250.729C104.155 250.659 104.068 250.338 103.859 250.404Z" fill="#3E3B3F" fill-opacity="0.13"/>
<path d="M122.287 236.772C117.831 240.59 112.556 242.903 106.705 243.458C105.895 243.536 105.895 244.816 106.705 244.729C112.836 244.067 118.316 241.541 122.698 237.184C122.961 236.916 122.566 236.534 122.287 236.772Z" fill="#3E3B3F" fill-opacity="0.13"/>
<path d="M152.795 225.116C140.909 229.91 128.635 230.272 116.51 226.141C115.395 225.762 114.906 227.54 116.025 227.906C128.434 231.975 141.205 231.201 153.021 225.643C153.31 225.507 153.1 224.993 152.795 225.116Z" fill="#3E3B3F" fill-opacity="0.13"/>
<path d="M161.218 216.147C159.617 216.587 158.017 217.027 156.42 217.467C155.943 217.599 156.149 218.352 156.626 218.212C158.218 217.747 159.81 217.282 161.403 216.817C161.826 216.69 161.645 216.027 161.218 216.147Z" fill="#3E3B3F" fill-opacity="0.13"/>
<path d="M222.896 167.095C206.081 182.751 187.558 195.143 166.163 203.598C165.299 203.94 165.669 205.351 166.549 205.009C188.006 196.657 207.381 184.195 223.04 167.243C223.135 167.141 222.995 167.001 222.896 167.095Z" fill="#3E3B3F" fill-opacity="0.13"/>
<path d="M154.984 169.77C147.093 176.534 141.398 184.932 137.914 194.72C137.617 195.547 138.942 195.909 139.23 195.082C142.55 185.54 148.076 177.131 155.437 170.223C155.745 169.939 155.293 169.503 154.984 169.77Z" fill="#3E3B3F" fill-opacity="0.13"/>
<path d="M201.065 139.409C186.418 149.267 172.063 159.557 157.584 169.654C157.054 170.024 157.564 170.905 158.095 170.526C172.524 160.335 187.089 150.32 201.349 139.894C201.637 139.685 201.374 139.203 201.065 139.409Z" fill="#3E3B3F" fill-opacity="0.13"/>
<path d="M277.865 204.733C277.577 204.931 277.293 205.132 277.005 205.334C276.947 205.375 277.001 205.474 277.062 205.433C277.35 205.231 277.634 205.034 277.922 204.832C277.98 204.787 277.922 204.692 277.865 204.733Z" fill="#3E3B3F" fill-opacity="0.13"/>
<path d="M154.922 238.467C152.943 240.417 151.52 242.668 150.594 245.289C150.524 245.482 150.837 245.569 150.903 245.375C151.783 242.791 153.161 240.574 155.091 238.636C155.202 238.529 155.033 238.36 154.922 238.467Z" fill="#3E3B3F" fill-opacity="0.13"/>
<path d="M286.11 222.072C244.011 238.723 199.563 246.976 154.301 246.832C153.206 246.828 153.202 248.536 154.301 248.536C200.102 248.573 243.83 239.752 286.151 222.212C286.233 222.175 286.196 222.035 286.11 222.072Z" fill="#3E3B3F" fill-opacity="0.13"/>
<path d="M171.232 227.873C168.212 229.716 166.068 232.432 164.945 235.785C164.801 236.217 165.508 236.415 165.628 235.975C166.529 232.654 168.463 229.93 171.289 227.972C171.347 227.931 171.293 227.836 171.232 227.873Z" fill="#3E3B3F" fill-opacity="0.13"/>
<path d="M191.24 217.134C184.99 218.438 180.041 222.915 178.411 229.119C178.222 229.831 179.345 230.135 179.51 229.424C180.872 223.561 185.426 218.792 191.33 217.459C191.54 217.41 191.45 217.089 191.24 217.134Z" fill="#3E3B3F" fill-opacity="0.13"/>
<path d="M207.336 206.252C202.193 208.906 197.506 212.161 193.355 216.201C191.397 218.106 187.648 221.657 190.45 224.364C190.985 224.882 191.812 224.059 191.269 223.545C190.249 222.582 191.36 219.953 192.063 219.081C192.672 218.328 193.417 217.633 194.104 216.95C195.355 215.699 196.651 214.493 198.004 213.35C200.991 210.832 204.172 208.569 207.525 206.569C207.727 206.45 207.546 206.145 207.336 206.252Z" fill="#3E3B3F" fill-opacity="0.13"/>
<path d="M211.964 201.89C206.549 205.696 203.003 210.959 201.538 217.431C201.353 218.249 202.62 218.595 202.793 217.776C204.081 211.674 207.381 206.165 212.166 202.158C212.314 202.034 212.12 201.783 211.964 201.89Z" fill="#3E3B3F" fill-opacity="0.13"/>
<path d="M235.132 191.621C225.089 195.838 213.7 202.463 214.836 215.048C214.918 215.949 216.338 215.954 216.251 215.048C215.087 203.15 225.961 196.46 235.379 192.209C235.708 192.061 235.47 191.481 235.132 191.621Z" fill="#3E3B3F" fill-opacity="0.13"/>
<path d="M248.566 187.49C237.864 189.457 229.73 197.871 228.08 208.626C227.944 209.498 229.281 209.868 229.413 208.992C230.94 198.772 238.638 190.349 248.673 187.877C248.928 187.815 248.817 187.445 248.566 187.49Z" fill="#3E3B3F" fill-opacity="0.13"/>
<path d="M107.409 86.7661C104.323 95.4104 100.378 103.084 94.0497 109.827C93.3873 110.535 94.4529 111.605 95.1194 110.897C101.398 104.207 106.306 96.0399 108.063 86.9471C108.141 86.5192 107.553 86.3546 107.409 86.7661Z" fill="#3E3B3F" fill-opacity="0.13"/>
<path d="M95.0991 110.412C94.7288 116.468 91.9927 121.755 86.3313 124.409C85.5084 124.796 86.2243 126.018 87.0472 125.631C92.7457 122.944 96.8806 116.727 95.922 110.301C95.8438 109.811 95.1238 109.967 95.0991 110.412Z" fill="#3E3B3F" fill-opacity="0.13"/>
<path d="M85.2738 120.656C84.9118 126.51 84.2946 131.304 80.1308 135.829C79.4808 136.537 80.5464 137.603 81.1882 136.887C84.9159 132.735 87.7425 126.173 85.8581 120.573C85.7511 120.252 85.2944 120.314 85.2738 120.656Z" fill="#3E3B3F" fill-opacity="0.13"/>
<path d="M68.9684 122.467C74.1155 129.362 75.7078 138.027 70.3838 145.359C69.7213 146.268 71.2478 147.161 71.8978 146.244C76.9585 139.064 76.8022 127.663 69.3222 122.113C69.1165 121.965 68.8162 122.261 68.9684 122.467Z" fill="#3E3B3F" fill-opacity="0.13"/>
<path d="M66.5614 136.714C66.4503 140.932 68.1619 145.293 70.7498 148.568C71.4616 149.469 72.8276 148.165 72.0335 147.284C69.1617 144.096 67.7628 140.837 66.9564 136.661C66.9111 136.435 66.5655 136.496 66.5614 136.714Z" fill="#3E3B3F" fill-opacity="0.13"/>
<path d="M69.8488 149.538C71.0872 151.814 70.7375 155.109 68.5199 156.665C66.4997 158.08 63.7431 157.701 61.9944 156.031C60.7807 154.871 58.9086 156.784 60.1635 157.862C62.7474 160.08 66.7137 160.409 69.3592 158.035C71.8896 155.768 72.1488 152.007 70.2068 149.324C70.0546 149.115 69.7171 149.3 69.8488 149.538Z" fill="#3E3B3F" fill-opacity="0.13"/>
<path d="M63.3235 160.36C64.7512 163.644 64.6319 167.305 63.0314 170.511C62.4307 171.708 61.6243 172.823 60.6656 173.761C60.2953 174.119 56.1892 177.32 55.7283 175.674C55.284 174.086 52.7372 174.798 53.2638 176.353C54.9219 181.241 61.003 176.736 62.7969 174.333C65.895 170.177 66.4134 164.549 63.9942 159.974C63.7514 159.521 63.1301 159.916 63.3235 160.36Z" fill="#3E3B3F" fill-opacity="0.13"/>
<path d="M72.5768 162.94C66.0391 163.82 61.7765 171.234 64.7471 177.262C65.2614 178.303 67.0512 177.57 66.6439 176.464C64.7718 171.407 67.3804 165.231 72.8278 163.841C73.4244 163.684 73.1528 162.861 72.5768 162.94Z" fill="#3E3B3F" fill-opacity="0.13"/>
<path d="M54.1238 176.825C53.7906 180.475 55.7449 183.754 55.2964 187.395C54.7698 191.649 51.8774 195.175 47.9152 196.755C46.3764 197.368 47.2775 199.586 48.808 198.87C52.1942 197.282 54.7163 194.579 55.8971 190.987C57.6252 185.733 54.5435 181.989 54.6875 176.825C54.6957 176.455 54.1526 176.467 54.1238 176.825Z" fill="#3E3B3F" fill-opacity="0.13"/>
<path d="M65.7837 176.337C57.8923 179.081 53.4405 187.359 56.3288 195.399C56.8555 196.859 59.2089 196.221 58.6699 194.753C56.263 188.198 59.3982 179.895 66.0182 177.172C66.5161 176.966 66.3227 176.147 65.7837 176.337Z" fill="#3E3B3F" fill-opacity="0.13"/>
<path d="M58.3822 196.147C52.3011 199.455 48.6064 205.223 47.7136 212.045C47.5202 213.526 49.8983 213.543 50.0588 212.045C50.713 206.001 53.9715 200.529 58.8101 196.883C59.238 196.558 58.8759 195.875 58.3822 196.147Z" fill="#3E3B3F" fill-opacity="0.13"/>
<path d="M47.2894 200.627C48.1534 208.107 46.1456 215.18 41.4799 221.121C40.5171 222.347 42.2204 224.1 43.2202 222.861C48.3509 216.484 50.1283 208.477 48.1904 200.508C48.0711 200.018 47.2318 200.104 47.2894 200.627Z" fill="#3E3B3F" fill-opacity="0.13"/>
<path d="M77.119 164.273C79.2338 165.092 79.7645 167.848 78.4767 169.539C78.0941 170.041 78.9746 170.58 79.3366 170.041C80.896 167.741 79.7604 164.849 77.1972 163.981C77.012 163.915 76.938 164.203 77.119 164.273Z" fill="#3E3B3F" fill-opacity="0.13"/>
<path d="M101.262 127.79C96.2799 137.434 90.1495 146.078 82.291 153.599C81.6944 154.171 82.6119 155.093 83.2003 154.509C90.9271 146.885 97.3826 138.051 101.83 128.123C102.003 127.745 101.46 127.407 101.262 127.79Z" fill="#3E3B3F" fill-opacity="0.13"/>
<path d="M96.2101 145.848C88.5573 160.866 78.4441 173.949 65.8582 185.153C65.1217 185.811 66.1997 186.873 66.9361 186.231C79.7155 175.118 89.7669 161.586 96.7367 146.152C96.8972 145.807 96.3911 145.494 96.2101 145.848Z" fill="#3E3B3F" fill-opacity="0.13"/>
<path d="M88.4255 165.404C81.5257 177.624 73.6343 189.214 64.7431 200.068C64.0519 200.908 65.2533 202.121 65.9486 201.274C74.9632 190.268 82.6942 178.505 89.162 165.832C89.4089 165.351 88.6971 164.923 88.4255 165.404Z" fill="#3E3B3F" fill-opacity="0.13"/>
<path d="M65.8825 104.943C61.0481 118.706 58.6535 132.962 58.2997 147.519C58.275 148.531 59.8632 148.535 59.8755 147.519C60.0195 132.987 62.3976 119.023 66.6396 105.153C66.7918 104.668 66.0471 104.47 65.8825 104.943Z" fill="#3E3B3F" fill-opacity="0.13"/>
<path d="M94.4202 61.8033C85.027 76.2325 78.3947 92.0358 74.1568 108.699C73.9141 109.654 75.3994 110.061 75.6298 109.106C79.6496 92.3691 86.2284 76.9236 95.0456 62.1694C95.2842 61.7662 94.6712 61.4165 94.4202 61.8033Z" fill="#3E3B3F" fill-opacity="0.13"/>
<path d="M83.8338 101.52C83.9078 101.52 83.9078 101.409 83.8338 101.409C83.7597 101.409 83.7597 101.52 83.8338 101.52Z" fill="#3E3B3F" fill-opacity="0.13"/>
<path d="M75.9176 115.048C73.1363 119.081 73.1692 124.911 74.3664 129.49C74.6092 130.424 76.0122 130.029 75.8065 129.091C74.7285 124.166 75.5308 120.068 76.2714 115.196C76.3043 114.987 76.0451 114.859 75.9176 115.048Z" fill="#3E3B3F" fill-opacity="0.13"/>
<path d="M75.9258 114.735C78.5796 117.92 80.1184 121.693 80.4476 125.828C80.501 126.494 81.5543 126.494 81.4926 125.828C81.0812 121.433 79.4149 117.475 76.543 114.122C76.1768 113.694 75.572 114.311 75.9258 114.735Z" fill="#3E3B3F" fill-opacity="0.13"/>
<path d="M93.1982 88.6627C88.2445 99.4548 84.2782 110.584 81.1595 122.043C80.9702 122.742 82.0606 123.043 82.2457 122.343C85.241 110.922 89.1291 99.8621 93.8277 89.0289C94.0047 88.6092 93.3957 88.239 93.1982 88.6627Z" fill="#3E3B3F" fill-opacity="0.13"/>
<path d="M121.9 66.0215C114.078 93.0778 101.102 116.822 81.6859 137.312C80.6243 138.431 82.3236 140.13 83.381 139.003C102.669 118.46 116.337 93.7484 122.431 66.1655C122.501 65.824 121.999 65.68 121.9 66.0215Z" fill="#3E3B3F" fill-opacity="0.13"/>
<path d="M78.3984 147.597C72.9098 149.349 69.9145 155.352 71.2311 160.841C71.5109 162.009 73.2924 161.516 73.0291 160.347C71.9265 155.422 74.3457 150.654 78.6494 148.201C78.9703 148.016 78.7605 147.481 78.3984 147.597Z" fill="#3E3B3F" fill-opacity="0.13"/>
<path d="M75.5349 151.041C75.2304 147.86 78.7277 145.807 81.0358 148.325C81.7065 149.058 82.8503 147.922 82.1261 147.235C79.0403 144.293 73.8357 146.729 75 151.115C75.0741 151.403 75.5678 151.357 75.5349 151.041Z" fill="#3E3B3F" fill-opacity="0.13"/>
<path d="M60.6571 144.783C60.0358 148.877 62.2247 152.806 66.0387 154.415C66.5777 154.641 66.8287 153.748 66.2815 153.53C62.7431 152.111 60.6529 148.609 61.052 144.836C61.0767 144.614 60.6941 144.561 60.6571 144.783Z" fill="#3E3B3F" fill-opacity="0.13"/>
<path d="M67.615 148.358C67.3969 150.197 66.644 151.707 65.2739 152.962C64.9159 153.291 65.4714 153.851 65.8088 153.497C67.2036 152.028 67.9853 150.382 68.1622 148.358C68.1951 148.004 67.6561 148.016 67.615 148.358Z" fill="#3E3B3F" fill-opacity="0.13"/>
<path d="M119.374 163.565C128.211 161.668 128.31 149.605 123.463 144.001C122.772 143.203 121.604 144.371 122.303 145.161C124.895 148.087 126.13 151.917 124.994 155.764C124.015 159.076 121.55 160.899 119.11 163.108C118.892 163.302 119.123 163.618 119.374 163.565Z" fill="#3E3B3F" fill-opacity="0.13"/>
<path d="M145.517 123.791C147.031 127.148 147.171 130.88 145.587 134.258C144.929 135.653 144.003 136.899 142.81 137.879C140.818 139.516 133.1 141.388 135.005 136.089C135.416 134.941 133.581 134.439 133.178 135.587C132.4 137.796 133.449 140.183 135.63 141.129C138.403 142.33 141.662 140.783 143.731 138.932C147.977 135.138 149.323 128.3 145.961 123.536C145.768 123.256 145.381 123.486 145.517 123.791Z" fill="#3E3B3F" fill-opacity="0.13"/>
<path d="M131.108 149.819C130.437 146.827 131.729 143.643 134.461 142.191C135.354 141.717 134.548 140.323 133.667 140.833C130.384 142.721 128.94 146.576 130.524 150.07C130.676 150.411 131.182 150.156 131.108 149.819Z" fill="#3E3B3F" fill-opacity="0.13"/>
<path d="M137.012 150.028C139.761 149.411 142.756 148.354 144.036 145.618C144.513 144.597 144.723 143.4 144.435 142.293C144.073 140.907 142.908 139.94 142.361 138.644C141.987 137.759 140.662 138.52 141.057 139.405C142.065 141.66 144.126 143.063 142.493 145.737C141.263 147.757 138.864 148.625 136.823 149.572C136.552 149.699 136.749 150.09 137.012 150.028Z" fill="#3E3B3F" fill-opacity="0.13"/>
<path d="M146.426 131.23C150.339 131.37 153.959 129.729 156.576 126.84C157.127 126.231 156.206 125.322 155.679 125.943C153.276 128.758 150.1 130.338 146.43 130.7C146.093 130.733 146.08 131.218 146.426 131.23Z" fill="#3E3B3F" fill-opacity="0.13"/>
<path d="M165.431 112.712C160.386 112.601 156.527 118.097 158.029 122.812C158.522 124.364 160.938 123.718 160.477 122.138C159.362 118.307 161.732 114.489 165.55 113.596C166.052 113.477 165.928 112.724 165.431 112.712Z" fill="#3E3B3F" fill-opacity="0.13"/>
<path d="M170.783 110.073C170.059 111.193 169.339 112.312 168.615 113.435C168.323 113.887 169.063 114.324 169.335 113.859C170.006 112.707 170.676 111.559 171.347 110.411C171.569 110.036 171.014 109.72 170.783 110.073Z" fill="#3E3B3F" fill-opacity="0.13"/>
<path d="M167.537 94.6492C167.298 96.6036 168.319 98.2534 170.022 99.1627C170.553 99.4466 171.03 98.6196 170.491 98.3562C168.957 97.6115 168.241 96.3238 168.179 94.6492C168.167 94.2254 167.586 94.2501 167.537 94.6492Z" fill="#3E3B3F" fill-opacity="0.13"/>
<path d="M183.484 86.1078C182.875 90.0865 181.563 93.4603 178.563 96.2704C178.119 96.6901 178.794 97.3648 179.234 96.941C182.114 94.1844 184.192 90.2593 184.101 86.1901C184.093 85.8528 183.538 85.7458 183.484 86.1078Z" fill="#3E3B3F" fill-opacity="0.13"/>
<path d="M184.147 82.0262C185.291 84.6717 188.302 85.8772 190.973 84.7992C191.569 84.5565 191.228 83.713 190.627 83.9764C188.344 84.9721 185.76 83.9064 184.661 81.7258C184.488 81.3761 183.999 81.6847 184.147 82.0262Z" fill="#3E3B3F" fill-opacity="0.13"/>
<path d="M198.395 70.6908C197.679 74.8628 196.268 78.4834 193.215 81.5281C192.738 82.0054 193.486 82.7542 193.951 82.2687C196.889 79.2076 198.963 75.0809 198.868 70.7566C198.864 70.4933 198.444 70.411 198.395 70.6908Z" fill="#3E3B3F" fill-opacity="0.13"/>
<path d="M196.396 65.7078C196.087 65.8271 195.778 65.9465 195.466 66.0658C195.05 66.1933 195.425 66.7941 195.717 66.4937C195.939 66.2345 196.19 66.0041 196.474 65.8107C196.535 65.7572 196.457 65.679 196.396 65.7078Z" fill="#3E3B3F" fill-opacity="0.13"/>
<path d="M195.754 65.8238C197.465 65.3794 199.132 64.6924 200.798 64.0999C201.452 63.8654 201.148 62.808 200.51 63.0631C198.823 63.7337 197.087 64.3303 195.466 65.149C195.087 65.3383 195.354 65.9267 195.754 65.8238Z" fill="#3E3B3F" fill-opacity="0.13"/>
<path d="M199.625 65.9671C202.941 64.9467 205.883 63.1323 208.405 60.7665C209.002 60.207 208.093 59.2977 207.508 59.8696C205.11 62.2189 202.411 63.9675 199.37 65.3664C199.029 65.5228 199.271 66.0782 199.625 65.9671Z" fill="#3E3B3F" fill-opacity="0.13"/>
<path d="M206.5 44.7787C209.952 49.2017 209.899 55.3074 206.517 59.7386C206.044 60.3599 207.105 60.9812 207.57 60.3558C211.191 55.5049 210.899 48.8972 206.945 44.3384C206.673 44.0257 206.258 44.4701 206.5 44.7787Z" fill="#3E3B3F" fill-opacity="0.13"/>
<path d="M201.201 69.1026C204.974 68.7858 208.603 68.9463 212.248 70.0736C213.001 70.3081 213.334 69.1026 212.573 68.8969C208.817 67.8724 204.925 67.6749 201.164 68.8022C201.003 68.8475 201.02 69.1191 201.201 69.1026Z" fill="#3E3B3F" fill-opacity="0.13"/>
<path d="M210.438 62.1651C218.918 56.0388 228.595 53.8129 238.852 56.121C239.769 56.3268 240.16 54.9238 239.239 54.7099C228.899 52.3235 218.128 54.7263 210.018 61.6179C209.722 61.873 210.117 62.3955 210.438 62.1651Z" fill="#3E3B3F" fill-opacity="0.13"/>
<path d="M212.631 64.8645C228.467 63.4985 242.929 57.0719 254.742 46.4896C255.49 45.819 254.38 44.7081 253.639 45.3869C241.999 56.0597 228.261 62.2724 212.631 64.2556C212.252 64.3049 212.236 64.9015 212.631 64.8645Z" fill="#3E3B3F" fill-opacity="0.13"/>
<path d="M204.345 62.4786C228.924 44.5028 251.228 23.6798 271.845 1.30982C272.504 0.593916 271.421 -0.484096 270.776 0.240038C250.52 23.0873 228.019 43.2355 203.933 61.9477C203.637 62.1823 204.036 62.7048 204.345 62.4786Z" fill="#3E3B3F" fill-opacity="0.13"/>
<path d="M212.277 53.6905C231.035 40.3187 247.669 23.9063 262.719 6.53123C263.444 5.69601 262.222 4.47401 261.502 5.31335C246.459 22.9723 229.673 38.3725 212.005 53.3325C211.812 53.4971 212.067 53.8386 212.277 53.6905Z" fill="#3E3B3F" fill-opacity="0.13"/>
<path d="M202.386 47.8022C215.762 36.3683 229.142 25.2759 243.793 15.4795C244.633 14.9199 243.847 13.5539 242.999 14.1217C228.406 23.844 214.153 34.7307 201.954 47.3743C201.678 47.6582 202.09 48.0573 202.386 47.8022Z" fill="#3E3B3F" fill-opacity="0.13"/>
<path d="M226.57 54.7965C241.057 42.6673 254.935 29.7728 268.521 16.652C269.257 15.9402 268.126 14.8046 267.397 15.5287C253.939 28.81 240.033 41.5605 226.048 54.274C225.69 54.599 226.212 55.101 226.57 54.7965Z" fill="#3E3B3F" fill-opacity="0.13"/>
<path d="M199.485 70.2551C196.35 71.6499 197.103 76.7764 200.386 77.4471C201.283 77.6281 201.67 76.2498 200.765 76.0687C198.411 75.5874 197.794 72.1189 199.806 70.8105C200.164 70.5801 199.86 70.0905 199.485 70.2551Z" fill="#3E3B3F" fill-opacity="0.13"/>
<path d="M184.213 91.9743C189.607 86.7202 196.72 84.9758 203.904 87.4032C205.13 87.8147 205.665 85.8644 204.439 85.4653C197.054 83.0625 188.648 85.3831 183.748 91.5094C183.489 91.8345 183.9 92.2788 184.213 91.9743Z" fill="#3E3B3F" fill-opacity="0.13"/>
<path d="M204.62 88.7898C210.771 86.9712 216.622 83.9883 222.086 80.6639C222.732 80.273 222.135 79.2526 221.493 79.6517C216.033 83.0502 210.343 85.5929 204.418 88.0615C203.986 88.2384 204.139 88.9297 204.62 88.7898Z" fill="#3E3B3F" fill-opacity="0.13"/>
<path d="M212.018 70.4518C213.129 71.4845 214.293 71.9701 215.807 72.0441C216.445 72.0729 216.453 71.0525 215.807 71.0484C214.495 71.0402 213.495 70.7028 212.438 69.9129C212.125 69.6742 211.734 70.1885 212.018 70.4518Z" fill="#3E3B3F" fill-opacity="0.13"/>
<path d="M198.646 72.4555C199.07 74.632 200.637 76.1132 202.806 76.5205C203.505 76.6522 203.781 75.566 203.098 75.4673C201.226 75.1998 199.917 74.0766 199.341 72.2621C199.201 71.8178 198.555 72.0029 198.646 72.4555Z" fill="#3E3B3F" fill-opacity="0.13"/>
<path d="M200.46 70.0081C198.415 72.6331 200.32 76.5952 203.427 77.2083C204.11 77.3441 204.389 76.2826 203.715 76.1715C200.975 75.7189 199.843 72.7607 200.954 70.3867C201.09 70.0945 200.695 69.7078 200.46 70.0081Z" fill="#3E3B3F" fill-opacity="0.13"/>
<path d="M184.826 83.3379C184.291 85.4939 183.925 87.6869 183.427 89.8511C183.279 90.5011 184.254 90.6575 184.345 89.9745C184.624 87.7774 185.04 85.6009 185.287 83.3997C185.311 83.1363 184.888 83.087 184.826 83.3379Z" fill="#3E3B3F" fill-opacity="0.13"/>
<path d="M186.97 84.4247C186.357 85.7866 185.838 87.1855 185.209 88.5432C184.912 89.1851 185.9 89.58 186.089 88.9135C186.496 87.4693 187.015 86.0622 187.439 84.6222C187.521 84.3465 187.093 84.1532 186.97 84.4247Z" fill="#3E3B3F" fill-opacity="0.13"/>
<path d="M189.043 84.7621C188.731 85.4821 188.731 85.4615 188.533 86.235C188.348 86.955 189.479 87.1443 189.558 86.3749C189.648 85.8894 189.66 85.4039 189.595 84.9143C189.582 84.651 189.171 84.47 189.043 84.7621Z" fill="#3E3B3F" fill-opacity="0.13"/>
<path d="M194.075 81.1001C193.544 82.2398 193.022 83.3836 192.466 84.5069C192.158 85.1281 193.1 85.5355 193.347 84.8772C193.787 83.7005 194.268 82.5402 194.737 81.3758C194.89 81.0014 194.252 80.7298 194.075 81.1001Z" fill="#3E3B3F" fill-opacity="0.13"/>
<path d="M197.004 77.9689C196.544 79.7669 195.857 81.1863 194.548 82.5194C194.067 83.009 194.853 83.7825 195.297 83.2682C196.614 81.7583 197.453 80.059 197.667 78.0553C197.708 77.6768 197.099 77.6069 197.004 77.9689Z" fill="#3E3B3F" fill-opacity="0.13"/>
<path d="M199.535 76.0478C198.078 78.2284 197.087 80.5736 196.589 83.1534C196.457 83.8322 197.506 84.1202 197.626 83.4413C198.074 80.9398 198.926 78.6399 200.271 76.4798C200.559 76.0067 199.835 75.5952 199.535 76.0478Z" fill="#3E3B3F" fill-opacity="0.13"/>
<path d="M201.094 77.142C200.181 79.228 199.271 81.314 198.341 83.3918C198.074 83.9925 198.93 84.3628 199.177 83.7456C200.02 81.6308 200.892 79.5284 201.752 77.4218C201.909 77.0474 201.259 76.7676 201.094 77.142Z" fill="#3E3B3F" fill-opacity="0.13"/>
<path d="M202.119 78.891C201.485 80.5244 200.909 82.1784 200.317 83.8283C200.078 84.4948 201.172 84.8075 201.386 84.1245C201.901 82.4581 202.44 80.7918 202.913 79.109C203.057 78.5906 202.308 78.4137 202.119 78.891Z" fill="#3E3B3F" fill-opacity="0.13"/>
<path d="M204.558 81.4578C203.731 83.0542 202.904 84.6506 202.077 86.247C201.777 86.8271 202.674 87.3414 202.954 86.7572C203.727 85.1279 204.496 83.4986 205.27 81.8693C205.492 81.4003 204.805 80.9847 204.558 81.4578Z" fill="#3E3B3F" fill-opacity="0.13"/>
<path d="M207.385 81.9396C206.603 83.5566 205.821 85.1776 205.039 86.7946C204.772 87.3459 205.615 87.8232 205.858 87.2718C206.591 85.622 207.319 83.9762 208.051 82.3263C208.249 81.882 207.603 81.487 207.385 81.9396Z" fill="#3E3B3F" fill-opacity="0.13"/>
<path d="M208.887 83.009C208.446 83.9265 208.01 84.8441 207.57 85.7616C207.27 86.387 208.179 86.7778 208.451 86.1318C208.846 85.1938 209.241 84.2598 209.636 83.3217C209.817 82.9021 209.088 82.5935 208.887 83.009Z" fill="#3E3B3F" fill-opacity="0.13"/>
<path d="M215.597 79.7258C214.803 81.0712 214.017 82.4248 213.203 83.7579C212.828 84.371 213.836 84.9511 214.161 84.3175C214.873 82.9227 215.618 81.5443 216.35 80.1619C216.609 79.6682 215.885 79.2403 215.597 79.7258Z" fill="#3E3B3F" fill-opacity="0.13"/>
<path d="M219.44 78.2072C219.28 78.6722 219.148 79.1494 219.049 79.6308C218.852 80.4454 220.102 80.6471 220.201 79.7872C220.271 79.3017 220.312 78.8161 220.325 78.3265C220.353 77.804 219.584 77.7341 219.44 78.2072Z" fill="#3E3B3F" fill-opacity="0.13"/>
<path d="M223.522 76.6778C223.3 77.6405 223.065 78.5951 222.814 79.5496C222.596 80.3807 223.913 80.6029 223.999 79.7101C224.094 78.735 224.205 77.7599 224.328 76.7889C224.386 76.3281 223.625 76.2334 223.522 76.6778Z" fill="#3E3B3F" fill-opacity="0.13"/>
<path d="M228.488 75.0227C228.196 75.2078 227.899 75.393 227.603 75.574C226.945 75.9814 227.673 76.9565 228.257 76.4175C228.512 76.183 228.768 75.9484 229.023 75.7139C229.393 75.3806 228.912 74.7553 228.488 75.0227Z" fill="#3E3B3F" fill-opacity="0.13"/>
<path d="M233.779 73.5624C234.701 73.0564 235.552 72.4515 236.424 71.8673C236.98 71.4929 236.445 70.5795 235.898 70.9662C235.005 71.5957 234.108 72.2005 233.273 72.9082C232.903 73.225 233.376 73.7846 233.779 73.5624Z" fill="#3E3B3F" fill-opacity="0.13"/>
<path d="M240.773 67.9964C241.526 67.8688 241.596 66.9636 240.975 66.6057C240.468 66.3136 240.004 67.1323 240.518 67.3833C240.53 67.3175 240.538 67.2558 240.547 67.1941C240.02 67.3216 240.25 68.0828 240.773 67.9964Z" fill="#3E3B3F" fill-opacity="0.13"/>
<path d="M247.764 61.9561C248.405 61.9561 248.405 60.9604 247.764 60.9604C247.126 60.9604 247.122 61.9561 247.764 61.9561Z" fill="#3E3B3F" fill-opacity="0.13"/>
<path d="M156.626 110.757C156.539 111.852 156.868 112.625 157.732 113.32C157.934 113.481 158.218 113.193 158.016 113.036C157.21 112.522 156.868 111.761 156.996 110.761C157.012 110.518 156.642 110.523 156.626 110.757Z" fill="#3E3B3F" fill-opacity="0.13"/>
<path d="M157.876 106.502C157.963 109.535 159.539 112.086 162.176 113.583C162.682 113.871 163.143 113.073 162.628 112.806C160.193 111.522 158.683 109.243 158.424 106.502C158.391 106.161 157.864 106.144 157.876 106.502Z" fill="#3E3B3F" fill-opacity="0.13"/>
<path d="M170.919 104.292C171.792 105.161 172.75 103.465 171.656 102.894C168.623 101.318 169.652 108.744 169.718 109.551C169.796 110.509 171.285 110.53 171.228 109.551C171.174 108.625 171.084 107.703 171.002 106.782C170.989 106.654 170.862 104.033 171.039 104.14C170.944 104.083 170.841 104.214 170.919 104.292Z" fill="#3E3B3F" fill-opacity="0.13"/>
<path d="M172.655 102.202C172.297 104.222 172.273 106.329 172.215 108.378C172.19 109.172 173.445 109.176 173.454 108.378C173.474 106.329 173.528 104.235 173.248 102.202C173.203 101.906 172.709 101.918 172.655 102.202Z" fill="#3E3B3F" fill-opacity="0.13"/>
<path d="M171.157 102.046C172.577 101.824 173.947 101.318 175.313 100.878C175.905 100.688 175.634 99.7338 175.058 99.9478C173.688 100.458 172.264 100.915 170.985 101.635C170.75 101.77 170.923 102.083 171.157 102.046Z" fill="#3E3B3F" fill-opacity="0.13"/>
<path d="M170.273 103.713C172.688 102.903 175.099 102.092 177.51 101.286C178.029 101.113 177.802 100.282 177.284 100.463C174.881 101.302 172.474 102.146 170.071 102.985C169.619 103.145 169.808 103.869 170.273 103.713Z" fill="#3E3B3F" fill-opacity="0.13"/>
<path d="M120.16 163.537C127.043 165.458 134.424 162.599 138.773 157.069C139.415 156.254 138.288 155.086 137.613 155.909C133.276 161.228 127.002 163.314 120.291 162.541C119.715 162.475 119.625 163.384 120.16 163.537Z" fill="#3E3B3F" fill-opacity="0.13"/>
<path d="M124.879 157.821C124.883 159.08 124.891 160.343 124.895 161.602C124.895 161.976 125.492 161.972 125.476 161.602C125.41 160.343 125.348 159.08 125.282 157.821C125.266 157.562 124.879 157.562 124.879 157.821Z" fill="#3E3B3F" fill-opacity="0.13"/>
<path d="M127.105 157.426C126.813 158.878 126.521 160.331 126.228 161.783C126.146 162.19 126.784 162.355 126.85 161.952C127.08 160.483 127.311 159.014 127.541 157.545C127.582 157.265 127.162 157.138 127.105 157.426Z" fill="#3E3B3F" fill-opacity="0.13"/>
<path d="M129.771 154.884C129.339 157.065 128.911 159.245 128.479 161.426C128.381 161.924 129.158 162.129 129.24 161.636C129.594 159.435 129.948 157.233 130.302 155.032C130.355 154.687 129.841 154.534 129.771 154.884Z" fill="#3E3B3F" fill-opacity="0.13"/>
<path d="M132.215 153.045C131.791 155.225 131.368 157.41 130.944 159.591C130.816 160.241 131.828 160.512 131.935 159.862C132.297 157.661 132.659 155.464 133.017 153.263C133.108 152.744 132.318 152.514 132.215 153.045Z" fill="#3E3B3F" fill-opacity="0.13"/>
<path d="M133.659 153.304C133.186 155.221 132.807 157.155 132.404 159.089C132.231 159.92 133.536 160.249 133.659 159.434C133.96 157.431 134.285 155.431 134.511 153.419C134.568 152.93 133.774 152.835 133.659 153.304Z" fill="#3E3B3F" fill-opacity="0.13"/>
<path d="M136.704 153.094C136.334 154.53 136.091 155.991 135.766 157.435C135.572 158.278 136.831 158.476 136.951 157.595C137.144 156.131 137.424 154.682 137.576 153.213C137.625 152.712 136.827 152.621 136.704 153.094Z" fill="#3E3B3F" fill-opacity="0.13"/>
<path d="M139.217 152.04C138.921 153.234 138.621 154.431 138.325 155.624C138.111 156.492 139.452 156.714 139.555 155.789C139.691 154.571 139.822 153.353 139.958 152.139C140.007 151.715 139.32 151.633 139.217 152.04Z" fill="#3E3B3F" fill-opacity="0.13"/>
<path d="M141.658 150.967C141.328 152.407 141.028 153.859 140.649 155.287C140.419 156.147 141.793 156.381 141.88 155.451C142.02 153.987 142.238 152.53 142.431 151.069C142.489 150.633 141.752 150.539 141.658 150.967Z" fill="#3E3B3F" fill-opacity="0.13"/>
<path d="M143.916 150.613C143.698 151.575 143.488 152.538 143.245 153.493C143.032 154.336 144.352 154.558 144.447 153.657C144.55 152.682 144.69 151.707 144.817 150.736C144.883 150.222 144.027 150.115 143.916 150.613Z" fill="#3E3B3F" fill-opacity="0.13"/>
<path d="M145.27 150.395C146.159 150.025 147.064 149.893 147.924 149.469C148.557 149.156 148.105 148.033 147.434 148.309C146.541 148.679 145.842 149.263 144.974 149.691C144.587 149.876 144.863 150.564 145.27 150.395Z" fill="#3E3B3F" fill-opacity="0.13"/>
<path d="M150.006 146.432C149.932 146.667 149.858 146.901 149.784 147.136C149.574 147.794 150.709 148.008 150.746 147.267C150.759 147.024 150.767 146.782 150.779 146.535C150.8 146.078 150.137 146.021 150.006 146.432Z" fill="#3E3B3F" fill-opacity="0.13"/>
<path d="M155.42 144.047C155.906 144.047 155.906 143.289 155.42 143.289C154.935 143.294 154.935 144.047 155.42 144.047Z" fill="#3E3B3F" fill-opacity="0.13"/>
<path d="M149.006 131.185C148.632 132.872 148.298 134.567 147.965 136.262C147.846 136.875 148.796 137.126 148.895 136.517C149.175 134.802 149.45 133.09 149.685 131.37C149.747 130.934 149.109 130.728 149.006 131.185Z" fill="#3E3B3F" fill-opacity="0.13"/>
<path d="M152.075 130.979C151.758 132.678 151.437 134.381 151.121 136.081C151.03 136.558 151.766 136.759 151.849 136.282C152.141 134.575 152.433 132.867 152.725 131.16C152.795 130.736 152.153 130.551 152.075 130.979Z" fill="#3E3B3F" fill-opacity="0.13"/>
<path d="M154.536 129.918C153.824 132.041 153.046 134.151 152.433 136.303C152.248 136.953 153.227 137.217 153.441 136.583C154.149 134.464 154.7 132.283 155.313 130.132C155.453 129.63 154.7 129.432 154.536 129.918Z" fill="#3E3B3F" fill-opacity="0.13"/>
<path d="M157.231 127.379C156.338 130.478 155.445 133.576 154.548 136.674C154.35 137.361 155.441 137.661 155.618 136.97C156.408 133.843 157.202 130.716 157.992 127.589C158.111 127.096 157.37 126.894 157.231 127.379Z" fill="#3E3B3F" fill-opacity="0.13"/>
<path d="M159.222 124.721C158.44 128.593 157.65 132.464 156.852 136.336C156.7 137.072 157.852 137.369 157.967 136.644C158.596 132.732 159.242 128.819 159.888 124.906C159.958 124.474 159.312 124.281 159.222 124.721Z" fill="#3E3B3F" fill-opacity="0.13"/>
<path d="M161.658 127.412C160.868 130.024 159.999 132.624 159.275 135.254C159.074 135.982 160.197 136.29 160.407 135.566C161.168 132.949 161.797 130.279 162.493 127.642C162.641 127.099 161.822 126.877 161.658 127.412Z" fill="#3E3B3F" fill-opacity="0.13"/>
<path d="M164.875 126.482C163.97 129.576 163.06 132.671 162.151 135.765C161.925 136.53 163.155 136.867 163.344 136.094C164.11 132.959 164.879 129.827 165.648 126.696C165.776 126.194 165.023 125.985 164.875 126.482Z" fill="#3E3B3F" fill-opacity="0.13"/>
<path d="M167.2 126.91C166.398 129.519 165.678 132.168 164.756 134.736C164.497 135.456 165.747 135.805 165.904 135.052C166.463 132.382 167.233 129.749 167.916 127.108C168.031 126.647 167.34 126.457 167.2 126.91Z" fill="#3E3B3F" fill-opacity="0.13"/>
<path d="M169.907 126.605C169.166 128.461 168.623 130.387 167.924 132.259C167.611 133.094 169.043 133.513 169.273 132.629C169.771 130.699 170.434 128.811 170.882 126.873C171.034 126.223 170.146 126.009 169.907 126.605Z" fill="#3E3B3F" fill-opacity="0.13"/>
<path d="M172.585 125.602C172.24 127.042 171.96 128.495 171.598 129.93C171.392 130.753 172.672 130.967 172.766 130.087C172.923 128.622 173.165 127.166 173.342 125.705C173.396 125.269 172.684 125.187 172.585 125.602Z" fill="#3E3B3F" fill-opacity="0.13"/>
<path d="M176.844 123.252C176.255 124.622 175.684 126.005 175.058 127.358C174.659 128.222 175.988 128.757 176.247 127.86C176.667 126.42 177.144 125.001 177.605 123.573C177.749 123.133 177.033 122.812 176.844 123.252Z" fill="#3E3B3F" fill-opacity="0.13"/>
<path d="M180.987 122.388C179.724 122.413 179.333 124.075 180.456 124.668C181.201 125.058 181.847 123.886 181.107 123.557C181.111 123.491 181.115 123.429 181.123 123.363C181.67 123.244 181.543 122.376 180.987 122.388Z" fill="#3E3B3F" fill-opacity="0.13"/>
<path d="M184.953 119.401C184.85 119.611 184.752 119.821 184.649 120.031C184.126 121.117 185.97 121.347 185.879 120.364C185.854 120.121 185.834 119.878 185.809 119.636C185.768 119.224 185.171 118.948 184.953 119.401Z" fill="#3E3B3F" fill-opacity="0.13"/>
<path d="M189.36 115.785C189.314 116.028 189.269 116.271 189.22 116.513C189.113 117.081 189.993 117.32 190.088 116.752C190.129 116.509 190.17 116.262 190.211 116.02C190.302 115.468 189.467 115.221 189.36 115.785Z" fill="#3E3B3F" fill-opacity="0.13"/>
<path d="M196.128 112.015C196.807 111.147 197.486 110.279 198.169 109.411C198.596 108.868 197.819 108.255 197.411 108.827C196.77 109.724 196.128 110.621 195.486 111.518C195.219 111.892 195.844 112.382 196.128 112.015Z" fill="#3E3B3F" fill-opacity="0.13"/>
<path d="M55.111 214.596C39.9289 237.077 27.2689 261.072 16.1683 285.804C15.7651 286.705 17.0981 287.487 17.5013 286.582C28.5444 261.751 41.55 238.118 55.5677 214.864C55.7447 214.567 55.3003 214.312 55.111 214.596Z" fill="#3E3B3F" fill-opacity="0.13"/>
<path d="M-8.90071 356.156C-0.585521 331.955 8.31804 307.964 18.6575 284.549C19.1266 283.491 17.5631 282.566 17.0899 283.631C6.65169 307.227 -2.36294 331.177 -9.15992 356.082C-9.21341 356.255 -8.95832 356.32 -8.90071 356.156Z" fill="#3E3B3F" fill-opacity="0.13"/>
<path d="M-57.348 351.314C-36.8871 332.017 -15.7267 313.523 6.61855 296.432C7.26863 295.934 6.62678 294.819 5.96848 295.321C-16.4797 312.49 -37.8046 330.882 -57.5454 351.12C-57.6648 351.248 -57.4755 351.433 -57.348 351.314Z" fill="#3E3B3F" fill-opacity="0.13"/>
<path d="M39.2586 269.721C44.4222 272.177 50.8818 270.153 54.2926 265.668C57.4648 261.5 55.5022 255.164 49.594 255.819C48.5859 255.93 48.5777 257.522 49.594 257.411C52.7374 257.065 55.0373 259.661 54.0786 262.611C53.338 264.887 51.7663 266.512 49.7338 267.73C46.5781 269.622 42.9739 269.923 39.3985 269.384C39.2134 269.355 39.0529 269.622 39.2586 269.721Z" fill="#3E3B3F" fill-opacity="0.13"/>
<path d="M52.0708 243.248C47.9441 246.91 46.1667 251.769 47.006 257.241C47.1541 258.204 48.6353 257.801 48.4789 256.834C47.7137 252.131 49.1579 247.091 52.3753 243.553C52.5646 243.347 52.2765 243.063 52.0708 243.248Z" fill="#3E3B3F" fill-opacity="0.13"/>
<path d="M59.3656 250.901C71.6141 259.357 76.9999 232.736 77.9256 226.297C78.0737 225.273 76.502 224.837 76.3621 225.865C75.28 233.757 71.7622 254.995 59.6412 250.256C59.2421 250.103 59.057 250.688 59.3656 250.901Z" fill="#3E3B3F" fill-opacity="0.13"/>
<path d="M63.7554 242.586C69.0218 232.543 76.2426 223.915 85.1585 216.925C86.0143 216.254 84.8087 215.069 83.9653 215.731C74.8972 222.845 67.9562 231.782 63.2699 242.302C63.1259 242.627 63.5867 242.915 63.7554 242.586Z" fill="#3E3B3F" fill-opacity="0.13"/>
<path d="M80.11 237.485C81.1057 243.311 87.7752 240.628 90.4907 237.904C94.4693 233.918 97.8184 227.812 94.7326 222.393C94.2142 221.488 92.8071 222.307 93.3296 223.212C95.358 226.726 94.1031 230.437 92.0295 233.605C90.3467 236.172 83.0971 244.348 80.6861 237.328C80.5585 236.962 80.0483 237.11 80.11 237.485Z" fill="#3E3B3F" fill-opacity="0.13"/>
<path d="M81.3653 242.743C79.6331 226.001 100.9 211.403 113.651 204.121C114.659 203.545 113.762 202.018 112.742 202.566C99.8142 209.527 76.9958 225.68 80.637 242.841C80.7234 243.24 81.4105 243.162 81.3653 242.743Z" fill="#3E3B3F" fill-opacity="0.13"/>
<path d="M99.2422 221.949C100.184 228.137 107.837 227.845 111.931 224.932C118.707 220.114 118.403 211.206 115.971 204.137C115.523 202.841 113.441 203.413 113.91 204.705C115.638 209.466 116.625 214.95 114.083 219.645C111.762 223.936 102.159 229.264 99.7359 221.813C99.633 221.488 99.1928 221.628 99.2422 221.949Z" fill="#3E3B3F" fill-opacity="0.13"/>
<path d="M116.305 210.58C115.404 217.982 124.509 217.46 128.52 214.193C135.202 208.745 136.564 199.323 136.325 191.226C136.284 189.799 134.038 189.803 134.108 191.226C134.334 196.048 134.12 200.924 132.355 205.47C131.433 207.84 130.178 210.058 128.36 211.864C125.254 214.95 117.815 215.863 117.033 210.478C116.963 210.033 116.35 210.21 116.305 210.58Z" fill="#3E3B3F" fill-opacity="0.13"/>
<path d="M136.461 202.363C139.625 207.539 145.237 201.495 147.533 198.702C152.511 192.645 155.461 185.297 156.403 177.549C156.58 176.105 154.313 176.118 154.136 177.549C153.515 182.647 152.207 187.527 149.804 192.09C148.24 195.06 141.485 207.144 136.905 202.022C136.687 201.783 136.292 202.092 136.461 202.363Z" fill="#3E3B3F" fill-opacity="0.13"/>
<path d="M147.919 184.396C163.307 169.724 180.378 157.615 199.621 148.535C200.555 148.095 199.74 146.7 198.81 147.148C179.588 156.356 162.246 168.56 147.557 184.034C147.327 184.272 147.681 184.626 147.919 184.396Z" fill="#3E3B3F" fill-opacity="0.13"/>
<path d="M155.198 191.991C152.606 193.555 144.213 200.133 147.644 203.738C149.467 205.651 154.013 206.297 156.416 206.626C160.053 207.124 163.637 206.819 167.188 205.959C168.191 205.717 167.768 204.157 166.76 204.408C161.987 205.61 157.083 205.663 152.339 204.256C150.537 203.721 150.561 203.84 149.775 201.783C148.878 199.426 149.619 198.817 151.154 196.978C152.507 195.357 154.083 194.003 155.737 192.699C156.149 192.378 155.63 191.732 155.198 191.991Z" fill="#3E3B3F" fill-opacity="0.13"/>
<path d="M155.297 195.098C161.835 195.287 168.397 195.118 174.939 195.09C175.61 195.085 175.614 194.032 174.939 194.045C168.397 194.156 161.83 194.127 155.297 194.456C154.885 194.477 154.881 195.085 155.297 195.098Z" fill="#3E3B3F" fill-opacity="0.13"/>
<path d="M175.84 180.298C169.195 179.669 163.316 184.491 161.357 190.642C161.049 191.609 162.587 192.032 162.875 191.061C164.636 185.141 169.878 181.524 175.84 180.734C176.111 180.697 176.124 180.327 175.84 180.298Z" fill="#3E3B3F" fill-opacity="0.13"/>
<path d="M166.484 183.507C178.555 181.466 190.364 181.804 202.316 184.495C203.213 184.696 203.596 183.31 202.695 183.116C190.586 180.512 178.424 180.372 166.253 182.672C165.702 182.775 165.936 183.598 166.484 183.507Z" fill="#3E3B3F" fill-opacity="0.13"/>
<path d="M195.577 166.593C189.952 167.029 185.427 171.053 184.488 176.682C184.349 177.529 185.661 177.875 185.776 177.035C186.455 172.012 190.574 167.729 195.63 166.968C195.844 166.943 195.795 166.577 195.577 166.593Z" fill="#3E3B3F" fill-opacity="0.13"/>
<path d="M191.98 167.235C197.728 166.89 203.25 167.902 208.483 170.309C209.17 170.625 209.763 169.597 209.076 169.296C203.624 166.898 197.922 165.898 191.98 166.355C191.421 166.396 191.413 167.272 191.98 167.235Z" fill="#3E3B3F" fill-opacity="0.13"/>
<path d="M153.997 191.226C181.851 173.859 208.718 154.751 235.89 136.335C236.861 135.677 235.939 134.085 234.964 134.751C207.858 153.324 180.222 171.361 153.836 190.946C153.676 191.069 153.82 191.341 153.997 191.226Z" fill="#3E3B3F" fill-opacity="0.13"/>
<path d="M163.863 179.727C184.406 166.409 204.776 152.806 225.114 139.184C225.842 138.698 225.159 137.513 224.422 138.003C204.048 151.601 183.686 165.24 163.521 179.143C163.167 179.385 163.496 179.965 163.863 179.727Z" fill="#3E3B3F" fill-opacity="0.13"/>
<path d="M159.148 205.137C194.943 187.692 227.06 162.467 255.347 134.65C256.128 133.88 254.923 132.67 254.141 133.444C225.48 161.821 193.388 184.109 158.905 204.722C158.634 204.882 158.872 205.273 159.148 205.137Z" fill="#3E3B3F" fill-opacity="0.13"/>
<path d="M154.832 193.666C156.338 193.752 157.593 194.163 158.798 195.097C159.308 195.492 159.876 194.772 159.345 194.39C157.955 193.398 156.535 192.954 154.832 193.053C154.437 193.077 154.437 193.641 154.832 193.666Z" fill="#3E3B3F" fill-opacity="0.13"/>
<path d="M153.861 194.551C151.112 194.814 150.174 198.196 151.392 200.418C153.964 205.121 161.098 202.99 164.83 205.973C165.566 206.561 166.62 205.52 165.875 204.928C163.69 203.183 161.213 202.879 158.514 202.529C156.589 202.278 154.313 201.949 152.824 200.57C151.137 199.007 151.158 195.489 153.927 195.045C154.202 194.995 154.141 194.522 153.861 194.551Z" fill="#3E3B3F" fill-opacity="0.13"/>
<path d="M144.414 204.746C139.711 204.096 127.203 208.141 130.766 215.061C132.383 218.2 136.782 219.146 139.896 219.669C145.344 220.578 150.742 220.035 156 218.464C157.029 218.155 156.588 216.538 155.556 216.851C150.071 218.513 144.22 219.122 138.571 217.863C137.193 217.62 135.864 217.196 134.593 216.596C132.186 212.247 132.741 209.256 136.259 207.63C138.773 206.104 141.468 205.561 144.344 205.252C144.607 205.223 144.727 204.787 144.414 204.746Z" fill="#3E3B3F" fill-opacity="0.13"/>
<path d="M146.615 205.183C149.985 205.804 164.348 206.281 161.789 212.444C161.431 213.308 162.851 213.703 163.2 212.831C166.447 204.714 150.594 205.129 146.669 204.8C146.455 204.788 146.401 205.145 146.615 205.183Z" fill="#3E3B3F" fill-opacity="0.13"/>
<path d="M155.461 216.299C167.36 209.971 179.522 204.232 191.882 198.858C192.524 198.578 191.968 197.636 191.331 197.916C178.971 203.265 166.932 209.255 155.095 215.678C154.688 215.896 155.05 216.517 155.461 216.299Z" fill="#3E3B3F" fill-opacity="0.13"/>
<path d="M136.288 204.293C135.979 203.725 135.667 203.162 135.358 202.594C135.222 202.199 134.626 202.154 134.506 202.594C133.955 204.684 133.651 206.856 133.256 208.983C133.099 209.835 134.428 210.173 134.543 209.337C134.84 207.136 135.243 204.927 135.375 202.709C135.152 202.837 134.934 202.964 134.712 203.088C135.329 203.388 135.827 203.82 136.197 204.38C136.251 204.449 136.341 204.355 136.288 204.293Z" fill="#3E3B3F" fill-opacity="0.13"/>
<path d="M138.814 190.354C136.239 197.657 134.054 205.071 132.153 212.58C131.997 213.193 132.951 213.452 133.1 212.839C134.91 205.314 137.049 197.887 139.419 190.523C139.543 190.132 138.946 189.975 138.814 190.354Z" fill="#3E3B3F" fill-opacity="0.13"/>
<path d="M139.427 192.777C138.485 197.944 137.041 202.939 135.083 207.815C134.815 208.481 135.914 208.79 136.169 208.115C138.024 203.207 139.378 198.179 140.234 193.003C140.316 192.472 139.522 192.242 139.427 192.777Z" fill="#3E3B3F" fill-opacity="0.13"/>
<path d="M140.39 200.492C139.658 202.356 138.946 204.224 138.255 206.1C137.988 206.82 139.201 207.174 139.419 206.421C139.967 204.503 140.493 202.586 140.995 200.656C141.098 200.257 140.534 200.126 140.39 200.492Z" fill="#3E3B3F" fill-opacity="0.13"/>
<path d="M143.373 200.138C142.332 201.499 141.872 202.927 141.756 204.626C141.711 205.305 142.838 205.314 142.818 204.626C142.769 203.092 143.217 201.792 144.081 200.553C144.385 200.109 143.686 199.726 143.373 200.138Z" fill="#3E3B3F" fill-opacity="0.13"/>
<path d="M146.624 198.443C145.871 199.813 145.134 201.195 144.357 202.549C144.04 203.1 144.92 203.606 145.204 203.043C145.904 201.644 146.644 200.265 147.372 198.879C147.632 198.389 146.891 197.953 146.624 198.443Z" fill="#3E3B3F" fill-opacity="0.13"/>
<path d="M149.66 195.291C148.771 197.122 147.899 198.957 146.953 200.755C146.595 201.438 147.66 201.911 147.936 201.171C148.648 199.27 149.442 197.402 150.215 195.526C150.347 195.209 149.808 194.983 149.66 195.291Z" fill="#3E3B3F" fill-opacity="0.13"/>
<path d="M152.215 194.292C150.763 196.485 149.956 198.789 149.397 201.348C149.224 202.15 150.442 202.335 150.516 201.5C150.738 199.06 151.631 196.777 152.837 194.658C153.071 194.25 152.47 193.909 152.215 194.292Z" fill="#3E3B3F" fill-opacity="0.13"/>
<path d="M152.182 197.982C151.565 199.34 151.038 200.738 150.417 202.096C150.018 202.977 151.359 203.512 151.623 202.602C152.038 201.162 152.548 199.751 152.96 198.307C153.087 197.858 152.384 197.533 152.182 197.982Z" fill="#3E3B3F" fill-opacity="0.13"/>
<path d="M154.029 199.804C153.305 201.01 152.618 202.232 151.77 203.355C151.293 203.989 152.404 204.672 152.857 203.989C153.202 203.47 153.515 202.939 153.836 202.405C154.276 201.664 153.116 200.989 152.684 201.73C152.371 202.269 152.058 202.804 151.77 203.355C152.153 203.515 152.536 203.676 152.918 203.836C153.42 202.582 154.103 201.405 154.737 200.212C154.984 199.755 154.301 199.352 154.029 199.804Z" fill="#3E3B3F" fill-opacity="0.13"/>
<path d="M155.437 201.056C155.803 202.257 155.741 203.306 155.149 204.417C154.692 205.273 156.062 205.874 156.383 204.936C156.881 203.479 156.865 202.249 156.276 200.825C156.07 200.327 155.272 200.504 155.437 201.056Z" fill="#3E3B3F" fill-opacity="0.13"/>
<path d="M117.312 216.658C115.321 218.739 114.206 221.566 113.387 224.286C113.165 225.022 114.366 225.347 114.535 224.602C115.161 221.813 116.366 219.352 117.411 216.711C117.428 216.658 117.349 216.62 117.312 216.658Z" fill="#3E3B3F" fill-opacity="0.13"/>
<path d="M119.732 215.661C118.604 218.459 117.514 221.274 116.341 224.051C116.086 224.656 117.135 224.981 117.349 224.331C118.279 221.479 119.295 218.649 120.275 215.814C120.394 215.464 119.863 215.332 119.732 215.661Z" fill="#3E3B3F" fill-opacity="0.13"/>
<path d="M121.653 217.434C120.476 219.993 119.312 222.553 118.053 225.075C117.781 225.622 118.596 225.98 118.831 225.404C119.888 222.824 121.032 220.281 122.167 217.735C122.32 217.389 121.813 217.084 121.653 217.434Z" fill="#3E3B3F" fill-opacity="0.13"/>
<path d="M124.509 217.126C123.221 219.895 121.933 222.664 120.645 225.437C120.349 226.075 121.312 226.626 121.587 225.988C122.801 223.174 124.015 220.36 125.229 217.55C125.443 217.064 124.739 216.632 124.509 217.126Z" fill="#3E3B3F" fill-opacity="0.13"/>
<path d="M127.203 216.18C125.508 219.352 123.867 222.558 122.101 225.689C121.715 226.376 122.826 226.993 123.142 226.297C124.644 223.022 126.282 219.801 127.858 216.563C128.063 216.131 127.434 215.748 127.203 216.18Z" fill="#3E3B3F" fill-opacity="0.13"/>
<path d="M129.841 213.612C128.088 217.286 126.414 221.009 124.546 224.622C124.225 225.247 125.167 225.663 125.443 225C126.977 221.265 128.73 217.611 130.384 213.929C130.544 213.567 130.018 213.246 129.841 213.612Z" fill="#3E3B3F" fill-opacity="0.13"/>
<path d="M130.808 214.567C129.368 218.332 127.924 222.092 126.484 225.857C126.216 226.56 127.36 226.877 127.615 226.169C128.985 222.388 130.351 218.603 131.721 214.822C131.931 214.242 131.022 214.007 130.808 214.567Z" fill="#3E3B3F" fill-opacity="0.13"/>
<path d="M132.737 217.192C131.482 220.249 130.227 223.302 128.977 226.359C128.726 226.968 129.73 227.248 129.968 226.635C131.157 223.561 132.342 220.488 133.531 217.414C133.721 216.917 132.935 216.715 132.737 217.192Z" fill="#3E3B3F" fill-opacity="0.13"/>
<path d="M134.729 219.18C134.507 221.41 133.717 223.52 132.19 225.191C131.701 225.726 132.557 226.409 132.984 225.804C134.425 223.763 135.293 221.685 135.465 219.18C135.503 218.698 134.778 218.711 134.729 219.18Z" fill="#3E3B3F" fill-opacity="0.13"/>
<path d="M137.675 218.833C137.333 221.38 136.424 223.651 134.91 225.729C134.432 226.383 135.547 227.05 136.004 226.371C137.531 224.12 138.395 221.676 138.666 218.969C138.728 218.41 137.753 218.27 137.675 218.833Z" fill="#3E3B3F" fill-opacity="0.13"/>
<path d="M140.67 220.15C139.954 221.957 139.287 223.8 138.44 225.553C138.074 226.306 139.263 226.783 139.481 225.993C140.012 224.08 140.744 222.224 141.415 220.356C141.583 219.883 140.851 219.698 140.67 220.15Z" fill="#3E3B3F" fill-opacity="0.13"/>
<path d="M144.237 220.657C143.373 222.5 142.509 224.343 141.649 226.19C141.353 226.82 142.307 227.363 142.579 226.734C143.385 224.857 144.196 222.981 145.002 221.105C145.22 220.591 144.48 220.134 144.237 220.657Z" fill="#3E3B3F" fill-opacity="0.13"/>
<path d="M148.306 219.249C147.673 221.142 147.002 223.022 146.43 224.935C146.208 225.684 147.352 225.988 147.595 225.256C148.212 223.363 148.73 221.434 149.286 219.521C149.467 218.887 148.512 218.632 148.306 219.249Z" fill="#3E3B3F" fill-opacity="0.13"/>
<path d="M152.466 220.59C151.746 221.718 151.01 222.82 150.236 223.915C149.792 224.544 150.903 225.211 151.277 224.524C151.919 223.351 152.577 222.207 153.269 221.064C153.585 220.545 152.791 220.088 152.466 220.59Z" fill="#3E3B3F" fill-opacity="0.13"/>
<path d="M155.198 218.982C154.577 220.62 153.964 222.261 153.351 223.903C153.104 224.565 154.202 224.882 154.42 224.199C154.947 222.533 155.47 220.866 155.988 219.2C156.148 218.686 155.383 218.496 155.198 218.982Z" fill="#3E3B3F" fill-opacity="0.13"/>
<path d="M160.378 216.171C159.621 218.018 158.868 219.87 158.111 221.717C157.823 222.421 159.02 222.783 159.275 222.038C159.913 220.158 160.551 218.274 161.184 216.393C161.357 215.871 160.575 215.686 160.378 216.171Z" fill="#3E3B3F" fill-opacity="0.13"/>
<path d="M165.336 214.267C165.619 215.316 163.34 216.9 164.85 217.862C165.541 218.303 166.249 217.743 166.496 217.089C166.574 216.887 166.484 216.624 166.335 216.48C166.278 216.427 166.224 216.369 166.167 216.315C165.591 215.752 164.694 216.645 165.282 217.2C165.558 217.463 166.426 214.633 166.204 214.028C166.01 213.489 165.183 213.699 165.336 214.267Z" fill="#3E3B3F" fill-opacity="0.13"/>
<path d="M172.322 210.716C172.153 211.181 172.014 211.65 171.907 212.135C171.676 213.032 173.087 213.271 173.186 212.308C173.252 211.823 173.285 211.337 173.285 210.848C173.305 210.276 172.491 210.206 172.322 210.716Z" fill="#3E3B3F" fill-opacity="0.13"/>
<path d="M117.65 228.745C114.992 226.91 111.565 226.021 108.566 224.882C107.726 224.565 107.352 225.918 108.195 226.231C111.195 227.338 114.317 228.877 117.518 229.243C117.802 229.272 117.844 228.881 117.65 228.745Z" fill="#3E3B3F" fill-opacity="0.13"/>
<path d="M112.309 225.811C112.692 225.729 113.071 225.647 113.453 225.568C114.009 225.832 114.367 224.988 113.782 224.791C112.939 224.503 112.314 224.709 111.869 225.474C111.705 225.745 112.079 226.033 112.309 225.811Z" fill="#3E3B3F" fill-opacity="0.13"/>
<path d="M115.478 228.1C108.195 225.421 100.003 226.639 93.7784 231.301C92.8568 231.992 93.7084 233.555 94.7041 232.885C100.999 228.622 107.891 227.096 115.42 228.318C115.56 228.338 115.618 228.149 115.478 228.1Z" fill="#3E3B3F" fill-opacity="0.13"/>
<path d="M91.9926 235.472C91.5976 236.031 91.1985 236.595 90.8035 237.154C90.6472 237.298 90.5937 237.603 90.7213 237.784C95.7738 244.939 105.94 246.778 113.268 242.112C114.47 241.347 113.359 239.426 112.149 240.199C108.508 242.52 104.093 243.334 99.8594 242.339C97.9791 241.894 96.1605 241.145 94.5847 240.018C92.6674 238.644 92.0502 237.94 92.5686 235.723C92.6427 235.385 92.1407 235.134 91.9926 235.472Z" fill="#3E3B3F" fill-opacity="0.13"/>
<path d="M107.199 228.84C110.931 227.458 115.807 229.572 116.798 233.617C117.946 238.287 113.021 242.397 108.611 241.43C107.693 241.229 107.302 242.644 108.224 242.841C113.284 243.919 118.946 239.682 118.292 234.234C117.662 229.013 111.54 226.1 106.989 228.342C106.714 228.474 106.907 228.947 107.199 228.84Z" fill="#3E3B3F" fill-opacity="0.13"/>
<path d="M93.7085 241.105C93.6509 236.608 84.6857 239.57 82.6408 240.825C79.1971 242.94 77.4731 248.614 81.7315 250.901C82.7437 251.444 83.6529 249.885 82.6326 249.362C79.0078 247.49 81.5752 242.796 84.229 241.52C85.6608 240.833 92.7746 238.566 93.3136 241.162C93.3588 241.38 93.7127 241.331 93.7085 241.105Z" fill="#3E3B3F" fill-opacity="0.13"/>
<path d="M96.0533 251.301C98.4932 250.996 101.344 250.601 102.879 248.429C104.118 246.676 104.192 244.413 102.645 242.858C101.92 242.13 100.764 243.294 101.521 243.981C103.258 245.565 102.229 248.079 100.554 249.227C99.2091 250.153 97.5633 250.544 96.004 250.93C95.8106 250.988 95.8435 251.325 96.0533 251.301Z" fill="#3E3B3F" fill-opacity="0.13"/>
<path d="M97.9216 251.419C101.658 250.403 105.365 249.296 109.084 248.218C109.718 248.033 109.446 247.034 108.812 247.227C105.109 248.362 101.398 249.465 97.7159 250.658C97.2304 250.815 97.4279 251.555 97.9216 251.419Z" fill="#3E3B3F" fill-opacity="0.13"/>
<path d="M79.0115 237.624C75.5595 237.858 72.5231 239.726 71.7167 243.347C71.0748 246.243 73.3172 249.749 76.5593 248.383C77.4686 248 77.0695 246.49 76.1438 246.881C74.786 247.453 73.4077 246.511 73.1197 245.12C72.8605 243.874 73.3418 242.471 74.0084 241.434C75.0699 239.788 77.0983 238.286 79.0485 237.912C79.209 237.875 79.1761 237.611 79.0115 237.624Z" fill="#3E3B3F" fill-opacity="0.13"/>
<path d="M77.6622 237.394C80.2996 240.213 80.0157 245.072 76.8023 247.343C76.2016 247.767 76.7941 248.762 77.3783 248.33C81.0072 245.627 81.5503 240.04 78.1272 236.929C77.8145 236.645 77.3742 237.086 77.6622 237.394Z" fill="#3E3B3F" fill-opacity="0.13"/>
<path d="M76.7201 239.656C77.2961 237.258 77.7199 234.818 78.1971 232.399C78.3123 231.818 77.4072 231.58 77.3126 232.156C76.9176 234.624 76.465 237.097 76.1646 239.582C76.1317 239.899 76.6502 239.961 76.7201 239.656Z" fill="#3E3B3F" fill-opacity="0.13"/>
<path d="M72.0994 251.247C67.4995 250.391 61.0892 250.799 57.8636 254.769C55.8352 257.262 57.8059 261.986 61.1551 259.912C62.052 259.357 61.2291 257.937 60.3281 258.497C58.1433 257.612 57.8841 256.509 59.5463 255.193C60.1429 254.678 60.7807 254.226 61.4637 253.835C62.4964 253.222 63.6072 252.757 64.7469 252.387C67.125 251.609 69.5567 251.342 72.05 251.613C72.2557 251.634 72.3051 251.288 72.0994 251.247Z" fill="#3E3B3F" fill-opacity="0.13"/>
<path d="M65.8416 258.797C69.0014 258.822 72.5728 258.826 75.1813 256.76C77.2303 255.135 78.3247 252.539 77.5553 249.992C77.4442 249.626 77.1521 249.457 76.7982 249.412C75.1442 249.219 73.6754 248.684 72.2477 247.836C71.1862 247.207 70.1987 248.902 71.2808 249.486C73.0377 250.437 74.8028 250.91 76.7941 250.988C76.539 250.794 76.2881 250.601 76.033 250.408C78.4111 256.493 69.8243 257.855 65.8375 257.991C65.3273 258.011 65.3232 258.793 65.8416 258.797Z" fill="#3E3B3F" fill-opacity="0.13"/>
<path d="M54.8851 247.502C51.8816 248.416 48.1992 249.885 48.2815 253.637C48.3637 257.266 51.9885 257.669 54.7904 256.965C57.6499 256.249 61.2459 254.805 61.2541 251.316C61.2583 250.119 60.7687 248.889 59.7442 248.21C58.0449 247.079 55.9425 248.465 54.2803 247.498C53.2229 246.885 52.2601 248.535 53.3216 249.136C55.0085 250.086 56.7324 249.025 58.3617 249.712C59.5425 250.21 59.7359 251.534 59.1435 252.67C58.5181 253.871 57.041 254.48 55.8355 254.904C53.7495 255.636 49.5034 256.64 49.6433 253.102C49.7544 250.263 52.8155 248.881 55.0455 247.893C55.28 247.798 55.1196 247.428 54.8851 247.502Z" fill="#3E3B3F" fill-opacity="0.13"/>
<path d="M42.2209 189.017C42.7928 186.4 43.3729 183.647 44.9035 181.397C46.6726 178.797 50.536 176.912 53.338 179.146C54.276 179.895 55.317 178.57 54.3501 177.834C51.7704 175.875 48.2114 176.455 45.8086 178.459C42.8051 180.969 42.1016 185.178 41.5255 188.823C41.4515 189.272 42.118 189.477 42.2209 189.017Z" fill="#3E3B3F" fill-opacity="0.13"/>
<path d="M51.8486 167.865C50.8735 164.799 51.1492 160.924 53.8771 158.817C56.3334 156.92 60.2091 157.426 61.8837 160.097C62.5008 161.084 64.0602 160.187 63.4512 159.179C61.4187 155.814 56.7036 155.04 53.5109 157.27C50.0424 159.689 49.5199 164.532 51.2932 168.099C51.4413 168.408 51.9515 168.194 51.8486 167.865Z" fill="#3E3B3F" fill-opacity="0.13"/>
<path d="M68.7546 158.627C67.7137 157.257 65.8499 157.212 64.4798 158.187C62.6077 159.52 63.0644 162.124 64.6484 163.495C66.3806 164.992 69.2977 165.009 70.7295 163.063C72.1367 161.149 70.7583 158.352 68.335 158.57C67.3064 158.66 67.2858 160.265 68.335 160.195C69.45 161.762 69.4088 162.631 68.2074 162.795C67.7507 163.021 67.2693 163.046 66.7756 162.873C65.9075 162.631 64.9365 161.799 64.7184 160.898C64.2288 158.878 66.8908 157.553 68.2979 158.985C68.5242 159.207 68.9603 158.895 68.7546 158.627Z" fill="#3E3B3F" fill-opacity="0.13"/>
<path d="M130.434 129.37C127.385 132.436 125.233 136.307 124.176 140.504C123.447 143.401 122.238 149.099 124.521 151.621C129.212 156.805 132.614 138.768 132.931 136.698C133.075 135.748 131.619 135.336 131.475 136.295C131.104 138.727 130.623 141.133 129.915 143.491C129.483 144.927 128.767 147.774 127.932 148.844C127.722 149.288 127.517 149.737 127.307 150.181C125.476 149.519 124.62 148.437 124.743 146.935C123.604 141.076 127.558 134.275 131.026 129.959C131.351 129.551 130.82 128.98 130.434 129.37Z" fill="#3E3B3F" fill-opacity="0.13"/>
<path d="M150.392 138.895C148.952 136.694 145.85 136.217 143.55 137.278C140.979 138.463 140.098 141.442 141.164 143.993C142.234 146.552 144.937 148.202 147.685 147.342C150.623 146.424 152.413 143.252 151.684 140.294C151.417 139.216 149.792 139.673 150.026 140.751C150.467 142.775 149.31 144.894 147.368 145.638C145.171 146.478 143.147 144.943 142.497 142.857C141.053 138.204 146.994 136.5 149.903 139.282C150.15 139.512 150.594 139.199 150.392 138.895Z" fill="#3E3B3F" fill-opacity="0.13"/>
<path d="M146.047 120.841C145.278 124.215 147.537 127.902 151.096 128.338C154.786 128.79 157.872 125.635 158.057 122.096C158.111 121.055 156.482 121.051 156.432 122.096C156.313 124.832 153.684 127.408 150.82 126.811C148.154 126.256 146.57 123.528 146.833 120.948C146.883 120.496 146.146 120.401 146.047 120.841Z" fill="#3E3B3F" fill-opacity="0.13"/>
<path d="M148.994 112.402C155.428 98.3641 163.875 85.663 174.552 74.48C175.153 73.8505 174.194 72.8919 173.598 73.5255C162.929 84.8771 154.515 97.8086 148.701 112.279C148.631 112.448 148.919 112.567 148.994 112.402Z" fill="#3E3B3F" fill-opacity="0.13"/>
<path d="M156.819 232.893C155.046 231.749 154.992 231.671 153.017 232.601C150.709 233.687 148.574 235.222 146.747 237.003C144.393 239.299 139.629 244.347 140.913 248.054C141.978 251.12 145.615 249.972 147.516 248.523C151.4 245.561 153.466 240.751 153.844 235.991C153.906 235.213 152.717 235.23 152.639 235.991C152.289 239.492 150.993 242.784 148.652 245.442C147.899 246.293 146.944 247.273 145.977 247.853C144.04 249.276 142.999 248.227 142.859 244.705C143.159 244.109 143.484 243.524 143.834 242.953C145.196 240.71 146.915 238.735 148.878 237.003C150.795 235.308 154 232.333 156.761 233.041C156.844 233.062 156.893 232.942 156.819 232.893Z" fill="#3E3B3F" fill-opacity="0.13"/>
<path d="M152.75 237.147C167.891 225.219 183.929 214.625 200.831 205.363C201.711 204.882 200.921 203.528 200.045 204.018C183.122 213.46 167.249 224.359 152.355 236.752C152.071 236.982 152.47 237.365 152.75 237.147Z" fill="#3E3B3F" fill-opacity="0.13"/>
<path d="M167.722 239.887C164.563 236.053 158.033 237.863 156.626 242.405C156.527 242.73 156.745 243.1 157.07 243.187C158.292 243.504 159.51 243.821 160.732 244.137C161.543 244.347 161.892 243.084 161.078 242.882C159.856 242.574 158.63 242.269 157.408 241.961C157.556 242.22 157.704 242.483 157.852 242.743C159.012 238.883 164.353 237.764 167.257 240.352C167.578 240.64 167.99 240.212 167.722 239.887Z" fill="#3E3B3F" fill-opacity="0.13"/>
<path d="M169.59 242.298C172.877 241.557 176.885 240.578 178.576 237.311C179.822 234.904 179.485 231.86 177.177 230.276C176.453 229.778 175.803 230.938 176.494 231.44C178.847 233.147 178.098 236.612 176.288 238.418C174.478 240.224 171.77 240.895 169.376 241.533C168.89 241.668 169.096 242.409 169.59 242.298Z" fill="#3E3B3F" fill-opacity="0.13"/>
<path d="M177.555 236.172C182.653 244.997 198.617 230.086 190.108 225.153C189.203 224.627 188.397 226.013 189.29 226.556C195.009 230.021 182.892 242.479 177.917 235.962C177.757 235.756 177.415 235.933 177.555 236.172Z" fill="#3E3B3F" fill-opacity="0.13"/>
<path d="M191.828 231.226C201.23 244.877 217.856 223.631 221.67 215.595C222.147 214.591 220.687 213.703 220.156 214.711C216.317 222.03 201.839 242.442 192.408 230.777C192.145 230.452 191.59 230.88 191.828 231.226Z" fill="#3E3B3F" fill-opacity="0.13"/>
<path d="M195.05 234.476C192.084 230.798 205.719 221.874 207.842 220.475C212.742 217.249 218.017 214.764 223.538 212.789C224.678 212.382 224.188 210.551 223.036 210.963C215.227 213.723 207.953 217.743 201.625 223.108C199.272 225.104 190.829 231.205 194.532 235.003C194.869 235.349 195.342 234.838 195.05 234.476Z" fill="#3E3B3F" fill-opacity="0.13"/>
<path d="M214.025 228.314C220.263 230.877 225.945 225.026 229.364 220.472C230.841 218.505 232.182 215.925 231.026 213.469C230.096 211.486 228.208 210.465 226.101 211.025C225.274 211.243 225.628 212.556 226.455 212.313C230.125 213.469 231.129 215.407 229.471 218.135C228.989 219.003 228.417 219.813 227.759 220.562C226.833 221.706 225.838 222.829 224.797 223.874C221.9 226.783 218.411 228.791 214.239 227.54C213.729 227.388 213.56 228.125 214.025 228.314Z" fill="#3E3B3F" fill-opacity="0.13"/>
<path d="M230.792 211.675C234.281 208.692 237.605 205.125 241.432 202.586C244.534 200.529 249.134 199.957 250.961 204.125C251.944 206.367 250.29 209.692 249.191 211.56C248.661 212.461 250.051 213.271 250.594 212.378C253.137 208.198 254.355 200.669 247.821 199.607C245.044 199.155 242.534 200.41 240.383 202.055C236.824 204.775 233.651 208.206 230.438 211.325C230.208 211.547 230.549 211.881 230.792 211.675Z" fill="#3E3B3F" fill-opacity="0.13"/>
<path d="M232.084 216.411C233.075 221.644 239.51 221.356 243.254 219.352C250.422 215.518 252.738 206.989 256.931 200.62C257.548 199.686 256.038 198.805 255.433 199.743C253.034 203.45 251.376 207.552 249.06 211.305C247.731 213.456 246.163 215.415 244.147 216.962C241.337 219.122 234.384 221.739 232.935 216.18C232.791 215.621 231.981 215.859 232.084 216.411Z" fill="#3E3B3F" fill-opacity="0.13"/>
<path d="M250.187 212.654C259.268 219.138 270.45 200.685 272.528 194.09C272.829 193.143 271.331 192.732 271.039 193.678C269.632 198.262 267.167 202.154 263.983 205.721C261.02 209.037 255.536 215.27 250.545 212.045C250.158 211.794 249.825 212.395 250.187 212.654Z" fill="#3E3B3F" fill-opacity="0.13"/>
<path d="M252.499 203.273C256.321 200.438 260.395 198.031 264.731 196.073C265.311 195.809 264.809 194.933 264.229 195.213C259.917 197.307 255.898 199.837 252.158 202.833C251.915 203.03 252.244 203.462 252.499 203.273Z" fill="#3E3B3F" fill-opacity="0.13"/>
<path d="M247.101 200.089C250.039 196.304 251.639 191.922 251.968 187.149C252.022 186.359 250.755 186.347 250.73 187.149C250.586 191.733 249.15 195.896 246.574 199.678C246.356 199.994 246.867 200.393 247.101 200.089Z" fill="#3E3B3F" fill-opacity="0.13"/>
<path d="M251.351 188.733C253.894 186.836 256.272 184.693 258.663 182.611C258.922 182.384 258.543 182.01 258.288 182.236C255.91 184.31 253.47 186.359 251.252 188.61C251.191 188.667 251.277 188.786 251.351 188.733Z" fill="#3E3B3F" fill-opacity="0.13"/>
<path d="M257.696 183.293C258.56 181.577 260.613 180.676 262.378 181.651C264.18 182.647 264.456 185.079 263.156 186.621C262.683 187.185 263.51 188 263.962 187.428C265.472 185.523 265.419 182.532 263.308 181.042C261.148 179.52 258.132 180.647 257.099 182.943C256.918 183.342 257.494 183.696 257.696 183.293Z" fill="#3E3B3F" fill-opacity="0.13"/>
<path d="M268.142 187.153C285.151 174.798 303.658 165.927 323.913 160.282C324.728 160.056 324.386 158.788 323.563 159.011C303.213 164.47 284.522 173.905 267.957 186.914C267.821 187.017 267.998 187.252 268.142 187.153Z" fill="#3E3B3F" fill-opacity="0.13"/>
<path d="M268.43 191.226C273.487 187.976 278.778 185.174 284.308 182.821C284.723 182.644 284.365 182.026 283.95 182.212C278.445 184.635 273.211 187.511 268.212 190.852C267.982 191.004 268.191 191.378 268.43 191.226Z" fill="#3E3B3F" fill-opacity="0.13"/>
<path d="M273.244 197.274C296.466 188.416 318.663 177.389 339.881 164.449C340.507 164.067 339.926 163.067 339.305 163.462C318.326 176.85 296.334 187.84 273.117 196.809C272.829 196.92 272.952 197.385 273.244 197.274Z" fill="#3E3B3F" fill-opacity="0.13"/>
<path d="M270.31 194.201C298.617 183.82 325.723 170.946 352.002 156.188C352.713 155.789 352.076 154.69 351.36 155.093C325.168 169.86 298.066 182.532 270.199 193.818C269.969 193.909 270.063 194.291 270.31 194.201Z" fill="#3E3B3F" fill-opacity="0.13"/>
<path d="M184.534 237.604C187.438 238.184 189.849 239.62 191.742 241.895C192.244 242.5 193.112 241.627 192.606 241.031C190.574 238.632 187.924 237.089 184.838 236.501C184.122 236.365 183.81 237.46 184.534 237.604Z" fill="#3E3B3F" fill-opacity="0.13"/>
<path d="M203.657 236.205C207.228 236.937 210.409 238.587 213.042 241.105C213.536 241.578 214.301 240.805 213.791 240.356C210.923 237.822 207.582 236.254 203.789 235.723C203.48 235.682 203.336 236.143 203.657 236.205Z" fill="#3E3B3F" fill-opacity="0.13"/>
<path d="M221.382 229.728C225.246 230.313 228.697 231.921 231.516 234.641C232.022 235.13 232.804 234.349 232.289 233.867C229.282 231.049 225.603 229.317 221.489 228.922C221.036 228.881 220.925 229.662 221.382 229.728Z" fill="#3E3B3F" fill-opacity="0.13"/>
<path d="M237.087 221.998C240.942 222.817 247.476 224.68 246.106 230.008C244.411 236.592 236.108 235.407 231.245 234.197C230.29 233.958 229.883 235.431 230.837 235.67C236.597 237.11 246.192 237.888 247.661 230.004C248.78 223.997 241.856 221.664 237.194 221.212C236.741 221.167 236.647 221.903 237.087 221.998Z" fill="#3E3B3F" fill-opacity="0.13"/>
<path d="M232.429 218.348C230.261 218.908 228.463 219.842 226.957 221.525C226.743 221.763 226.76 222.059 226.957 222.298C228.352 224.001 230.87 224.462 232.845 223.512C234.68 222.631 235.408 220.722 233.186 219.714C232.553 219.426 231.993 220.364 232.635 220.656C234.721 221.611 232.368 222.607 231.569 222.784C230.771 222.96 229.385 222.96 228.706 222.372C227.908 222.105 227.846 221.751 228.521 221.315C228.8 221.006 229.101 220.718 229.413 220.442C230.343 219.644 231.364 219.085 232.532 218.71C232.767 218.644 232.668 218.286 232.429 218.348Z" fill="#3E3B3F" fill-opacity="0.13"/>
<path d="M228.274 223.384C226.418 224.248 225.172 225.68 224.513 227.609C224.349 228.099 225.139 228.321 225.287 227.823C225.826 226.037 226.92 224.754 228.582 223.91C228.936 223.729 228.624 223.219 228.274 223.384Z" fill="#3E3B3F" fill-opacity="0.13"/>
<path d="M217.609 230.091C214.223 229.268 210.907 229.811 207.94 231.638C207.652 231.815 207.586 232.152 207.726 232.449C208.693 234.485 211.01 235.678 212.61 233.703C213.742 232.309 213.573 229.939 211.4 229.918C210.75 229.914 210.767 230.864 211.4 230.914C211.4 230.914 212.277 233.481 210.59 233.35C209.709 233.284 209.125 232.613 208.747 231.848C208.677 232.119 208.607 232.387 208.533 232.658C211.199 230.963 214.26 230.371 217.366 230.943C217.926 231.046 218.169 230.227 217.609 230.091Z" fill="#3E3B3F" fill-opacity="0.13"/>
<path d="M254.972 215.18C251.315 212.025 245.814 215.024 245.591 219.706C245.238 227.207 253.791 229.77 259.716 229.91C264.493 230.025 276.005 229.441 276.614 222.693C277.326 214.777 264.563 211.926 258.988 212.49C257.947 212.597 257.939 214.234 258.988 214.127C262.827 213.736 266.472 214.321 269.862 216.242C271.125 216.929 272.249 217.81 273.24 218.883C273.433 220.797 273.623 222.71 273.816 224.619C273.055 226.302 268.801 227.33 267.439 227.627C264.39 228.289 261.016 228.499 257.898 228.268C255.742 228.108 253.261 227.696 251.356 226.61C249.484 225.738 248.344 224.302 247.924 222.294C245.155 218.303 247.431 216.028 254.75 215.468C254.927 215.571 255.137 215.32 254.972 215.18Z" fill="#3E3B3F" fill-opacity="0.13"/>
<path d="M270.977 222.746C277.832 223.158 284.588 221.623 290.833 218.854C291.512 218.554 290.924 217.55 290.249 217.854C284.057 220.652 277.741 221.775 270.977 221.911C270.434 221.919 270.442 222.714 270.977 222.746Z" fill="#3E3B3F" fill-opacity="0.13"/>
<path d="M262.09 209.63C275.19 202.29 285.11 207.618 297.038 213.835C297.873 214.271 298.613 213.004 297.774 212.572C291.96 209.56 286.69 205.66 280.02 204.853C273.581 204.076 267.282 205.8 261.868 209.256C261.633 209.408 261.843 209.77 262.09 209.63Z" fill="#3E3B3F" fill-opacity="0.13"/>
<path d="M292.993 217.521C295.289 217.529 297.149 216.538 298.486 214.682C298.832 214.201 298.005 213.699 297.68 214.213C296.614 215.904 294.993 216.85 292.993 216.978C292.644 216.999 292.635 217.521 292.993 217.521Z" fill="#3E3B3F" fill-opacity="0.13"/>
<path d="M277.161 206.589C288.34 198.862 301.88 197.896 313.948 204.273C314.758 204.701 315.47 203.499 314.668 203.039C302.625 196.098 287.616 197.353 277.05 206.449C276.98 206.515 277.079 206.647 277.161 206.589Z" fill="#3E3B3F" fill-opacity="0.13"/>
<path d="M295.684 210.502C302.695 212.024 310.035 209.847 315.318 205.075C315.943 204.511 315.03 203.614 314.396 204.153C309.002 208.774 302.773 210.535 295.762 209.913C295.429 209.889 295.359 210.427 295.684 210.502Z" fill="#3E3B3F" fill-opacity="0.13"/>
<path d="M280.292 194.032C276.309 194.789 272.577 196.858 269.845 199.862C268.957 200.837 266.904 204.462 269.714 204.458C270.479 204.458 270.479 203.26 269.714 203.269C268.747 203.277 271.104 200.207 271.388 199.919C272.261 199.047 273.211 198.228 274.223 197.521C276.124 196.196 278.239 195.283 280.444 194.591C280.806 194.476 280.658 193.962 280.292 194.032Z" fill="#3E3B3F" fill-opacity="0.13"/>
<path d="M273.911 197.345C283.168 193.535 292.454 191.128 302.485 190.515C303.329 190.461 303.329 189.133 302.485 189.198C292.475 189.943 282.687 192.292 273.619 196.658C273.24 196.835 273.512 197.505 273.911 197.345Z" fill="#3E3B3F" fill-opacity="0.13"/>
<path d="M296.202 196.254C299.259 194.789 302.074 192.995 304.736 190.909C305.065 190.65 304.596 190.169 304.271 190.444C301.72 192.576 298.975 194.419 296.071 196.036C295.927 196.11 296.054 196.324 296.202 196.254Z" fill="#3E3B3F" fill-opacity="0.13"/>
<path d="M311.269 187.597C315.165 184.795 318.823 181.709 322.312 178.414C322.822 177.928 322.045 177.15 321.539 177.64C318.12 180.94 314.503 184.013 310.763 186.939C310.393 187.231 310.882 187.873 311.269 187.597Z" fill="#3E3B3F" fill-opacity="0.13"/>
<path d="M312.866 207.272C315.845 206.421 318.84 205.639 321.823 204.804C322.44 204.631 322.168 203.648 321.559 203.845C318.609 204.8 315.676 205.808 312.722 206.746C312.388 206.853 312.524 207.371 312.866 207.272Z" fill="#3E3B3F" fill-opacity="0.13"/>
<path d="M142.16 247.577C138.946 251.189 142.896 256.242 147.245 254.468C148.249 254.061 147.677 252.654 146.661 253.086C143.361 254.505 141.032 250.774 142.678 247.976C142.859 247.663 142.411 247.293 142.16 247.577Z" fill="#3E3B3F" fill-opacity="0.13"/>
<path d="M147.677 254.011C150.755 255.139 154.824 252.518 156.951 250.49C157.379 250.082 157.161 249.35 156.609 249.198C154.68 248.654 153.4 247.375 152.861 245.445C152.59 244.47 151.063 244.886 151.343 245.865C152.034 248.296 153.758 250.016 156.198 250.687C156.083 250.255 155.972 249.827 155.856 249.395C154.556 250.646 153.042 251.654 151.351 252.308C150.121 252.781 148.771 252.843 147.603 253.435C147.34 253.571 147.442 253.925 147.677 254.011Z" fill="#3E3B3F" fill-opacity="0.13"/>
<path d="M152.161 245.293C150.647 245.676 149.504 246.515 148.545 247.733C148.175 248.206 148.862 248.741 149.203 248.239C150.014 247.05 151.051 246.297 152.33 245.688C152.556 245.581 152.392 245.236 152.161 245.293Z" fill="#3E3B3F" fill-opacity="0.13"/>
<path d="M29.4745 294.67C66.4135 279.41 103.361 264.59 141.308 251.979C143.085 251.391 142.324 248.568 140.53 249.157C102.521 261.673 64.9899 276.028 29.1576 293.917C28.7503 294.127 29.0425 294.851 29.4745 294.67Z" fill="#3E3B3F" fill-opacity="0.13"/>
<path d="M97.5472 337.859C105.327 334.221 114.326 335.053 121.09 340.434C122.073 341.216 123.468 339.817 122.476 339.048C115.074 333.312 105.332 332.452 97.2468 337.344C96.9177 337.546 97.2057 338.019 97.5472 337.859Z" fill="#3E3B3F" fill-opacity="0.13"/>
<path d="M96.4812 337.184C91.005 342.706 109.051 345.759 111.672 346.071C114.679 346.433 121.513 348.108 124.105 345.458C125.854 343.673 125.442 341.434 123.533 340.171C122.521 339.501 121.628 341.093 122.591 341.78C121.468 344.022 119.933 344.997 117.987 344.709C117.086 344.668 116.185 344.627 115.284 344.582C113.482 344.483 111.672 344.384 109.878 344.17C108.199 343.973 93.9427 341.71 96.9997 337.579C97.226 337.279 96.7363 336.925 96.4812 337.184Z" fill="#3E3B3F" fill-opacity="0.13"/>
<path d="M123.299 340.002C133.96 336.225 145.924 338.71 153.009 347.906C153.902 349.062 155.523 347.844 154.614 346.668C147.261 337.209 133.799 333.588 123.11 339.545C122.867 339.681 123.032 340.101 123.299 340.002Z" fill="#3E3B3F" fill-opacity="0.13"/>
<path d="M126.718 346.001C134.679 348.882 147.632 355.827 154.034 346.606C154.754 345.569 153.104 344.673 152.367 345.631C146.743 352.996 134.153 347.141 126.932 345.228C126.426 345.092 126.241 345.829 126.718 346.001Z" fill="#3E3B3F" fill-opacity="0.13"/>
<path d="M112.626 335.732C120.127 333.128 127.15 332.667 133.922 337.534C134.934 338.262 135.938 336.563 134.906 335.856C128.508 331.486 118.868 330.149 112.363 335.099C112.075 335.317 112.219 335.872 112.626 335.732Z" fill="#3E3B3F" fill-opacity="0.13"/>
<path d="M178.839 357.876C175.033 357.892 171.828 359.209 169.187 361.982C168.475 362.727 169.639 363.875 170.31 363.105C172.503 360.6 175.589 358.851 178.909 358.378C179.201 358.337 179.123 357.872 178.839 357.876Z" fill="#3E3B3F" fill-opacity="0.13"/>
<path d="M178.025 360.118C185.176 358.896 191.495 362.435 194.635 368.894C195.042 369.734 196.523 369.133 196.161 368.248C193.326 361.291 185.06 357.345 177.84 359.452C177.408 359.579 177.593 360.192 178.025 360.118Z" fill="#3E3B3F" fill-opacity="0.13"/>
<path d="M59.2995 341.541C57.9458 342.138 57.0242 343.117 56.3906 344.446C56.2836 344.668 56.2753 344.981 56.4811 345.157C59.5751 347.787 63.4139 343.347 60.3157 340.673C59.7232 340.163 58.8551 341.018 59.4517 341.537C61.3772 343.207 59.1143 345.602 57.1929 344.236C57.2834 344.458 57.3739 344.676 57.4644 344.898C57.9129 343.705 58.637 342.895 59.6697 342.179C60.0688 341.903 59.7315 341.348 59.2995 341.541Z" fill="#3E3B3F" fill-opacity="0.13"/>
</svg>
