<svg width="212" height="320" viewBox="0 0 212 320" fill="none" xmlns="http://www.w3.org/2000/svg">
<path d="M88.6934 137.886C77.9012 142.977 68.5715 132.519 61.1373 126.089C56.7125 121.931 65.3424 121.621 68.0151 120.681C63.1981 117.045 58.587 113.623 54.3235 109.439C51.4193 105.382 59.0514 105.6 61.5413 104.458C56.881 100.787 51.9902 97.2537 47.889 92.9889C45.7766 89.2153 53.7556 90.2036 55.9369 89.2419C49.1608 85.1334 24.5609 73.0038 46.011 71.665C37.472 66.1067 22.4861 54.6281 43.7694 57.8276C38.6479 50.5995 33.4245 42.1448 32.4359 33.3276C40.0044 34.4515 46.7112 39.728 52.1036 44.9712C53.4288 41.6999 50.4635 37.7546 52.5566 34.9305C56.8933 34.867 67.3942 52.6393 69.6994 57.0293C71.2245 52.9921 70.9412 48.1156 73.976 45.0383C79.7672 51.7726 79.1414 61.609 79.8577 70.0041C82.9391 67.1179 84.9074 62.4471 88.4866 60.8939C92.5234 68.7023 89.685 77.5832 90.7831 85.8706C104.932 64.5943 98.6571 98.9726 97.3784 107.091C101.22 102.992 108.864 94.0612 107.337 106.12C104.611 114.094 104.001 137.403 92.3264 135.859C109.958 207.828 110.598 291.614 117.424 365.085C113.661 386.735 110.495 304.59 109.053 302.511C101.973 288.496 97.0987 273.202 94.0964 257.83C92.7017 236.304 93.4872 214.709 90.1199 193.316C94.3131 183.959 99.0081 212.24 99.2001 215.006C103.005 237.942 98.9844 261.957 108.158 283.864C105.663 234.873 101.122 185.445 88.6934 137.886ZM97.0013 229.652C97.0013 228.997 97.0013 228.342 97 227.689C98.1064 240.947 95.8051 254.769 99.9979 267.596C98.8504 255.064 98.8449 242.03 97.0013 229.652ZM87.6029 66.2058C81.8036 73.5346 74.41 84.7179 77.4027 94.3883C79.1177 97.4265 82.5168 97.6562 84.3831 94.7182C89.548 86.0574 87.5233 75.8924 87.6029 66.2058ZM96.5421 83.4017C91.2547 90.7175 78.9704 107.66 87.8401 115.389C96.6157 112.791 96.5465 91.2418 96.5421 83.4017ZM41.1491 75.557C44.0273 80.2032 69.8311 95.5582 67.7528 83.51C61.5747 75.6309 50.9163 75.0397 41.1491 75.557ZM104.674 104.306C97.7336 110.199 92.1791 119.054 91.1726 128.339C90.8328 131.029 93.9103 134.893 96.1859 131.693C101.733 123.685 102.381 113.611 104.674 104.306ZM58.1164 108.113C58.0196 108.318 57.9232 108.523 57.8264 108.728C86.8202 135.916 90.7745 106.652 58.1164 108.113ZM52.185 93.1382C57.7033 98.6453 64.8955 105.19 73.2157 103.981C75.3395 103.436 75.782 102.49 74.6777 100.569C69.8594 93.463 60.164 92.4468 52.185 93.1382ZM36.9228 37.6713C36.7601 37.8381 36.5977 38.0046 36.4351 38.1714C49.4406 71.9507 64.8882 53.1707 36.9228 37.6713ZM66.0217 65.8795C69.4463 56.0686 60.6767 48.0016 55.127 40.9778C56.6479 50.076 57.5831 60.3548 66.0217 65.8795ZM73.4287 80.9568C79.3464 73.5096 77.1692 60.2398 74.3579 52.0978C73.0498 61.2475 67.3711 72.6455 73.4287 80.9568ZM63.9272 125.148C68.8009 129.237 74.0969 133.258 80.1684 135.381C82.2704 136.183 88.2822 136.299 85.6067 132.663C80.2212 126.526 71.8511 124.743 63.9272 125.148ZM37.2456 60.0735C41.6478 64.9641 47.1951 69.7444 53.9592 70.7863C55.8319 71.4444 60.347 69.9141 58.3299 67.5212C52.694 62.24 44.8015 61.2749 37.2456 60.0735ZM70.4726 88.6551C69.1171 89.4654 68.1104 90.0675 66.9116 90.7841C68.7747 91.628 70.4369 92.381 72.6469 93.382C71.8004 91.5418 71.1782 90.1895 70.4726 88.6551ZM66.6727 73.297C66.845 73.2499 67.0172 73.2028 67.1897 73.156C67.1897 71.6312 67.1897 70.1066 67.1897 68.5589C66.0513 68.4598 64.984 68.3666 63.6416 68.2498C64.7566 70.1064 65.7144 71.7017 66.6727 73.297ZM79.7323 109.764C78.9738 107.914 78.4373 106.605 77.8783 105.241C76.6127 105.938 75.5908 106.501 74.3418 107.189C76.1161 108.036 77.6444 108.766 79.7323 109.764ZM81.7671 104.923C82.6367 102.994 82.9935 101.403 83.197 99.6138C81.9441 99.7038 80.9136 99.778 79.5936 99.8732C80.3152 101.549 80.9493 103.023 81.7671 104.923ZM84.7724 125.545C84.8921 125.442 85.012 125.339 85.1317 125.236C84.7143 123.952 84.2967 122.669 83.809 121.17C82.7263 121.976 81.8827 122.604 80.8856 123.346C82.3787 124.191 83.5757 124.868 84.7724 125.545ZM88.2646 122.607C88.4103 122.637 88.556 122.666 88.7017 122.696C89.1963 121.338 89.6911 119.979 90.2921 118.329C89.0655 118.555 88.1451 118.724 87.052 118.925C87.4975 120.278 87.8811 121.443 88.2646 122.607ZM61.664 71.48C60.7223 72.3533 60.0899 72.9398 59.3015 73.6707C60.8898 74.3163 62.1222 74.8169 63.3545 75.3178C63.4396 75.1893 63.5247 75.061 63.6098 74.9325C63.0194 73.8848 62.4292 72.8375 61.664 71.48ZM73.5 86.4894C73.8742 84.1563 73.8743 84.1563 72.365 84.2742C72.6664 84.8623 72.9434 85.4027 73.5 86.4894Z" fill="#3E3B3F" fill-opacity="0.1"/>
<path d="M121.949 255.024C125.205 207.924 132.594 161.32 138.383 114.49C124.791 115.767 124.413 97.2834 123.596 87.7371C124.34 83.1286 128.572 89.3398 130.584 90.3296C128.799 84.4083 127.668 78.7854 126.207 72.8378C125.084 66.8796 130.583 71.6065 132.838 72.9505C129.757 66.4393 128.418 59.3127 127.676 52.2157C128.298 48.1198 133.201 53.1124 135.216 54.3024C132.798 46.0371 131.067 38.1616 130.808 29.9234C133.852 29.308 135.572 32.9944 138.054 34.6881C135.694 25.2068 130.515 -4.53947 144.099 19.2181C144.981 12.5537 147.114 6.73356 151.421 1.57934C157.49 -6.1447 156.454 16.8146 156.499 19.8278C158.788 17.9764 160.117 16.3176 162.841 15.8078C164.892 21.7526 158.424 31.7264 156.881 38.236C174.192 24.2854 158.462 51.1458 156.493 57.097C160.362 55.1808 163.17 51.6352 167.467 50.687C168.165 58.6609 162.109 65.2668 158.5 72.0317C176.363 65.1427 160.564 83.9495 156.836 90.218C159.91 88.9518 166.617 86.7314 163.549 92.302C159.128 98.948 152.193 121.57 141.558 114.223C139.169 133.034 136.614 151.415 134.845 170.279C137.496 165.277 146.543 136.814 151.144 137.841C154.419 141.51 147.602 153.086 146.497 157.766C142.519 166.383 139.033 175.715 134.328 183.829C132.59 184.337 132.378 185.69 132.195 187.095C128.882 212.589 126.079 238.171 124.619 263.844C121.962 298.549 125.544 342.551 124.781 377.211C120.816 382.478 122.467 359.73 121.753 357.808C120.798 339.386 121.754 311.548 119.777 293.255C116.971 284.324 115.741 275.129 115.224 265.831C113.851 234.798 119.344 203.862 116.259 172.821C116.814 168.049 112.333 150.233 116.683 148.936C120.038 149.454 119.132 154.988 120.049 157.552C124.537 189.894 121.902 222.479 121.57 254.973C121.697 254.99 121.823 255.007 121.949 255.024ZM163.068 74.1732C155.359 77.4128 141.077 86.1894 145.935 95.9712C154.26 90.7418 158.126 82.0383 163.068 74.1732ZM160.294 92.57C152.634 95.3157 144.408 102.509 144.081 111.113C147.881 118.361 158.268 95.9733 160.294 92.57ZM163.351 56.4033C163.19 56.2721 163.029 56.141 162.869 56.0099C156.689 61.0876 144.912 67.6693 147.8 76.9915C156.242 74.3533 159.926 63.8229 163.351 56.4033ZM161.225 38.4382C154.796 42.3426 148.058 50.158 147.615 58.1246C151.514 66.1021 160.495 42.2529 161.225 38.4382ZM127.026 91.6673C128.181 98.4708 128.402 106.537 134.478 110.941C136.155 112.184 137.817 111.307 137.868 109.212C137.002 102.464 132.451 95.3451 127.026 91.6673ZM131.781 55.618C131.595 55.6984 131.409 55.7788 131.223 55.8592C134.942 86.7452 153.287 75.1529 131.781 55.618ZM129.692 74.2151C129.537 74.3117 129.381 74.4079 129.225 74.5045C135.253 109.087 149.588 91.9164 129.692 74.2151ZM141.989 58.4046C146.786 50.8234 138.493 42.2071 135.271 35.6274C135.069 35.7921 134.867 35.9568 134.665 36.1216C135.623 43.5354 136.523 52.949 141.989 58.4046ZM160.368 20.4572C154.042 25.5657 147.041 33.4729 150.218 42.0712C156.017 36.6948 157.573 27.7158 160.368 20.4572ZM153.254 4.93864C152.999 4.87489 152.745 4.81114 152.492 4.74739C138.733 26.8841 156.927 34.7896 153.254 4.93864ZM144.337 38.5894C147.823 31.4261 142.618 23.2482 138.939 17.1864C139.033 23.6279 139.481 34.0693 144.337 38.5894ZM142.423 78.5343C140.78 78.444 139.458 78.3714 138.086 78.296C139.286 80.3022 140.401 82.1653 141.797 84.4996C142.032 82.2616 142.217 80.5012 142.423 78.5343ZM143.112 41.7691C143.872 43.3463 144.532 44.7163 145.193 46.086C145.367 46.0733 145.542 46.0608 145.716 46.048C145.857 44.5851 145.998 43.122 146.149 41.5555C145.019 41.6349 144.221 41.6911 143.112 41.7691ZM146.464 66.3763C146.638 66.4115 146.812 66.4466 146.987 66.4817C147.894 65.2769 148.801 64.0722 149.856 62.6709C148.687 62.5505 147.837 62.4628 146.826 62.3587C146.694 63.8239 146.579 65.1 146.464 66.3763ZM139.348 102.155C139.527 102.122 139.706 102.089 139.885 102.055C140.01 100.751 140.136 99.4463 140.282 97.9196C139.194 98.0882 138.371 98.216 137.353 98.374C138.103 99.7952 138.725 100.975 139.348 102.155ZM145.609 98.9331C144.731 98.6563 144.02 98.432 143.15 98.158C143.001 99.7315 142.877 101.026 142.754 102.321C142.897 102.36 143.04 102.399 143.182 102.438C143.947 101.333 144.713 100.228 145.609 98.9331ZM145.158 79.4274C144.989 80.7352 144.693 81.8476 144.917 83.483C145.936 82.26 146.623 81.4346 147.448 80.4443C146.526 80.0349 145.898 79.756 145.158 79.4274ZM143.418 64.2574C143.591 64.1932 143.764 64.1289 143.937 64.0646C143.973 63.2608 144.009 62.4573 144.057 61.3923C143.292 61.6697 142.741 61.8692 142.024 62.1294C142.568 62.9595 142.993 63.6087 143.418 64.2574ZM148.505 46.8541C148.669 46.9119 148.833 46.9697 148.996 47.0274C149.436 46.3355 149.876 45.6439 150.46 44.7241C149.63 44.6595 149.187 44.6249 148.639 44.5825C148.589 45.4357 148.547 46.1448 148.505 46.8541Z" fill="#3E3B3F" fill-opacity="0.1"/>
<path d="M62.0409 164.487C71.9096 146.969 71.0127 174.979 71.9122 181.572C73.8391 178.625 78.6436 170.595 79.3344 178.426C78.9519 187.463 82.1003 201.127 72.7275 206.383C95.0308 251.787 97.9555 312.295 102.162 361.894C102.361 365.258 102.843 368.719 102.934 372.046C101.659 375.076 99.6636 371.981 99.7237 369.981C97.4531 354.99 97.3802 330.505 94.7386 315.615C91.9759 308.228 78.0842 255.399 67.0534 266.851C60.8739 278.462 55.7224 290.924 45.1399 299.403C43.5407 300.446 41.6573 303.055 39.6001 301.726C37.9605 300.351 39.5792 298.235 40.2003 296.73C46.8106 284.18 52.9508 271.393 59.3335 258.728C75.1266 222.038 87.7158 283.987 92.5469 296.235C89.5584 266.672 83.9586 237.803 70.3179 210.883C65.2236 213.646 60.1938 212.674 55.3273 210.374C51.7031 208.046 37.7903 203.288 47.7656 199.631C39.6648 196.465 21.3839 190.936 39.9732 185.73C33.8515 182.265 15.8734 177.868 31.7362 172.758C24.8074 169.732 0.33913 166.81 21.0963 160.929C14.7956 158.293 9.90862 153.953 5.41143 148.953C2.10703 144.688 10.2555 145.707 12.8355 145.126C11.0245 143.143 -5.01778 129.167 1.58554 128.528C8.8766 128.959 15.3847 131.432 21.4205 135.558C14.953 111.045 33.487 136.087 37.0513 143.593C37.8192 139.555 37.509 135.732 39.7627 132.506C46.5479 137.248 47.7992 146.797 50.3698 154.321C57.072 133.224 60.1578 155.767 62.0409 164.487ZM80.4018 269.617C79.2543 265.62 72.185 245.131 67.0402 252.243C59.5558 265.509 52.814 279.296 46.3536 293.075C59.0916 286.057 63.6303 244.634 80.4018 269.617ZM34.6849 190.185C37.7057 193.858 62.4417 201.998 58.9874 192.825C52.9089 185.775 42.8758 187.438 34.6849 190.185ZM8.37372 148.149C13.5368 153.204 19.7415 158.432 27.3208 158.682C29.0366 158.747 33.4791 158.359 31.5453 155.77C25.7944 149.399 17.0748 147.812 8.37372 148.149ZM66.712 163.064C63.6761 169.707 60.2427 177.092 62.4282 184.483C62.9434 186.907 65.8544 190.704 67.7237 187.117C70.0773 179.324 68.4257 170.931 66.712 163.064ZM29.4341 176.82C29.4102 177.001 29.3865 177.183 29.3626 177.365C56.5133 192.382 56.5846 168.409 29.4341 176.82ZM57.0475 173.583C60.3082 169.844 59.2814 156.17 55.0855 149.577C52.6102 157.17 50.153 167.88 57.0475 173.583ZM41.3198 138.421C41.0848 138.445 40.8498 138.47 40.6151 138.494C40.5415 146.136 39.365 157.336 46.6332 161.99C50.2241 154.258 44.2648 145.515 41.3198 138.421ZM4.66803 131.199C4.53324 131.353 4.39903 131.507 4.2645 131.661C22.4575 156.324 32.6467 138.337 4.66803 131.199ZM41.1559 168.741C39.0039 162.7 22.0643 162.221 17.559 165.82C25.1249 167.423 33.5918 171.607 41.1559 168.741ZM24.063 131.302C24.8889 138.485 27.3949 147.925 34.9615 150.668C36.164 146.214 30.4464 136.222 24.063 131.302ZM76.2933 181.685C76.0667 181.621 75.8401 181.558 75.6137 181.495C72.9942 187.951 67.6337 196.509 72.445 203.052C77.9057 198.09 75.7414 188.467 76.2933 181.685ZM67.7721 208.036C64.7423 201.117 55.4249 201.444 49.1697 203.06C54.6102 206.161 61.2942 211.134 67.7721 208.036ZM50.5806 185.044C53.1283 185.955 55.471 186.793 58.14 187.747C56.7335 185.371 55.5826 183.253 53.9391 181.508C52.7697 182.739 51.7239 183.84 50.5806 185.044ZM35.5145 158.144C34.7146 159.204 34.0656 160.063 33.2883 161.093C35.2868 161.547 37.0304 161.943 38.7743 162.339C38.855 162.22 38.9357 162.102 39.0164 161.983C37.8855 160.743 36.7546 159.504 35.5145 158.144ZM64.9189 200.37C65.0099 200.239 65.1011 200.107 65.1924 199.976C64.4331 198.561 63.674 197.145 62.8546 195.617C61.9975 196.817 61.3096 197.778 60.5417 198.852C62.0543 199.377 63.4864 199.873 64.9189 200.37ZM47.0868 172.644C47.1864 172.485 47.2858 172.326 47.3855 172.168C46.6764 171.276 45.9676 170.385 45.13 169.332C44.5742 170.333 44.1907 171.023 43.7299 171.852C44.9515 172.14 46.0191 172.392 47.0868 172.644ZM65.412 191.944C66.1012 193.177 66.6171 194.101 67.1325 195.024C67.3004 194.967 67.4681 194.909 67.6359 194.852C67.7777 193.773 67.9199 192.693 68.0919 191.385C67.1632 191.578 66.4835 191.72 65.412 191.944ZM47.4528 165.397C48.1989 166.346 48.6387 167.391 50.0144 167.995C49.7846 166.56 49.6003 165.41 49.3719 163.982C48.541 164.594 48.0404 164.964 47.4528 165.397ZM35.979 153.526C36.7073 154.209 37.3232 154.786 37.9391 155.364C38.07 155.286 38.2009 155.209 38.3318 155.132C38.1533 154.314 37.9751 153.496 37.7513 152.47C37.1471 152.829 36.7406 153.072 35.979 153.526ZM56.3523 177.124C56.868 178.071 57.1025 178.917 58.2172 179.211C58.2172 178.425 58.2172 177.79 58.2172 177.004C57.6041 177.043 57.0905 177.077 56.3523 177.124Z" fill="#3E3B3F" fill-opacity="0.1"/>
<path d="M152.48 211.933C139.463 211.595 144.021 192.005 145.874 183.792C146.758 177.065 151.088 179.98 154.847 182.805C154.408 178.354 155.961 150.1 163.689 161.789C163.941 156.154 167.809 132.321 174.515 146.192C176.316 139.32 179.235 132.841 183.757 127.412C187.651 125.261 187.395 133.169 188.949 135.67C190.125 131.464 207.201 110.857 209.107 121.187C208.181 129.031 206.92 136.331 201.959 143.171C223.741 137.632 203.474 154.042 197.56 159.948C216.787 159.198 192.31 174.249 188.038 178.586C209.612 176.613 183.369 194.289 177.529 198.361C179.659 199.393 187.855 197.427 185.848 201.325C179.835 209.386 165.219 224.995 154.91 216.012C149.773 223.345 138.478 276.034 138.766 291.579C143.749 278.993 149.709 267.084 157.664 256.11C161.768 251.907 169.745 235.901 175.04 236.283C177.582 237.83 176.099 241.722 176.265 244.204C174.128 261.752 177.173 279.369 176.797 296.875C171.163 303.945 167.196 262.743 166.271 258.874C134.802 293.365 136.729 320.824 136.129 364.045C136.46 365.504 135.461 368.522 133.842 366.469C131.859 317.638 135.631 258.224 152.48 211.933ZM192.001 181.86C181.369 181.948 166.662 184.786 164.47 196.428C167.255 205.929 188.47 186.481 192.001 181.86ZM206.415 121.998C198.578 125.286 191.636 133.536 190.953 142.3C191.312 149.121 198.789 142.266 200.441 139.516C204.009 134.218 204.98 128.062 206.415 121.998ZM201.069 163.323C192.718 163.004 185.354 166.955 178.94 171.926C176.154 173.667 174.726 178.738 179.55 178.003C188.555 176.436 194.325 169.338 201.069 163.323ZM181.217 202.454C181.119 202.258 181.021 202.063 180.924 201.868C146.7 204.267 154.354 230.116 181.217 202.454ZM150.236 183.85C150.022 183.937 149.808 184.025 149.595 184.113C139.173 224.098 166.325 206.668 150.236 183.85ZM158.429 261.045C158.582 261.196 158.736 261.347 158.889 261.497C173.297 243.624 169.25 274.439 173.17 282.271C172.437 268.072 172.438 255.289 173.226 241.397C173.082 241.337 172.937 241.277 172.793 241.217C168.005 247.827 163.217 254.436 158.429 261.045ZM170.999 146.213C167.589 152.578 165.67 159.893 167.953 166.906C168.53 169.244 171.607 171.696 173.338 168.958C176.636 161.681 173.837 153.297 170.999 146.213ZM184.995 132.187C180.671 138.096 175.961 145.818 179.115 153.181C180.036 155.181 181.339 155.338 182.62 153.594C186.992 147.22 186.718 139.385 184.995 132.187ZM161.189 164.07C160.987 164.058 160.785 164.046 160.583 164.034C159.034 171.785 155.112 182.208 161.018 188.844C167.42 182.73 164.614 171.276 161.189 164.07ZM207.362 145.261C199.802 147.306 189.561 150.424 187.371 158.792C187.221 160.769 188.064 161.455 189.913 160.834C197.178 157.616 202.412 151.291 207.362 145.261ZM172.975 177.654C171.739 179.681 170.487 181.625 169.842 183.994C171.912 182.984 173.983 181.974 176.011 180.985C174.964 179.835 174.086 178.872 172.975 177.654ZM172.092 173.626C170.504 173.23 169.275 172.923 168.096 172.628C168.096 174.948 168.096 177.12 168.096 179.292C168.259 179.347 168.422 179.401 168.586 179.456C169.702 177.6 170.818 175.744 172.092 173.626ZM184.025 159.936C182.558 162.262 181.198 164.418 179.839 166.574C179.964 166.688 180.089 166.801 180.214 166.914C182.035 165.751 183.857 164.589 185.675 163.429C185.149 162.314 184.666 161.293 184.025 159.936ZM181.656 158.415C180.231 158.129 179.157 157.913 178.148 157.71C178.148 159.557 178.148 161.301 178.148 163.046C178.308 163.09 178.468 163.133 178.628 163.177C179.599 161.65 180.57 160.122 181.656 158.415ZM159.082 204.439C159.207 204.564 159.333 204.69 159.458 204.816C160.96 203.879 162.462 202.941 164.029 201.964C163.143 201.014 162.424 200.242 161.488 199.237C160.639 201.074 159.86 202.756 159.082 204.439ZM158.357 191.391C158.588 193.222 158.774 194.693 158.959 196.164C159.137 196.178 159.314 196.192 159.492 196.206C160.111 194.93 160.731 193.654 161.398 192.282C160.306 191.962 159.527 191.734 158.357 191.391Z" fill="#3E3B3F" fill-opacity="0.1"/>
</svg>
