<svg width="167" height="216" viewBox="0 0 167 216" fill="none" xmlns="http://www.w3.org/2000/svg">
<path d="M16.3629 104.537C7.54182 91.2272 14.624 89.213 22.6313 79.0959C27.4641 72.4155 33.5576 73.4686 40.1598 71.6422C54.6556 59.9514 57.8681 53.6065 78.4204 57.4075C84.2728 59.5767 90.3007 60.9362 96.4861 61.6971C103.33 62.589 108.202 68.1473 114.361 70.8198C120.879 74.3699 126.81 78.8313 132.241 83.8977C140.826 80.603 144.974 86.9735 143.499 95.0062C143.521 98.9177 146.937 101.938 146.431 106.081C147.002 110.496 146.84 114.925 142.248 117.132C143.197 120.405 143.771 123.73 143.465 127.181C143.459 128.729 143.475 128.747 144.945 129.161C150.084 131.063 144.944 137.436 143.94 140.757C146.707 141.129 148.474 142.319 149.2 145.072C150.292 150.11 152.411 156.694 148.609 161.009C150.28 164.99 150.429 169.227 150.854 173.412C151.449 179.596 155.6 184.597 157.444 190.406C159.636 198.795 148.894 200.339 142.991 201.607C129.135 204.483 115.301 207.568 101.23 209.214C93.0002 210.244 84.8008 211.447 76.6371 212.909C67.4179 214.348 58.0053 217.274 48.7372 214.629C41.6744 212.904 34.6481 211.021 27.5553 209.432C18.3548 207.252 8.67437 205.067 2.1158 197.761C-3.6519 189.929 3.73211 167.634 8.10245 159.489C9.83518 155.951 10.5855 152.248 10.1801 148.344C8.72072 133.388 11.1058 118.551 16.3629 104.537ZM78.706 133.011C90.0599 137.294 99.9644 130.076 109.838 125.342C119.098 119.855 130.159 119.677 139.646 115.047C142.979 114.04 144.395 109.788 144.361 106.64C144.449 102.444 141.244 99.0392 141.446 94.9049C142.387 87.7788 141.15 84.1261 133.066 85.3873C134.41 88.0781 134.811 90.2545 136.332 92.8431C136.912 91.5689 136.459 89.4896 137.904 89.1874C138.5 89.259 138.582 89.8067 138.638 90.2966C138.537 93.4415 137.906 96.915 135.936 99.4495C130.718 105.612 122.462 108.246 115.616 112.139C111.861 111.444 117.914 108.992 118.611 107.835C100.276 103.219 86.3063 117.416 69.5584 121.25C64.819 122.126 60.9079 118.249 56.6523 116.737C47.361 111.771 36.6274 108.965 28.3659 102.343C25.7755 99.8674 24.829 97.0029 25.9176 93.5097C28.181 87.091 28.6283 79.0905 35.1315 75.3527C26.2239 75.3379 22.8024 84.5905 16.6649 89.4969C10.2351 95.6131 20.2237 103.763 22.913 109.612C31.4638 118.126 42.5243 124.007 51.3803 132.35C52.1814 132.748 52.2241 134.147 51.1277 133.982C41.46 128.643 33.787 120.119 24.2212 114.463C21.2977 112.672 19.8134 110.026 18.0249 107.106C7.41093 137.491 9.86296 158.253 33.1241 181.159C33.7253 186.428 21.2148 170.374 19.7791 169.486C15.9902 165.642 14.3147 160.515 12.6376 155.53C6.14751 167.527 2.38621 180.812 2.6512 194.511C5.78231 201.226 14.7381 203.462 21.4188 205.442C34.4218 207.984 47.2928 213.615 60.6685 212.99C77.9832 210.183 95.3444 207.505 112.7 205.002C175.981 192.067 150.592 202.552 146.796 162.406C143.745 163.826 139.153 168.686 136.169 168.568C138.294 163.814 147.74 162.036 148.345 156.18C148.006 151.61 148.814 143.03 142.49 142.767C137.61 147.706 132.015 151.951 127.612 157.396C122.308 163.576 115.26 167.858 108.28 171.904C107.377 172.16 105.857 173.704 105.32 172.247C113.801 166.978 122.031 161.447 128.326 153.504C133.723 146.283 143.686 142.62 145.09 132.824C145.433 131.542 145.168 131.291 143.837 130.918C139.53 129.759 142.497 121.488 139.996 118.14C129.298 120.832 118.484 123.087 108.781 128.582C99.0291 133.733 88.4469 140.046 77.3499 134.955C73.727 134.315 70.8007 139.061 66.9377 137.609C66.2394 137.399 65.4202 137.155 65.4943 136.01C72.579 135.697 86.3503 125.516 92.6381 121.18C95.1191 119.801 102.11 112.879 104.457 114.681C104.851 115.374 104.287 115.706 103.797 116.061C95.6393 122.102 87.6047 128.09 78.706 133.011ZM72.4211 58.4952C57.074 57.8359 53.819 63.6791 42.8523 72.5544C40.35 74.6407 37.7062 76.5234 34.848 78.0903C30.8321 82.3831 30.1082 89.2377 27.9791 94.6579C25.7569 102.777 44.3575 107.569 49.8594 111.165C56.1194 113.435 62.119 118.128 68.7348 118.7C85.4917 115.001 100.048 101.126 118.175 105.496C120.814 106.514 122.956 106.206 125.157 104.402C128.585 102.534 131.793 100.388 134.343 97.3668C136.279 95.5202 133.654 93.3613 133.267 91.3218C129.222 78.4519 113.198 73.888 103.14 66.5156C100.857 64.8721 98.2819 63.8826 95.5037 63.4855C87.527 63.0193 80.33 58.7222 72.4211 58.4952Z" fill="#3E3B3F" fill-opacity="0.1"/>
<path d="M48.6751 168.536C55.8129 171.38 62.6486 179.643 70.3719 179.466C82.5092 177.563 93.9299 172.036 103.454 164.362C104.888 162.862 106.319 163.597 104.57 165.292C95.8336 174.21 83.2963 179.275 71.0842 181.028C62.7164 180.931 56.4683 173.448 49.277 169.877C48.9074 169.641 48.3621 169.468 48.6751 168.536Z" fill="#3E3B3F" fill-opacity="0.1"/>
<path d="M34.7372 175.775C35.6298 175.315 35.9118 175.814 36.2221 176.142C44.822 185.748 48.3858 189.706 59.9819 195.341C62.3311 197.077 69.9778 199.384 70.5774 201.77C68.7583 203.085 65.526 200.102 63.5388 199.572C51.8133 194.497 40.9796 187.236 34.7372 175.775Z" fill="#3E3B3F" fill-opacity="0.1"/>
<path d="M12.6502 162.042C13.7064 162.997 13.6166 164.013 13.9855 165.207C15.7225 169.836 18.9629 173.583 21.9872 177.418C24.197 180.98 31.1665 186.545 31.556 190.122C30.9124 190.452 30.2231 189.775 29.8323 189.273C25.461 184.4 21.0431 179.567 16.7534 174.623C14.469 171.347 8.99851 165.883 12.6502 162.042Z" fill="#3E3B3F" fill-opacity="0.1"/>
<path d="M140.147 103.472C139.272 97.3941 144.772 104.08 141.763 108.006C139.571 111.212 136.258 114.136 132.201 114.393C128.691 112.969 141.014 110.8 140.147 103.472Z" fill="#3E3B3F" fill-opacity="0.1"/>
<path d="M141.588 135.17C142.094 136.963 138.702 141.504 138.832 137.868C140.781 133.231 135.433 132.54 136.955 122.791C137.177 120.685 138.904 121.582 138.688 123.319C138.271 130.052 140.707 130.139 141.588 135.17Z" fill="#3E3B3F" fill-opacity="0.1"/>
<path d="M45.4258 158.886C50.3301 161.906 54.7466 165.7 59.4572 169.026C60.3735 169.866 61.7884 170.417 62.0205 171.747C57.0567 171.401 50.7939 164.09 46.2963 161.298C45.6472 160.711 43.9847 159.548 45.4258 158.886Z" fill="#3E3B3F" fill-opacity="0.1"/>
<path d="M146.618 172.074C146.431 175.471 145.918 178.86 147.046 182.163C147.431 183.085 146.531 183.921 145.782 183.222C143.699 181.078 142.882 168.864 145.446 167.641C147.198 168.195 146.357 170.668 146.663 172.071C146.648 172.072 146.633 172.073 146.618 172.074Z" fill="#3E3B3F" fill-opacity="0.1"/>
<path d="M146.341 151.82C145.831 153.824 146.803 158.346 144.661 159.172C143.109 158.367 144.512 150.043 144.015 147.786C144.031 147.173 144.152 146.565 144.893 146.501C146.883 146.982 146.027 150.235 146.235 151.814C146.27 151.816 146.306 151.818 146.341 151.82Z" fill="#3E3B3F" fill-opacity="0.1"/>
<path d="M14.3581 130.625C14.5201 129.155 13.9028 127.44 14.8293 126.184C15.6873 126.707 15.7483 127.583 15.7963 128.492C15.7247 132.806 17.2624 137.69 16.2626 141.73C14.0771 139.124 15.031 134.018 14.1415 130.645C14.2137 130.638 14.286 130.631 14.3581 130.625Z" fill="#3E3B3F" fill-opacity="0.1"/>
<path d="M27.1076 84.6984C25.5313 88.0233 22.4365 90.7558 19.394 92.743C16.5027 92.5366 24.6201 86.0174 25.214 84.7587C25.7191 83.9721 26.7118 83.5565 27.1076 84.6984Z" fill="#3E3B3F" fill-opacity="0.1"/>
<path d="M136.384 142.763C135.894 143.599 131.082 147.968 130.339 146.893C129.795 145.259 133.993 143.364 135.058 142.112C135.672 141.646 136.324 141.941 136.384 142.763Z" fill="#3E3B3F" fill-opacity="0.1"/>
<path d="M9.13954 177.381C8.64876 178.791 9.19853 183.09 7.64559 183.285C6.43397 182.721 7.69243 178.069 7.4726 176.603C7.78138 174.027 9.26122 175.657 9.13954 177.381Z" fill="#3E3B3F" fill-opacity="0.1"/>
<path d="M9.43005 170.425C9.79609 169.713 10.3401 169.111 10.9486 170.1C11.4489 172.135 13.4277 174.481 12.857 176.496C10.8266 176.365 10.1349 172.266 9.43005 170.425Z" fill="#3E3B3F" fill-opacity="0.1"/>
<path d="M123.37 96.0847C125.429 95.9942 125.456 98.8156 123.467 98.8761C121.593 98.9133 121.417 96.1244 123.37 96.0847Z" fill="#3E3B3F" fill-opacity="0.1"/>
<path d="M108.253 97.2541C106.366 97.233 106.367 94.2654 108.292 94.3403C110.183 94.3714 110.179 97.3235 108.253 97.2541Z" fill="#3E3B3F" fill-opacity="0.1"/>
<path d="M43.51 102.627C43.5359 104.527 40.6121 104.352 40.642 102.541C40.6477 100.664 43.544 100.784 43.51 102.627Z" fill="#3E3B3F" fill-opacity="0.1"/>
<path d="M107.287 102.457C105.513 102.576 105.35 99.7357 107.083 99.6161C108.921 99.4936 109.179 102.365 107.287 102.457Z" fill="#3E3B3F" fill-opacity="0.1"/>
<path d="M84.918 79.0951C85.0125 80.8941 82.2221 81.0282 82.175 79.2159C82.0689 77.4307 84.89 77.2857 84.918 79.0951Z" fill="#3E3B3F" fill-opacity="0.1"/>
<path d="M102.116 93.5739C103.872 93.666 103.738 96.606 101.991 96.5504C100.254 96.5616 100.418 93.4346 102.116 93.5739Z" fill="#3E3B3F" fill-opacity="0.1"/>
<path d="M72.2263 110.623C72.13 108.69 74.9571 108.702 74.9138 110.574C74.9326 112.425 72.1895 112.599 72.2263 110.623Z" fill="#3E3B3F" fill-opacity="0.1"/>
<path d="M122.202 91.2694C124.046 91.1977 123.95 93.9566 122.144 93.966C120.201 94.0064 120.461 91.3635 122.202 91.2694Z" fill="#3E3B3F" fill-opacity="0.1"/>
<path d="M107.406 83.9723C105.527 83.885 106.184 81.077 107.801 81.2144C109.666 81.3301 109.058 84.0731 107.406 83.9723Z" fill="#3E3B3F" fill-opacity="0.1"/>
<path d="M115.539 101.512C115.484 103.312 112.648 103.12 112.787 101.323C112.851 99.4708 115.648 99.7572 115.539 101.512Z" fill="#3E3B3F" fill-opacity="0.1"/>
<path d="M125.66 87.2632C127.401 87.1257 127.834 89.6529 126.075 89.8698C124.255 90.0436 123.584 87.3547 125.66 87.2632Z" fill="#3E3B3F" fill-opacity="0.1"/>
<path d="M94.7924 100.928C94.8853 102.651 92.1943 102.811 92.0802 101.099C91.9089 99.3087 94.7602 99.1071 94.7924 100.928Z" fill="#3E3B3F" fill-opacity="0.1"/>
<path d="M53.6833 100.282C53.7687 101.925 51.1547 102.043 51.0871 100.407C50.9364 98.6663 53.6664 98.5445 53.6833 100.282Z" fill="#3E3B3F" fill-opacity="0.1"/>
<path d="M60.821 109.234C59.1674 109.228 59.1701 106.37 60.8783 106.523C62.5195 106.591 62.5739 109.34 60.821 109.234Z" fill="#3E3B3F" fill-opacity="0.1"/>
<path d="M64.8897 93.6563C64.8774 95.3536 62.1035 95.2884 62.1912 93.588C62.2458 91.8953 64.9507 91.9303 64.8897 93.6563Z" fill="#3E3B3F" fill-opacity="0.1"/>
<path d="M116.635 91.8325C116.562 93.6196 113.958 93.3205 113.952 91.663C113.907 89.9505 116.767 90.1828 116.635 91.8325Z" fill="#3E3B3F" fill-opacity="0.1"/>
<path d="M112.667 75.5087C114.253 75.4262 114.499 78.133 112.866 78.1291C111.353 78.0062 110.683 75.5559 112.667 75.5087Z" fill="#3E3B3F" fill-opacity="0.1"/>
<path d="M128.157 97.2492C126.138 97.1921 126.297 94.7717 128.277 94.8675C130.045 94.8735 129.905 97.3823 128.157 97.2492Z" fill="#3E3B3F" fill-opacity="0.1"/>
<path d="M70.8154 116.835C69.2305 116.798 69.3209 114.037 70.9406 114.162C72.5386 114.202 72.4232 116.965 70.8154 116.835Z" fill="#3E3B3F" fill-opacity="0.1"/>
<path d="M126.122 84.3327C126.166 85.8702 123.616 86.1149 123.58 84.4755C123.488 82.7759 126.084 82.6276 126.122 84.3327Z" fill="#3E3B3F" fill-opacity="0.1"/>
<path d="M47.0714 86.0999C48.7889 86.0327 48.7658 88.684 47.0729 88.6315C45.4736 88.6247 45.4545 86.1019 47.0714 86.0999Z" fill="#3E3B3F" fill-opacity="0.1"/>
<path d="M97.0459 91.7184C95.4134 91.8631 95.1036 89.3981 96.788 89.3449C98.3675 89.2613 98.8015 91.6458 97.0459 91.7184Z" fill="#3E3B3F" fill-opacity="0.1"/>
<path d="M85.0306 106.631C84.9016 108.335 82.3696 107.931 82.5723 106.27C82.7579 104.598 85.1278 105.12 85.0306 106.631Z" fill="#3E3B3F" fill-opacity="0.1"/>
<path d="M121.248 103.612C121.276 105.186 118.873 105.493 118.817 103.845C118.798 102.455 121.278 101.832 121.248 103.612Z" fill="#3E3B3F" fill-opacity="0.1"/>
<path d="M131.346 90.783C131.432 92.3194 128.971 92.3968 128.941 90.8675C128.86 89.3255 131.312 89.2539 131.346 90.783Z" fill="#3E3B3F" fill-opacity="0.1"/>
<path d="M97.1322 97.5632C98.6759 97.5003 98.6843 99.9609 97.1129 99.9213C95.4543 100.004 95.6641 97.5872 97.1322 97.5632Z" fill="#3E3B3F" fill-opacity="0.1"/>
<path d="M125.338 100.554C127.041 100.532 126.67 103.13 125.264 103.103C123.962 102.908 123.7 100.554 125.338 100.554Z" fill="#3E3B3F" fill-opacity="0.1"/>
<path d="M85.945 96.3349C87.5061 96.3778 87.4511 98.7275 85.8886 98.6722C84.3631 98.6409 84.354 96.2378 85.945 96.3349Z" fill="#3E3B3F" fill-opacity="0.1"/>
<path d="M119.259 96.5632C120.756 96.5991 120.653 98.9121 119.197 98.9003C117.633 98.9259 117.684 96.4526 119.259 96.5632Z" fill="#3E3B3F" fill-opacity="0.1"/>
<path d="M69.3037 86.8122C67.7983 86.8662 67.6756 84.39 69.2366 84.3786C70.7786 84.3167 70.828 86.7976 69.3037 86.8122Z" fill="#3E3B3F" fill-opacity="0.1"/>
<path d="M66.4888 68.9252C64.9713 69.0099 64.8399 66.7257 66.3823 66.6831C68.1399 66.5451 68.2382 68.8935 66.4888 68.9252Z" fill="#3E3B3F" fill-opacity="0.1"/>
<path d="M57.5234 66.7226C59.0446 66.8016 58.8141 69.2761 57.295 69.093C55.8217 68.9772 56.151 66.636 57.5234 66.7226Z" fill="#3E3B3F" fill-opacity="0.1"/>
<path d="M47.7381 91.0439C49.2468 90.9061 49.6641 93.249 48.1125 93.3821C46.7469 93.4619 46.0548 91.1271 47.7381 91.0439Z" fill="#3E3B3F" fill-opacity="0.1"/>
<path d="M93.1402 94.3695C94.6928 94.4402 94.3702 96.8616 92.8863 96.7559C91.2001 96.716 91.5716 94.2564 93.1402 94.3695Z" fill="#3E3B3F" fill-opacity="0.1"/>
<path d="M66.6265 101.053C64.7614 101.01 65.508 98.8715 66.907 98.8511C68.4169 98.931 68.1476 101.155 66.6265 101.053Z" fill="#3E3B3F" fill-opacity="0.1"/>
<path d="M114.886 96.8913C114.889 98.4231 112.596 98.3292 112.586 96.8711C112.574 95.4165 114.942 95.3814 114.886 96.8913Z" fill="#3E3B3F" fill-opacity="0.1"/>
<path d="M41.0497 94.0736C42.5197 94.1448 42.5522 96.5359 41.0051 96.4965C39.5554 96.4853 39.7536 94.0385 41.0497 94.0736Z" fill="#3E3B3F" fill-opacity="0.1"/>
<path d="M72.4415 76.8769C73.9762 76.7898 73.9286 79.136 72.4618 79.1246C71.0703 79.1219 71.0293 76.9031 72.4415 76.8769Z" fill="#3E3B3F" fill-opacity="0.1"/>
<path d="M79.7772 73.6677C78.3604 73.7405 78.2428 71.4921 79.6603 71.4403C81.029 71.3761 81.228 73.6558 79.7772 73.6677Z" fill="#3E3B3F" fill-opacity="0.1"/>
<path d="M99.4946 102.04C98.1587 102.119 97.9246 100.052 99.2892 99.8899C100.731 99.6946 100.933 101.948 99.4946 102.04Z" fill="#3E3B3F" fill-opacity="0.1"/>
<path d="M111.356 88.2379C112.784 88.1694 112.846 90.4055 111.417 90.4017C110.009 90.4043 109.874 88.2685 111.356 88.2379Z" fill="#3E3B3F" fill-opacity="0.1"/>
<path d="M92.2844 106.25C92.2926 107.655 90.0709 107.688 90.0501 106.272C90.0084 104.837 92.2547 104.87 92.2844 106.25Z" fill="#3E3B3F" fill-opacity="0.1"/>
<path d="M102.769 88.1947C102.857 86.7929 105.243 87.4831 105.134 88.5171C105.034 89.9767 102.739 89.4002 102.769 88.1947Z" fill="#3E3B3F" fill-opacity="0.1"/>
<path d="M100.784 85.0416C99.3375 84.9774 99.7794 82.8445 101.072 82.99C102.486 83.1073 102.137 85.1594 100.784 85.0416Z" fill="#3E3B3F" fill-opacity="0.1"/>
<path d="M35.5182 96.1728C34.1878 96.1832 34.1902 93.9621 35.5431 94.0055C36.9042 93.9723 36.8398 96.2171 35.5182 96.1728Z" fill="#3E3B3F" fill-opacity="0.1"/>
<path d="M84.3891 89.683C85.8244 89.5682 85.979 91.7752 84.5179 91.7849C83.1925 91.8278 83.0096 89.749 84.3891 89.683Z" fill="#3E3B3F" fill-opacity="0.1"/>
<path d="M86.7213 73.5675C86.7371 74.9814 84.6269 74.8768 84.6368 73.5028C84.6205 72.0751 86.7306 72.2179 86.7213 73.5675Z" fill="#3E3B3F" fill-opacity="0.1"/>
<path d="M119.186 88.0228C120.764 87.9741 121.038 89.9923 119.545 89.9889C118.141 89.9006 118.306 88.5581 119.186 88.0228Z" fill="#3E3B3F" fill-opacity="0.1"/>
<path d="M121.557 82.9455C121.561 84.0973 119.382 84.3279 119.486 82.9739C119.489 81.6229 121.615 81.543 121.557 82.9455Z" fill="#3E3B3F" fill-opacity="0.1"/>
<path d="M76.3666 101.42C75.8026 102.24 74.4107 102.32 74.2471 101.104C74.284 99.7091 76.3883 100.03 76.3666 101.42Z" fill="#3E3B3F" fill-opacity="0.1"/>
<path d="M107.328 77.8944C106.813 78.7316 105.418 78.8616 105.228 77.6509C105.183 76.3453 107.397 76.3919 107.328 77.8944Z" fill="#3E3B3F" fill-opacity="0.1"/>
<path d="M113.404 83.614C114.623 83.5449 114.529 85.5647 113.353 85.5605C111.938 85.6663 112.162 83.7052 113.404 83.614Z" fill="#3E3B3F" fill-opacity="0.1"/>
<path d="M78.4231 92.0637C77.8994 92.7896 76.5033 92.9808 76.5103 91.7161C76.6164 90.4107 78.5939 90.5539 78.4231 92.0637Z" fill="#3E3B3F" fill-opacity="0.1"/>
<path d="M88.3285 79.78C89.7221 79.7541 89.8741 81.7478 88.5979 81.8449C87.5986 81.79 87.5219 80.2555 88.3285 79.78Z" fill="#3E3B3F" fill-opacity="0.1"/>
<path d="M95.1807 77.6103C94.3109 78.406 93.2361 79.103 92.9756 77.6223C93.2031 76.0986 94.3544 76.6537 95.1807 77.6103Z" fill="#3E3B3F" fill-opacity="0.1"/>
<path d="M96.7198 67.2906C97.3972 67.7413 97.8808 69.0071 96.6363 69.183C95.3521 69.2862 95.0987 67.2253 96.7198 67.2906Z" fill="#3E3B3F" fill-opacity="0.1"/>
<path d="M93.4315 87.5512C93.4783 88.7408 91.5385 89.0218 91.5217 87.7252C91.4262 86.5735 93.3924 86.3111 93.4315 87.5512Z" fill="#3E3B3F" fill-opacity="0.1"/>
<path d="M35.7696 82.3545C36.6228 83.2227 37.2479 84.3013 35.7893 84.5415C34.3139 84.3445 34.9582 83.2314 35.7696 82.3545Z" fill="#3E3B3F" fill-opacity="0.1"/>
<path d="M88.6588 102.453C88.0353 101.908 87.8568 100.595 89.0991 100.743C90.262 100.908 90.0316 102.671 88.6588 102.453Z" fill="#3E3B3F" fill-opacity="0.1"/>
<path d="M48.5398 78.6764C47.9812 79.3262 46.6292 79.0994 46.667 78.1481C46.8034 76.8573 48.7643 77.3978 48.5398 78.6764Z" fill="#3E3B3F" fill-opacity="0.1"/>
<path d="M88.5329 67.457C89.2456 68.3113 89.946 68.8437 88.8081 69.4457C87.5827 69.4699 87.7681 68.3093 88.5329 67.457Z" fill="#3E3B3F" fill-opacity="0.1"/>
<path d="M96.45 83.008C95.4425 83.5503 94.7866 84.1602 94.4204 82.8768C94.593 81.6671 95.7627 82.1345 96.45 83.008Z" fill="#3E3B3F" fill-opacity="0.1"/>
<path d="M77.7814 82.6319C77.0479 81.9201 76.5201 80.7913 77.7573 80.7627C78.8815 81.1672 78.4621 81.7444 77.7814 82.6319Z" fill="#3E3B3F" fill-opacity="0.1"/>
<path d="M104.459 70.8867C105.173 71.6842 105.763 72.7157 104.436 72.8372C103.099 72.6837 103.698 71.6711 104.459 70.8867Z" fill="#3E3B3F" fill-opacity="0.1"/>
<path d="M83.3386 111.046C83.4465 112.385 81.7383 112.425 81.6398 111.323C81.5863 110.154 82.8513 110.529 83.3386 111.046Z" fill="#3E3B3F" fill-opacity="0.1"/>
<path d="M82.3777 65.0938C81.577 65.8484 81.0216 66.3386 80.5303 65.2436C80.4557 64.0098 81.6104 64.3966 82.3777 65.0938Z" fill="#3E3B3F" fill-opacity="0.1"/>
<path d="M91.3429 74.2782C90.6909 73.4616 90.2912 73.0141 91.2446 72.549C92.4476 72.4417 91.9977 73.5059 91.3429 74.2782Z" fill="#3E3B3F" fill-opacity="0.1"/>
<path d="M100.062 75.4188C99.3798 74.6674 99.1585 74.3368 100.019 73.9072C100.759 74.1683 100.527 74.6875 100.062 75.4188Z" fill="#3E3B3F" fill-opacity="0.1"/>
<path d="M76.7591 67.0073C77.3998 67.5884 77.4484 67.7847 76.86 68.3171C76.1683 67.8897 76.2196 67.6869 76.7591 67.0073Z" fill="#3E3B3F" fill-opacity="0.1"/>
<path d="M128.079 30.1673C133.103 47.2405 94.3471 67.6064 86.792 48.4912C85.5431 45.8604 86.7037 43.0641 86.1162 40.3207C85.7416 37.1282 84.8683 33.118 88.2245 31.2416C98.883 26.2002 111.421 18.5055 123.373 23.6388C125.495 24.5111 127.31 22.361 129.083 21.4793C139.923 14.53 149.876 5.79769 161.539 0.30248C164.822 -0.929925 166.131 1.81998 166.327 4.6435C167.793 12.141 160.749 15.7991 154.96 18.363C146.03 22.3668 137.021 26.1917 128.079 30.1673ZM121.463 32.9604C119.755 31.2268 117.288 30.1757 114.912 30.0204C113.745 30.56 112.893 30.0043 112.023 29.2984C107.803 25.8631 102.681 29.71 98.3746 31.015C94.6839 32.058 93.1052 35.6789 90.1765 37.7688C87.6846 40.593 87.4985 46.1499 89.416 49.3562C90.7201 51.3709 93.3657 55.6385 95.7735 52.5406C97.3985 48.7703 96.4892 46.724 100.988 44.8722C107.174 41.0076 117.719 39.3126 121.463 32.9604ZM99.2933 48.2201C99.3526 48.3324 99.4121 48.4447 99.4714 48.557C106.751 47.7605 128.486 40.2439 126.215 30.8883C125.364 29.5073 127.136 28.8076 128.125 28.2058C137.138 23.4672 146.509 19.4774 155.708 15.1261C160.194 13.0059 165.624 9.90815 164.206 4.09512C163.888 2.17307 163.472 1.90842 161.697 2.81296C150.319 9.08592 139.78 16.7622 129.063 24.0777C121.218 29.9859 119.17 17.441 96.777 29.2868C104.278 27.6322 114.239 22.8061 121.554 26.6731C125.27 29.0718 124.183 34.8531 120.905 37.142C114.275 41.8372 105.936 43.5524 99.2933 48.2201ZM97.2441 54.0871C104.845 55.9119 121.744 47.6301 125.317 38.9501C117.625 45.4189 108.274 49.7534 98.3341 50.5453C97.9517 51.7881 97.5972 52.9396 97.2441 54.0871ZM112.964 27.7329C113.487 28.7059 113.985 29.0408 114.86 28.7044C117.349 28.3295 119.226 30.0886 121.819 30.7812C120.338 27.2295 116.286 27.4289 112.964 27.7329ZM89.1806 32.8002C89.1989 32.9087 89.2169 33.0174 89.2352 33.126C91.5974 33.0986 93.7958 31.9713 95.076 29.8916C93.1108 30.8612 91.1458 31.8307 89.1806 32.8002ZM89.6256 35.5895C88.8347 35.5895 88.3526 35.5895 87.7599 35.5895C87.8618 36.0381 87.9392 36.3784 88.0583 36.9021C88.6031 36.4458 89.0109 36.1044 89.6256 35.5895Z" fill="#3E3B3F" fill-opacity="0.1"/>
<path d="M95.3601 47.8099C95.4138 49.3 93.0681 49.3058 93.0359 47.8595C92.9283 46.3112 95.4136 46.2301 95.3601 47.8099Z" fill="#3E3B3F" fill-opacity="0.1"/>
<path d="M107.627 39.9696C106.053 40.0335 106.051 37.5709 107.606 37.6411C109.021 37.6667 109.146 40.0003 107.627 39.9696Z" fill="#3E3B3F" fill-opacity="0.1"/>
<path d="M111.706 35.7264C110.34 35.6659 110.505 33.5436 111.824 33.614C113.156 33.6774 113.055 35.8133 111.706 35.7264Z" fill="#3E3B3F" fill-opacity="0.1"/>
<path d="M91.574 42.2871C91.5753 43.7732 89.7069 43.7258 89.7374 42.4486C89.7281 41.1411 91.0927 41.6511 91.574 42.2871Z" fill="#3E3B3F" fill-opacity="0.1"/>
<path d="M94.9929 43.0425C94.2134 42.2613 93.4535 41.2615 94.8468 40.9907C96.265 41.1148 95.7838 42.1797 94.9929 43.0425Z" fill="#3E3B3F" fill-opacity="0.1"/>
<path d="M117.188 33.7644C116.761 34.4421 115.481 34.7311 115.434 33.5671C115.445 32.3543 117.235 32.3514 117.188 33.7644Z" fill="#3E3B3F" fill-opacity="0.1"/>
<path d="M98.8165 37.5907C97.9352 38.3377 96.7987 38.81 96.7441 37.4169C97.1071 36.1632 98.0245 36.8754 98.8165 37.5907Z" fill="#3E3B3F" fill-opacity="0.1"/>
<path d="M105.849 31.5631C105.109 32.3415 104.094 32.9179 103.962 31.6004C104.055 30.2644 105.065 30.7773 105.849 31.5631Z" fill="#3E3B3F" fill-opacity="0.1"/>
<path d="M93.2102 38.0557C93.9696 38.7978 94.3812 39.9375 93.1349 39.8941C92.0402 39.4348 92.4688 38.8914 93.2102 38.0557Z" fill="#3E3B3F" fill-opacity="0.1"/>
<path d="M110.096 29.8413C110.747 30.6226 110.845 30.8573 110.072 31.4198C109.365 30.7954 109.216 30.5969 110.096 29.8413Z" fill="#3E3B3F" fill-opacity="0.1"/>
<path d="M100.405 41.3257C101.001 41.8853 101.086 42.1084 100.48 42.6177C99.8299 42.153 99.6847 41.971 100.405 41.3257Z" fill="#3E3B3F" fill-opacity="0.1"/>
<path d="M94.9126 36.2941C94.3439 35.7979 94.27 35.3352 94.9221 35.1084C95.6046 35.3325 95.4909 35.796 94.9126 36.2941Z" fill="#3E3B3F" fill-opacity="0.1"/>
</svg>
